<svg width="209" height="160" viewBox="0 0 209 160" fill="none" xmlns="http://www.w3.org/2000/svg">
<g clip-path="url(#clip0_739_2263)">
<path d="M184.14 148.799C184.125 148.733 182.652 142.126 185.66 136.638C188.669 131.151 195.09 128.731 195.155 128.707L195.448 128.599L195.518 128.9C195.533 128.965 197.006 135.573 193.997 141.06C190.989 146.548 184.568 148.968 184.503 148.992L184.21 149.1L184.14 148.799ZM195.046 129.333C193.759 129.877 188.683 132.259 186.142 136.894C183.601 141.529 184.368 147.01 184.612 148.366C185.898 147.823 190.973 145.445 193.516 140.805C196.057 136.17 195.29 130.689 195.046 129.333Z" fill="#002E6A"/>
<path d="M191.699 139.136C186.293 142.335 184.211 148.689 184.211 148.689C184.211 148.689 190.894 149.857 196.3 146.658C201.706 143.458 203.788 137.104 203.788 137.104C203.788 137.104 197.105 135.936 191.699 139.136Z" fill="#BFDBFF"/>
<path d="M49.5854 114.578C48.9994 114.314 48.4116 114.037 47.8387 113.757L48.0392 113.348C48.8619 113.75 49.7101 114.141 50.5534 114.508L50.3717 114.927C50.1092 114.812 49.8471 114.696 49.5854 114.578ZM52.9541 115.982L53.1165 115.557C53.9739 115.885 54.8509 116.199 55.723 116.489L55.5808 116.922C54.7018 116.63 53.8182 116.314 52.9541 115.982ZM45.3601 112.477C44.5463 112.033 43.7324 111.566 42.9413 111.087L43.1789 110.698C43.9641 111.173 44.7715 111.637 45.5793 112.077L45.3601 112.477ZM58.2462 117.743L58.3682 117.304C59.2543 117.555 60.1557 117.788 61.047 117.998L60.9454 118.442C60.0472 118.231 59.139 117.996 58.2462 117.743ZM40.5882 109.591C39.8186 109.076 39.0504 108.538 38.3053 107.989L38.5782 107.624C39.3176 108.168 40.0798 108.702 40.8437 109.213L40.5882 109.591ZM63.6732 119.019L63.7538 118.57C64.6581 118.739 65.5764 118.89 66.4831 119.018L66.4234 119.471C65.5096 119.342 64.5844 119.19 63.6732 119.019ZM36.0982 106.287C35.3782 105.705 34.6627 105.099 33.9716 104.486L34.2776 104.147C34.9635 104.756 35.6736 105.357 36.388 105.934L36.0982 106.287ZM69.19 119.796L69.2285 119.341C70.1413 119.428 71.0685 119.495 71.9849 119.539L71.9675 119.996C71.0443 119.951 70.1099 119.884 69.19 119.796ZM31.9249 102.586C31.2613 101.941 30.6031 101.272 29.9686 100.596L30.3055 100.287C30.9351 100.958 31.5882 101.622 32.2467 102.262L31.9249 102.586ZM74.7435 120.069L74.7393 119.612C75.6519 119.615 76.5787 119.597 77.494 119.559L77.5192 120.015C76.5968 120.054 75.663 120.072 74.7435 120.069ZM80.2883 119.836L80.242 119.381C81.1547 119.301 82.0757 119.199 82.9789 119.079L83.0461 119.531C82.136 119.653 81.2081 119.756 80.2883 119.836ZM85.7859 119.102L85.6979 118.653C86.5963 118.491 87.5034 118.306 88.3938 118.104L88.5025 118.549C87.6054 118.753 86.6913 118.939 85.7859 119.102ZM21.6727 89.4618C21.2108 88.667 20.76 87.8494 20.333 87.0313L20.7431 86.8257C21.1669 87.6375 21.6142 88.4489 22.0726 89.2374L21.6727 89.4618ZM91.1896 117.875L91.0608 117.434C91.9394 117.192 92.8249 116.926 93.6933 116.644L93.8422 117.079C92.9674 117.363 92.075 117.631 91.1896 117.875ZM19.1062 84.5448C18.7182 83.7113 18.3441 82.8578 17.9946 82.0078L18.4224 81.8399C18.7693 82.6836 19.1404 83.5307 19.5254 84.358L19.1062 84.5448ZM96.4547 116.163L96.2856 115.736C97.1399 115.414 97.9971 115.07 98.8329 114.711L99.0214 115.131C98.179 115.492 97.3155 115.84 96.4547 116.163ZM17.0006 79.4254C16.69 78.5599 16.3958 77.6774 16.126 76.8026L16.5679 76.6744C16.8356 77.5426 17.1275 78.4182 17.4359 79.277L17.0006 79.4254ZM101.537 113.983L101.329 113.572C102.149 113.175 102.97 112.754 103.77 112.321L103.996 112.722C103.19 113.159 102.363 113.583 101.537 113.983ZM15.3726 74.1454C15.1429 73.2591 14.9308 72.3553 14.7421 71.4592L15.1943 71.3712C15.3818 72.2604 15.5922 73.1574 15.8201 74.0373L15.3726 74.1454ZM106.393 111.35L106.149 110.959C106.928 110.49 107.706 109.996 108.462 109.491L108.724 109.871C107.962 110.379 107.178 110.877 106.393 111.35ZM14.2358 68.7497C14.0888 67.8479 13.9607 66.9305 13.8551 66.0223L14.3141 65.9755C14.419 66.8768 14.5461 67.7874 14.6921 68.6821L14.2358 68.7497ZM110.983 108.286L110.704 107.918C111.435 107.379 112.164 106.816 112.87 106.243L113.165 106.598C112.454 107.175 111.72 107.743 110.983 108.286ZM115.266 104.812L114.954 104.471C115.632 103.867 116.305 103.238 116.953 102.603L117.281 102.93C116.627 103.57 115.949 104.203 115.266 104.812ZM13.4732 57.7913C13.4944 56.8807 13.5372 55.9587 13.6008 55.0506L14.0619 55.0878C13.9987 55.989 13.9562 56.9038 13.9351 57.8073L13.4732 57.7913ZM119.205 100.956L118.863 100.644C119.479 99.982 120.088 99.2957 120.673 98.6043L121.029 98.9002C120.439 99.5969 119.825 100.289 119.205 100.956ZM13.8567 52.3135C13.9628 51.4083 14.0917 50.4928 14.2401 49.5923L14.6963 49.6712C14.549 50.5649 14.4211 51.4735 14.3158 52.3717L13.8567 52.3135ZM122.755 96.7623L122.386 96.4824C122.936 95.7671 123.478 95.0273 123.996 94.2842L124.378 94.5467C123.856 95.2958 123.309 96.0411 122.755 96.7623ZM14.7502 46.8932C14.9404 46.0022 15.154 45.1036 15.3857 44.2218L15.8331 44.3417C15.6032 45.2169 15.3912 46.1087 15.2025 46.9928L14.7502 46.8932ZM125.895 92.2589L125.502 92.0135C125.983 91.2511 126.453 90.4646 126.9 89.676L127.304 89.9032C126.853 90.6981 126.379 91.4905 125.895 92.2589ZM16.1446 41.5837C16.4162 40.7163 16.7125 39.8417 17.0251 38.9843L17.4602 39.144C17.1497 39.9951 16.8558 40.8629 16.5863 41.7239L16.1446 41.5837ZM128.602 87.4855L128.189 87.2764C128.598 86.4701 128.994 85.6437 129.365 84.8203L129.788 85.0109C129.413 85.8406 129.015 86.6733 128.602 87.4855ZM18.0247 36.4282C18.2402 35.9123 18.4674 35.3892 18.6999 34.8739C18.8442 34.5541 18.991 34.2363 19.1403 33.9203L19.5594 34.1182C19.4112 34.4318 19.2655 34.7472 19.1223 35.0645C18.8915 35.576 18.666 36.0952 18.452 36.6074L18.0247 36.4282ZM20.7791 31.6831L20.3693 31.4668C20.7966 30.6605 21.2478 29.8549 21.7102 29.0722L22.1099 29.3065C21.651 30.0832 21.2034 30.8827 20.7791 31.6831ZM131.785 78.732C132.07 77.8748 132.135 77.4231 132.38 76.5522L132.825 76.6802C132.578 77.5576 132.401 78.2326 132.113 79.0963L131.785 78.732ZM23.5495 26.9939L23.1607 26.7419C23.6611 25.9784 24.1853 25.2179 24.7191 24.4811L25.0958 24.7503C24.5662 25.4815 24.046 26.2363 23.5495 26.9939ZM133.058 73.9135C133.263 73.0304 133.449 72.1325 133.612 71.2448L134.067 71.3319C133.903 72.2263 133.715 73.1311 133.508 74.0209L133.058 73.9135ZM26.7455 22.5808L26.3814 22.2948C26.9497 21.5827 27.5431 20.8739 28.1452 20.1878L28.4957 20.4899C27.8983 21.1707 27.3095 21.8741 26.7455 22.5808ZM134.041 68.5521C134.162 67.6547 134.264 66.7428 134.343 65.8414L134.804 65.8865C134.724 66.7949 134.621 67.714 134.499 68.6183L134.041 68.5521ZM30.3479 18.4769L30.0116 18.1594C30.6468 17.5006 31.306 16.8482 31.971 16.2203L32.2924 16.5529C31.6324 17.1759 30.9782 17.8233 30.3479 18.4769ZM134.519 63.118C134.556 62.2143 134.572 61.298 134.567 60.3944L135.03 60.3977C135.035 61.3083 135.018 62.2316 134.981 63.142L134.519 63.118ZM34.3249 14.7213L34.0194 14.3746C34.7132 13.7781 35.4307 13.1898 36.1519 12.6259L36.4413 12.9858C35.7255 13.5454 35.0135 14.1293 34.3249 14.7213ZM134.49 57.6691C134.443 56.765 134.374 55.8492 134.285 54.9475L134.745 54.9087C134.835 55.8175 134.904 56.7401 134.951 57.6512L134.49 57.6691ZM38.637 11.35L38.3645 10.9774C39.1106 10.4479 39.8801 9.92807 40.6515 9.43254L40.9066 9.81677C40.1411 10.3086 39.3774 10.8245 38.637 11.35ZM133.955 52.2355C133.824 51.3351 133.671 50.428 133.5 49.5391L133.954 49.4589C134.126 50.3546 134.281 51.2688 134.413 52.176L133.955 52.2355ZM43.2457 8.38926L43.0085 7.99404C43.8021 7.53451 44.6167 7.0872 45.4303 6.66466L45.6491 7.06987C44.8418 7.48936 44.0331 7.93316 43.2457 8.38926ZM132.921 46.8638C132.708 45.9783 132.472 45.0871 132.22 44.2149L132.664 44.0942C132.918 44.973 133.156 45.8709 133.371 46.7631L132.921 46.8638ZM48.1116 5.86153L47.9117 5.44701C48.7431 5.0623 49.5962 4.69095 50.4474 4.34326L50.6282 4.76601C49.7835 5.11115 48.9368 5.47978 48.1116 5.86153ZM131.398 41.5984C131.105 40.7348 130.788 39.867 130.456 39.0195L130.887 38.8592C131.221 39.7133 131.54 40.5875 131.836 41.4576L131.398 41.5984ZM53.1932 3.78599L53.0319 3.35569C53.8983 3.04706 54.7826 2.75451 55.6603 2.48618L55.8017 2.92313C54.9307 3.18936 54.053 3.47967 53.1932 3.78599ZM129.398 36.4839C129.026 35.6485 128.631 34.8116 128.224 33.9965L128.637 33.7979C129.048 34.6191 129.446 35.4624 129.821 36.3042L129.398 36.4839ZM58.4482 2.17891L58.3269 1.7364C59.2164 1.50794 60.1245 1.29654 61.026 1.1081L61.127 1.55538C60.2322 1.74246 59.3309 1.95217 58.4482 2.17891ZM63.8324 1.05382L63.7522 0.60274C64.6602 0.455545 65.5845 0.327294 66.4996 0.221279L66.5588 0.675348C65.6508 0.78053 64.7335 0.907897 63.8324 1.05382ZM69.3009 0.420865L69.2627 -0.0351986C70.182 -0.0994893 71.1148 -0.143441 72.0351 -0.166046L72.0523 0.291009C71.139 0.313384 70.2133 0.357004 69.3009 0.420865ZM120.711 22.4651C120.126 21.7575 119.517 21.0542 118.9 20.3747L119.243 20.0718C119.864 20.7566 120.478 21.4653 121.068 22.1783L120.711 22.4651ZM74.8074 0.286046L74.8116 -0.170926C75.7333 -0.15161 76.6667 -0.110804 77.5858 -0.0497345L77.5604 0.40644C76.6484 0.345738 75.7222 0.305238 74.8074 0.286046ZM116.994 18.3673C116.347 17.716 115.675 17.0701 114.997 16.4476L115.309 16.1143C115.992 16.7417 116.669 17.3925 117.322 18.0489L116.994 18.3673ZM80.3131 0.652642L80.3597 0.19847C81.2793 0.301889 82.2083 0.427774 83.1207 0.572793L83.053 1.02402C82.1474 0.880164 81.2256 0.755202 80.3131 0.652642ZM112.918 14.6245C112.214 14.0351 111.488 13.4538 110.758 12.8971L111.037 12.5365C111.773 13.0976 112.505 13.6832 113.214 14.2772L112.918 14.6245ZM85.7743 1.51975L85.863 1.07228C86.7694 1.25876 87.6837 1.46862 88.5804 1.69604L88.471 2.13871C87.5809 1.91307 86.6737 1.70482 85.7743 1.51975ZM108.521 11.2691C107.767 10.746 106.99 10.2328 106.212 9.74364L106.456 9.35865C107.24 9.85165 108.023 10.3689 108.783 10.8959L108.521 11.2691ZM91.1377 2.87941L91.2677 2.44235C92.1534 2.70996 93.0454 3.00144 93.9187 3.30892L93.7686 3.73935C92.9019 3.43434 92.0168 3.14502 91.1377 2.87941ZM103.836 8.32351C103.039 7.87092 102.219 7.42927 101.398 7.01103L101.606 6.60526C102.433 7.02671 103.259 7.47164 104.062 7.92774L103.836 8.32351ZM96.3592 4.71673L96.5288 4.29366C97.3195 4.61217 98.118 4.95302 98.9024 5.30681L99.0935 5.3934L98.9047 5.80832L98.7149 5.72229C97.9364 5.37119 97.1438 5.03285 96.3592 4.71673Z" fill="#002E6A"/>
<path d="M209 148.669H39.1587V149.125H209V148.669Z" fill="#002E6A"/>
<path d="M138.564 72.0278L140.881 107.355C140.881 107.355 146.442 121.258 146.21 134.477C146.21 134.477 144.125 139.719 145.747 140.631C147.369 141.543 148.295 142.227 147.369 142.91C146.442 143.594 145.747 145.189 146.442 145.645C147.137 146.101 147.369 146.785 147.137 146.785H140.186C140.186 146.785 141.576 143.366 139.49 142.454C137.405 141.543 138.564 139.264 138.564 139.264L123.039 94.5917L110.759 135.617C110.759 135.617 112.844 136.984 111.222 137.668C109.6 138.352 108.905 136.984 109.6 138.352C110.295 139.719 109.369 140.403 109.369 140.631C109.369 140.859 102.417 139.947 102.417 139.947C102.417 139.947 105.893 136.984 104.271 136.301C102.649 135.617 101.954 134.933 102.417 134.477C102.881 134.021 104.734 129.691 104.734 129.691C104.734 129.691 105.661 113.281 105.893 112.597C106.125 111.913 105.893 108.723 105.893 107.127C105.893 105.532 105.661 99.15 106.356 97.5546C107.051 95.9592 107.747 76.3583 111.454 74.0791C115.161 71.7999 138.564 72.0278 138.564 72.0278Z" fill="#002E6A"/>
<path d="M109.137 139.491C109.137 139.491 113.771 148.836 110.527 149.976C107.283 151.115 103.112 150.203 102.185 151.571C101.258 152.938 91.0633 154.534 90.8316 151.115C90.5999 147.696 101.954 141.315 101.954 141.315L103.433 138.972L109.137 139.491Z" fill="#002E6A"/>
<path d="M146.673 146.329C146.673 146.329 151.307 155.674 148.063 156.813C144.819 157.953 140.649 157.041 139.722 158.409C138.795 159.776 128.6 161.372 128.368 157.953C128.137 154.534 139.49 148.152 139.49 148.152L140.969 145.81L146.673 146.329Z" fill="#002E6A"/>
<path d="M125.24 29.0653C129.463 29.0653 132.886 25.6979 132.886 21.544C132.886 17.3901 129.463 14.0227 125.24 14.0227C121.017 14.0227 117.594 17.3901 117.594 21.544C117.594 25.6979 121.017 29.0653 125.24 29.0653Z" fill="#FFB8B8"/>
<path d="M130.454 25.5325L129.527 32.1421L122.576 37.3842L120.722 34.8771V26.2162L130.454 25.5325Z" fill="#FFB8B8"/>
<path d="M119.563 33.9654C119.563 33.9654 126.746 34.6492 130.454 32.1421L137.868 75.2186C137.868 75.2186 111.685 77.2698 110.527 75.9023V62.4552L115.161 40.575L119.563 33.9654Z" fill="#002E6A"/>
<path d="M129.816 30.0825L132.307 32.142C132.307 32.142 142.503 33.7375 141.807 36.4725L139.027 68.8368L139.954 79.7769C139.954 79.7769 132.076 77.7256 126.051 79.7769C120.027 81.8281 124.813 35.6968 124.813 35.6968C124.813 35.6968 130.336 30.758 129.816 30.0825Z" fill="#BFDBFF"/>
<path d="M120.722 32.5774C120.722 32.5774 113.307 37.8401 112.38 41.2589C111.454 44.6777 108.441 80.6887 108.441 80.6887C108.441 80.6887 109.832 80.0049 110.527 81.1445C111.222 82.2841 121.88 34.3801 120.722 32.5774Z" fill="#BFDBFF"/>
<path d="M117.597 21.2163C117.597 21.2163 116.77 19.995 117.088 18.6797C117.278 17.9329 117.353 17.1623 117.311 16.3936C117.311 16.3936 117.979 14.2641 118.648 13.074C119.317 11.884 118.998 11.3829 121.1 11.0071C123.201 10.6314 122.341 7.93814 127.881 10.8506C128.068 11.1073 128.328 11.3037 128.628 11.4152C128.928 11.5267 129.255 11.5481 129.568 11.4769C130.714 11.2577 131.128 12.8235 131.128 12.8235C131.128 12.8235 131.892 12.3851 132.179 13.0114C132.465 13.6377 134.508 12.6355 134.508 16.8632C134.508 21.0909 132.183 24.8674 132.183 24.8674C132.183 24.8674 132.354 17.7558 128.565 17.0356C124.777 16.3153 120.702 14.2171 119.715 16.9103C119.182 18.4219 118.471 19.867 117.597 21.2163Z" fill="#002E6A"/>
<path d="M132.267 22.9072C132.68 22.9072 133.014 22.4684 133.014 21.9271C133.014 21.3858 132.68 20.947 132.267 20.947C131.854 20.947 131.52 21.3858 131.52 21.9271C131.52 22.4684 131.854 22.9072 132.267 22.9072Z" fill="#FFB8B8"/>
<path d="M100.863 92.4093C99.0292 91.3248 96.8185 91.4076 95.978 91.4904C96.2981 92.259 97.2584 94.2195 99.0919 95.3046C100.93 96.3918 103.138 96.3065 103.977 96.2243C103.657 95.4559 102.696 93.4946 100.863 92.4093Z" fill="#BFDBFF"/>
<path d="M109.478 113.93H98.0188C97.3349 113.93 96.6791 114.197 96.1956 114.673C95.7121 115.149 95.4404 115.794 95.4404 116.466C95.4404 117.139 95.7121 117.784 96.1956 118.26C96.6791 118.735 97.3349 119.003 98.0188 119.003H109.478C110.161 119.002 110.817 118.734 111.3 118.259C111.783 117.783 112.054 117.139 112.054 116.466C112.054 115.794 111.783 115.149 111.3 114.674C110.817 114.198 110.161 113.931 109.478 113.93Z" fill="#BFDBFF"/>
<path d="M161.37 87.1594H97.121C96.3736 87.1594 95.6335 87.3042 94.943 87.5856C94.2525 87.8669 93.6251 88.2793 93.0966 88.7991C92.5681 89.3189 92.1489 89.9361 91.8629 90.6153C91.5769 91.2945 91.4297 92.0225 91.4297 92.7577V123.549C91.4297 125.034 92.0293 126.458 93.0966 127.508C94.164 128.557 95.6116 129.147 97.121 129.147H161.37C162.117 129.147 162.857 129.002 163.548 128.721C164.238 128.44 164.866 128.027 165.394 127.508C165.923 126.988 166.342 126.371 166.628 125.691C166.914 125.012 167.061 124.284 167.061 123.549V92.7577C167.061 92.0225 166.914 91.2945 166.628 90.6153C166.342 89.9361 165.923 89.319 165.394 88.7991C164.866 88.2793 164.238 87.8669 163.548 87.5856C162.857 87.3042 162.117 87.1594 161.37 87.1594ZM95.5314 90.9783C95.6583 90.9557 98.6667 90.4521 101.158 91.9266C103.649 93.4008 104.606 96.2515 104.646 96.3721L104.746 96.6795L104.423 96.7359C103.962 96.8067 103.495 96.8404 103.029 96.8366C101.897 96.8366 100.258 96.6525 98.7963 95.7873C96.3052 94.3133 95.3483 91.4626 95.3088 91.3421L95.2081 91.0347L95.5314 90.9783ZM109.478 119.566H98.0188C97.183 119.566 96.3815 119.24 95.7905 118.658C95.1995 118.077 94.8675 117.288 94.8675 116.466C94.8675 115.644 95.1995 114.856 95.7905 114.274C96.3815 113.693 97.183 113.367 98.0188 113.367H109.478C110.314 113.367 111.115 113.693 111.706 114.274C112.297 114.856 112.629 115.644 112.629 116.466C112.629 117.288 112.297 118.077 111.706 118.658C111.115 119.24 110.314 119.566 109.478 119.566ZM161.618 119.003C161.615 119.899 161.252 120.757 160.608 121.391C159.964 122.024 159.091 122.381 158.18 122.384H149.586C148.675 122.381 147.802 122.024 147.158 121.391C146.514 120.757 146.151 119.899 146.148 119.003V113.93C146.151 113.034 146.514 112.176 147.158 111.542C147.802 110.908 148.675 110.551 149.586 110.549H158.18C159.091 110.551 159.964 110.908 160.608 111.542C161.252 112.176 161.615 113.034 161.618 113.93L161.618 119.003Z" fill="#BFDBFF"/>
<path d="M152.307 118.016H148.583C148.317 118.016 148.062 118.12 147.874 118.305C147.686 118.49 147.58 118.741 147.58 119.002C147.58 119.264 147.686 119.515 147.874 119.7C148.062 119.885 148.317 119.989 148.583 119.989H152.307C152.573 119.989 152.828 119.885 153.016 119.7C153.204 119.515 153.31 119.264 153.31 119.002C153.31 118.741 153.204 118.49 153.016 118.305C152.828 118.12 152.573 118.016 152.307 118.016ZM152.307 119.425H148.583C148.526 119.425 148.47 119.414 148.418 119.393C148.366 119.372 148.318 119.341 148.278 119.302C148.238 119.262 148.207 119.216 148.185 119.164C148.163 119.113 148.152 119.058 148.152 119.002C148.152 118.947 148.163 118.892 148.185 118.84C148.207 118.789 148.238 118.742 148.278 118.703C148.318 118.664 148.366 118.633 148.418 118.612C148.47 118.59 148.526 118.58 148.583 118.58H152.307C152.364 118.58 152.42 118.59 152.472 118.612C152.524 118.633 152.572 118.664 152.612 118.703C152.652 118.742 152.683 118.789 152.705 118.84C152.727 118.892 152.738 118.947 152.738 119.002C152.738 119.058 152.727 119.113 152.705 119.164C152.683 119.216 152.652 119.262 152.612 119.302C152.572 119.341 152.524 119.372 152.472 119.393C152.42 119.414 152.364 119.425 152.307 119.425Z" fill="#BFDBFF"/>
<path d="M159.183 118.016H155.458C155.327 118.016 155.196 118.041 155.074 118.091C154.952 118.14 154.842 118.213 154.748 118.304C154.655 118.396 154.581 118.505 154.531 118.625C154.48 118.744 154.454 118.873 154.454 119.002C154.454 119.132 154.48 119.26 154.531 119.38C154.581 119.5 154.655 119.609 154.748 119.7C154.842 119.792 154.952 119.865 155.074 119.914C155.196 119.964 155.327 119.989 155.458 119.989H159.183C159.449 119.989 159.704 119.885 159.892 119.7C160.08 119.515 160.185 119.264 160.185 119.002C160.185 118.741 160.08 118.49 159.892 118.305C159.704 118.12 159.449 118.016 159.183 118.016ZM159.183 119.425H155.458C155.402 119.425 155.346 119.414 155.294 119.393C155.241 119.372 155.194 119.341 155.154 119.302C155.114 119.262 155.082 119.216 155.06 119.164C155.039 119.113 155.028 119.058 155.028 119.002C155.028 118.947 155.039 118.892 155.06 118.84C155.082 118.789 155.114 118.742 155.154 118.703C155.194 118.664 155.241 118.633 155.294 118.612C155.346 118.59 155.402 118.58 155.458 118.58H159.183C159.296 118.58 159.405 118.625 159.486 118.704C159.566 118.783 159.611 118.89 159.611 119.002C159.611 119.114 159.566 119.222 159.486 119.301C159.405 119.38 159.296 119.425 159.183 119.425Z" fill="#BFDBFF"/>
<path d="M152.307 115.48H148.583C148.317 115.48 148.062 115.584 147.874 115.769C147.686 115.954 147.58 116.205 147.58 116.466C147.58 116.728 147.686 116.979 147.874 117.164C148.062 117.349 148.317 117.453 148.583 117.453H152.307C152.439 117.453 152.569 117.427 152.691 117.378C152.813 117.328 152.924 117.256 153.017 117.164C153.11 117.073 153.184 116.964 153.235 116.844C153.285 116.724 153.311 116.596 153.311 116.466C153.311 116.337 153.285 116.208 153.235 116.089C153.184 115.969 153.11 115.86 153.017 115.768C152.924 115.677 152.813 115.604 152.691 115.555C152.569 115.505 152.439 115.48 152.307 115.48ZM152.307 116.889H148.583C148.469 116.889 148.359 116.844 148.279 116.765C148.198 116.686 148.153 116.578 148.153 116.466C148.153 116.354 148.198 116.247 148.279 116.167C148.359 116.088 148.469 116.044 148.583 116.044H152.307C152.421 116.044 152.53 116.088 152.611 116.167C152.691 116.247 152.737 116.354 152.737 116.466C152.737 116.578 152.691 116.686 152.611 116.765C152.53 116.844 152.421 116.889 152.307 116.889Z" fill="#BFDBFF"/>
<path d="M159.183 115.48H155.458C155.327 115.48 155.196 115.505 155.074 115.555C154.952 115.604 154.842 115.677 154.748 115.768C154.655 115.86 154.581 115.969 154.531 116.089C154.48 116.208 154.454 116.337 154.454 116.466C154.454 116.596 154.48 116.724 154.531 116.844C154.581 116.964 154.655 117.073 154.748 117.164C154.842 117.256 154.952 117.328 155.074 117.378C155.196 117.427 155.327 117.453 155.458 117.453H159.183C159.449 117.453 159.704 117.349 159.892 117.164C160.08 116.979 160.185 116.728 160.185 116.466C160.185 116.205 160.08 115.954 159.892 115.769C159.704 115.584 159.449 115.48 159.183 115.48ZM159.183 116.889H155.458C155.344 116.889 155.235 116.844 155.154 116.765C155.074 116.686 155.029 116.578 155.029 116.466C155.029 116.354 155.074 116.247 155.154 116.167C155.235 116.088 155.344 116.044 155.458 116.044H159.183C159.297 116.044 159.406 116.088 159.486 116.167C159.567 116.247 159.612 116.354 159.612 116.466C159.612 116.578 159.567 116.686 159.486 116.765C159.406 116.844 159.297 116.889 159.183 116.889Z" fill="#BFDBFF"/>
<path d="M152.307 112.944H148.583C148.317 112.944 148.062 113.048 147.874 113.233C147.686 113.418 147.58 113.669 147.58 113.93C147.58 114.192 147.686 114.443 147.874 114.628C148.062 114.813 148.317 114.916 148.583 114.916H152.307C152.573 114.916 152.828 114.813 153.016 114.628C153.204 114.443 153.31 114.192 153.31 113.93C153.31 113.669 153.204 113.418 153.016 113.233C152.828 113.048 152.573 112.944 152.307 112.944ZM152.307 114.353H148.583C148.469 114.353 148.359 114.308 148.279 114.229C148.198 114.15 148.153 114.042 148.153 113.93C148.153 113.818 148.198 113.711 148.279 113.631C148.359 113.552 148.469 113.507 148.583 113.507H152.307C152.421 113.507 152.53 113.552 152.611 113.631C152.691 113.711 152.737 113.818 152.737 113.93C152.737 114.042 152.691 114.15 152.611 114.229C152.53 114.308 152.421 114.353 152.307 114.353Z" fill="#BFDBFF"/>
<path d="M159.183 112.944H155.458C155.327 112.944 155.196 112.969 155.074 113.018C154.952 113.068 154.842 113.141 154.748 113.232C154.655 113.324 154.581 113.433 154.531 113.552C154.48 113.672 154.454 113.8 154.454 113.93C154.454 114.06 154.48 114.188 154.531 114.308C154.581 114.428 154.655 114.536 154.748 114.628C154.842 114.72 154.952 114.792 155.074 114.842C155.196 114.891 155.327 114.917 155.458 114.916H159.183C159.448 114.916 159.703 114.812 159.891 114.627C160.078 114.442 160.184 114.191 160.184 113.93C160.184 113.669 160.078 113.418 159.891 113.233C159.703 113.048 159.448 112.944 159.183 112.944ZM159.183 114.353H155.458C155.344 114.353 155.235 114.308 155.154 114.229C155.074 114.15 155.029 114.042 155.029 113.93C155.029 113.818 155.074 113.711 155.154 113.631C155.235 113.552 155.344 113.507 155.458 113.507H159.183C159.297 113.507 159.406 113.552 159.486 113.631C159.567 113.711 159.612 113.818 159.612 113.93C159.612 114.042 159.567 114.15 159.486 114.229C159.406 114.308 159.297 114.353 159.183 114.353Z" fill="#BFDBFF"/>
<path d="M141.112 80.2329L139.451 85.5642C139.451 85.5642 139.027 95.5034 133.466 94.1359C127.905 92.7684 135.088 81.1445 135.088 81.1445L136.71 78.6375L141.112 80.2329Z" fill="#FFB8B8"/>
<path d="M109.6 80.2329L107.939 85.5642C107.939 85.5642 107.515 95.5034 101.954 94.1359C96.3926 92.7684 103.576 81.1445 103.576 81.1445L105.197 78.6375L109.6 80.2329Z" fill="#FFB8B8"/>
<path d="M139.954 34.8772C139.954 34.8772 143.661 33.9655 144.82 40.1193C145.978 46.2731 147.368 63.8228 147.368 63.8228L141.807 82.2842C141.807 82.2842 136.246 79.3212 135.088 79.7771L139.464 63.7497L135.783 47.4127C135.783 47.4127 139.027 34.8772 139.954 34.8772Z" fill="#BFDBFF"/>
<path opacity="0.15" d="M134.563 47.7244L139.429 63.6786L134.563 79.8608L137.344 63.6786L134.563 47.7244Z" fill="black"/>
<path d="M112.381 47.4126L104.039 79.7769C104.039 79.7769 108.439 81.2053 110.061 82.3449L112.381 47.4126Z" fill="#BFDBFF"/>
<path d="M24.8768 128.747C37.6736 128.747 48.0475 118.543 48.0475 105.955C48.0475 93.3678 37.6736 83.1636 24.8768 83.1636C12.08 83.1636 1.70605 93.3678 1.70605 105.955C1.70605 118.543 12.08 128.747 24.8768 128.747Z" fill="#002E6A"/>
<path opacity="0.1" d="M24.8765 125.556C35.8818 125.556 44.8034 116.781 44.8034 105.955C44.8034 95.1301 35.8818 86.3545 24.8765 86.3545C13.8713 86.3545 4.94971 95.1301 4.94971 105.955C4.94971 116.781 13.8713 125.556 24.8765 125.556Z" fill="black"/>
<path d="M23.9217 117.522V114.669C22.4556 114.641 20.9389 114.132 20.0542 113.426L20.6608 111.534C21.7121 112.309 22.9871 112.734 24.3008 112.748C26.0956 112.748 27.3089 111.59 27.3089 109.98C27.3089 108.426 26.323 107.466 24.4525 106.619C21.8741 105.489 20.2817 104.189 20.2817 101.732C20.2817 99.3876 21.7731 97.6081 24.0986 97.1844V94.3315H25.6658V97.0715C26.8344 97.0872 27.9743 97.4301 28.952 98.06L28.3199 99.9243C27.3823 99.293 26.2712 98.9579 25.135 98.9639C23.1887 98.9639 22.4556 100.263 22.4556 101.393C22.4556 102.862 23.3908 103.596 25.59 104.613C28.1936 105.8 29.5081 107.268 29.5081 109.782C29.5081 112.014 28.1178 114.104 25.5141 114.584V117.522H23.9217Z" fill="#00AEEF"/>
<path d="M49.3537 152.316C32.9929 154.716 16.3608 154.716 0 152.316V146.846C16.3781 149.003 32.9756 149.003 49.3537 146.846V152.316Z" fill="#002E6A"/>
<path d="M49.3537 143.883C32.9929 146.283 16.3608 146.283 0 143.883V138.413C16.3781 140.57 32.9756 140.57 49.3537 138.413V143.883Z" fill="#002E6A"/>
<path d="M49.3537 135.45C32.9929 137.85 16.3608 137.85 0 135.45V129.98C16.3781 132.137 32.9756 132.137 49.3537 129.98V135.45Z" fill="#002E6A"/>
<g clip-path="url(#clip1_739_2263)">
<path d="M39.8288 28.1042H39.4947V19.2766C39.4947 18.6057 39.3576 17.9413 39.0913 17.3214C38.825 16.7016 38.4347 16.1383 37.9427 15.6639C37.4507 15.1895 36.8666 14.8131 36.2237 14.5564C35.5809 14.2996 34.8918 14.1675 34.196 14.1675H14.8001C14.1043 14.1675 13.4153 14.2996 12.7724 14.5564C12.1295 14.8131 11.5454 15.1895 11.0534 15.6639C10.5614 16.1383 10.1711 16.7016 9.9048 17.3214C9.63852 17.9413 9.50146 18.6057 9.50146 19.2766V67.7052C9.50146 68.3762 9.63852 69.0406 9.9048 69.6604C10.1711 70.2803 10.5614 70.8435 11.0534 71.318C11.5454 71.7924 12.1295 72.1687 12.7724 72.4255C13.4153 72.6822 14.1043 72.8144 14.8001 72.8144H34.196C34.8918 72.8144 35.5809 72.6822 36.2237 72.4255C36.8666 72.1687 37.4507 71.7924 37.9427 71.318C38.4347 70.8435 38.825 70.2803 39.0913 69.6604C39.3576 69.0406 39.4947 68.3762 39.4947 67.7052V34.3878H39.8288V28.1042Z" fill="#002E6A"/>
<path d="M38.3669 19.3122V67.6692C38.366 68.2348 38.2353 68.7932 37.984 69.3042C37.7328 69.8153 37.3673 70.2664 36.9138 70.6251C36.8135 70.7044 36.709 70.7785 36.6005 70.8471C35.9518 71.264 35.1894 71.486 34.4097 71.4848H14.9205C14.6046 71.4854 14.2897 71.449 13.9829 71.3766C13.1216 71.174 12.3559 70.6985 11.8084 70.0263C11.2608 69.354 10.9633 68.524 10.9634 67.6692V19.3122C10.9635 18.3003 11.3804 17.3298 12.1225 16.6143C12.8646 15.8987 13.871 15.4967 14.9205 15.4966H17.2854C17.1689 15.7718 17.1245 16.0704 17.1559 16.3661C17.1874 16.6618 17.2938 16.9454 17.4657 17.1921C17.6377 17.4388 17.87 17.6409 18.142 17.7807C18.4141 17.9204 18.7176 17.9935 19.0259 17.9934H30.1371C30.4452 17.9931 30.7486 17.9198 31.0205 17.78C31.2924 17.6402 31.5245 17.4381 31.6965 17.1916C31.8685 16.945 31.975 16.6615 32.0068 16.366C32.0386 16.0704 31.9946 15.7719 31.8787 15.4966H34.4097C35.4592 15.4967 36.4657 15.8987 37.2078 16.6143C37.9498 17.3298 38.3668 18.3003 38.3669 19.3122Z" fill="#00AEEF"/>
<path d="M20.5752 51.9372C20.5752 51.9372 22.4883 57.0613 21.0003 59.9308C19.5124 62.8003 23.3386 66.0798 23.3386 66.0798C23.3386 66.0798 33.3292 61.1606 32.0538 58.701C30.7784 56.2415 28.6527 52.962 29.0779 50.9124L20.5752 51.9372Z" fill="#FFB8B8"/>
<path d="M24.2948 53.8844C28.0515 53.8844 31.0969 50.9479 31.0969 47.3255C31.0969 43.7031 28.0515 40.7666 24.2948 40.7666C20.5381 40.7666 17.4927 43.7031 17.4927 47.3255C17.4927 50.9479 20.5381 53.8844 24.2948 53.8844Z" fill="#FFB8B8"/>
<path d="M37.52 70.3408C37.3412 70.5608 37.1378 70.7612 36.9136 70.9384C36.8133 71.0177 36.7087 71.0918 36.6003 71.1604C35.9726 71.5632 35.2203 71.6899 34.4095 71.6899H17.1953L17.4929 63.7229L19.4063 59.6236C19.8359 59.9485 20.2956 60.2345 20.7796 60.4779C20.8942 60.5375 21.0155 60.597 21.1423 60.6555C22.9345 61.4903 25.8642 62.2244 28.704 60.1802C29.5979 59.537 30.4827 58.6177 31.3215 57.3401L36.6239 60.2386L36.9024 63.3786L37.52 70.3408Z" fill="white"/>
<path d="M21.5487 56.5562L21.2826 59.2381L21.1422 60.6555L20.9323 62.7658L20.0351 71.7981H14.9202C14.6043 71.7987 14.2894 71.7623 13.9826 71.6898L11.9658 62.6976L12.0242 62.6607L21.5487 56.5562Z" fill="#002E6A"/>
<path d="M38.3667 58.399V67.9824C38.3658 68.548 38.2351 69.1064 37.9839 69.6175C37.7326 70.1286 37.3671 70.5796 36.9137 70.9384C36.8134 71.0176 36.7088 71.0917 36.6004 71.1603C35.9516 71.5773 35.1892 71.7992 34.4096 71.7981H27.5654C27.7148 68.7696 27.9787 65.8137 28.2875 63.2389C28.42 62.1421 28.5603 61.1145 28.7041 60.1801C29.1667 57.1679 29.663 55.1225 30.019 54.8464L32.3726 56.3439L38.3667 58.399Z" fill="#002E6A"/>
<path d="M16.8553 70.0765L16.6105 71.7981H14.9205C14.6046 71.7987 14.2897 71.7623 13.9829 71.6899C13.1216 71.4873 12.3559 71.0118 11.8084 70.3396C11.2608 69.6673 10.9633 68.8373 10.9634 67.9825V67.636L11.7539 62.6976L12.0245 62.6608L13.2418 62.4929L16.8553 70.0765Z" fill="#002E6A"/>
<path d="M38.3667 59.6484V67.9824C38.3658 68.548 38.2351 69.1064 37.9839 69.6174C37.7326 70.1285 37.3671 70.5796 36.9137 70.9383C36.8134 71.0176 36.7088 71.0917 36.6004 71.1603L35.5605 66.7968L36.9024 63.3785L38.3667 59.6484Z" fill="#002E6A"/>
<path d="M30.7815 41.3934C29.7529 39.7828 28.1428 38.5959 26.2612 38.0613L24.8791 39.1274L25.4164 37.8839C24.9646 37.8174 24.5073 37.7919 24.0505 37.8078L22.807 39.3494L23.3217 37.8606C21.173 38.1247 19.1304 39.2532 17.8922 40.9747C16.3095 43.1751 16.0425 46.2352 17.5991 48.4528C18.0264 47.1866 18.545 45.9985 18.9723 44.7323C19.0709 44.773 19.4446 44.7704 19.9848 44.7371L20.5046 43.5674L20.6499 44.6876C22.2612 44.5522 24.6512 44.2551 26.1788 43.9828L26.0303 43.1234L26.919 43.8375C27.387 43.7336 27.6649 43.6394 27.642 43.5674C28.7781 45.3335 29.9038 46.4615 31.0399 48.2276C31.4712 45.7365 32.2325 43.6658 30.7815 41.3934Z" fill="#002E6A"/>
<path d="M30.4048 48.0075C30.6591 48.0075 30.8653 47.6099 30.8653 47.1195C30.8653 46.629 30.6591 46.2314 30.4048 46.2314C30.1505 46.2314 29.9443 46.629 29.9443 47.1195C29.9443 47.6099 30.1505 48.0075 30.4048 48.0075Z" fill="#FFB8B8"/>
<path opacity="0.2" d="M14.8957 29.1535C14.4515 29.1535 14.0173 29.0265 13.648 28.7886C13.2787 28.5506 12.9908 28.2124 12.8209 27.8167C12.6509 27.421 12.6064 26.9856 12.6931 26.5656C12.7797 26.1455 12.9936 25.7596 13.3077 25.4568C13.6218 25.1539 14.0219 24.9477 14.4576 24.8641C14.8932 24.7806 15.3448 24.8234 15.7552 24.9874C16.1655 25.1513 16.5163 25.4288 16.7631 25.7849C17.0098 26.141 17.1415 26.5597 17.1415 26.988C17.1409 27.5622 16.904 28.1126 16.483 28.5185C16.062 28.9245 15.4911 29.1529 14.8957 29.1535ZM14.8957 25.0391C14.496 25.0391 14.1052 25.1534 13.7728 25.3675C13.4404 25.5817 13.1813 25.8861 13.0283 26.2422C12.8754 26.5983 12.8353 26.9902 12.9133 27.3682C12.9913 27.7463 13.1838 28.0936 13.4665 28.3661C13.7492 28.6387 14.1093 28.8243 14.5014 28.8995C14.8935 28.9747 15.2999 28.9361 15.6692 28.7886C16.0386 28.6411 16.3542 28.3913 16.5763 28.0708C16.7984 27.7503 16.917 27.3735 16.917 26.988C16.9164 26.4713 16.7032 25.9759 16.3243 25.6105C15.9454 25.2452 15.4316 25.0396 14.8957 25.0391Z" fill="#002E6A"/>
<path opacity="0.2" d="M13.9975 26.7715C14.1836 26.7715 14.3344 26.626 14.3344 26.4467C14.3344 26.2673 14.1836 26.1218 13.9975 26.1218C13.8115 26.1218 13.6606 26.2673 13.6606 26.4467C13.6606 26.626 13.8115 26.7715 13.9975 26.7715Z" fill="#002E6A"/>
<path opacity="0.2" d="M15.6816 26.7715C15.8677 26.7715 16.0185 26.626 16.0185 26.4467C16.0185 26.2673 15.8677 26.1218 15.6816 26.1218C15.4956 26.1218 15.3447 26.2673 15.3447 26.4467C15.3447 26.626 15.4956 26.7715 15.6816 26.7715Z" fill="#002E6A"/>
<path opacity="0.2" d="M15.6819 27.7458H13.9975C13.9678 27.7458 13.9392 27.7344 13.9181 27.7141C13.8971 27.6938 13.8853 27.6663 13.8853 27.6376C13.8853 27.6089 13.8971 27.5813 13.9181 27.561C13.9392 27.5407 13.9678 27.5293 13.9975 27.5293H15.6819C15.7117 27.5293 15.7403 27.5407 15.7613 27.561C15.7824 27.5813 15.7942 27.6089 15.7942 27.6376C15.7942 27.6663 15.7824 27.6938 15.7613 27.7141C15.7403 27.7344 15.7117 27.7458 15.6819 27.7458Z" fill="#002E6A"/>
<path opacity="0.2" d="M34.4343 29.1535C33.9901 29.1535 33.5559 29.0265 33.1866 28.7886C32.8173 28.5506 32.5294 28.2124 32.3594 27.8167C32.1895 27.421 32.145 26.9856 32.2316 26.5656C32.3183 26.1455 32.5322 25.7596 32.8463 25.4568C33.1603 25.1539 33.5605 24.9477 33.9962 24.8641C34.4318 24.7806 34.8834 24.8234 35.2937 24.9874C35.7041 25.1513 36.0549 25.4288 36.3016 25.7849C36.5484 26.141 36.6801 26.5597 36.6801 26.988C36.6794 27.5622 36.4426 28.1126 36.0216 28.5186C35.6006 28.9245 35.0297 29.1529 34.4343 29.1535ZM34.4343 25.0391C34.0345 25.0391 33.6437 25.1534 33.3114 25.3675C32.979 25.5817 32.7199 25.8861 32.5669 26.2422C32.4139 26.5983 32.3739 26.9902 32.4519 27.3682C32.5299 27.7463 32.7224 28.0936 33.0051 28.3661C33.2877 28.6387 33.6479 28.8243 34.04 28.8995C34.4321 28.9747 34.8385 28.9361 35.2078 28.7886C35.5771 28.6411 35.8928 28.3913 36.1149 28.0708C36.337 27.7503 36.4555 27.3735 36.4555 26.988C36.4549 26.4713 36.2418 25.9759 35.8629 25.6106C35.4839 25.2452 34.9702 25.0397 34.4343 25.0391Z" fill="#002E6A"/>
<path opacity="0.2" d="M33.5361 26.7715C33.7221 26.7715 33.873 26.626 33.873 26.4467C33.873 26.2673 33.7221 26.1218 33.5361 26.1218C33.35 26.1218 33.1992 26.2673 33.1992 26.4467C33.1992 26.626 33.35 26.7715 33.5361 26.7715Z" fill="#002E6A"/>
<path opacity="0.2" d="M35.2202 26.7715C35.4062 26.7715 35.557 26.626 35.557 26.4467C35.557 26.2673 35.4062 26.1218 35.2202 26.1218C35.0341 26.1218 34.8833 26.2673 34.8833 26.4467C34.8833 26.626 35.0341 26.7715 35.2202 26.7715Z" fill="#002E6A"/>
<path opacity="0.2" d="M35.2201 27.9626C35.2005 27.9625 35.1812 27.9576 35.1642 27.9481C34.9291 27.8044 34.6564 27.728 34.378 27.728C34.0997 27.728 33.827 27.8044 33.5919 27.9481C33.5791 27.9552 33.565 27.9599 33.5504 27.9617C33.5357 27.9636 33.5208 27.9627 33.5066 27.959C33.4923 27.9553 33.4789 27.9489 33.4672 27.9403C33.4555 27.9316 33.4457 27.9208 33.4383 27.9084C33.431 27.8961 33.4262 27.8825 33.4243 27.8683C33.4224 27.8542 33.4234 27.8399 33.4272 27.8261C33.4311 27.8124 33.4377 27.7995 33.4467 27.7882C33.4558 27.777 33.467 27.7675 33.4798 27.7604C33.7493 27.5984 34.0605 27.5125 34.378 27.5125C34.6956 27.5125 35.0068 27.5984 35.2763 27.7604C35.2977 27.7723 35.3145 27.7907 35.324 27.8128C35.3334 27.8348 35.3351 27.8592 35.3287 27.8823C35.3223 27.9053 35.3082 27.9257 35.2886 27.9402C35.2689 27.9547 35.2449 27.9626 35.2201 27.9626Z" fill="#002E6A"/>
<path d="M24.7775 31.3846C23.8756 31.3846 22.9941 31.1267 22.2442 30.6436C21.4944 30.1605 20.91 29.4739 20.5649 28.6705C20.2197 27.8671 20.1295 26.9831 20.3054 26.1302C20.4813 25.2773 20.9156 24.4939 21.5533 23.8791C22.191 23.2642 23.0034 22.8454 23.8879 22.6758C24.7724 22.5061 25.6892 22.5932 26.5224 22.926C27.3556 23.2588 28.0677 23.8223 28.5687 24.5453C29.0697 25.2683 29.3372 26.1184 29.3372 26.988C29.3358 28.1536 28.8549 29.2711 28.0001 30.0954C27.1453 30.9196 25.9864 31.3833 24.7775 31.3846ZM24.7775 23.031C23.9658 23.031 23.1724 23.263 22.4976 23.6978C21.8227 24.1326 21.2967 24.7506 20.9861 25.4737C20.6755 26.1967 20.5943 26.9923 20.7526 27.7599C20.9109 28.5275 21.3018 29.2326 21.8757 29.786C22.4496 30.3394 23.1808 30.7162 23.9769 30.8689C24.7729 31.0216 25.598 30.9432 26.3479 30.6437C27.0978 30.3442 27.7387 29.8371 28.1896 29.1863C28.6405 28.5356 28.8812 27.7706 28.8812 26.988C28.88 25.9389 28.4472 24.9331 27.6779 24.1913C26.9086 23.4494 25.8655 23.0322 24.7775 23.031V23.031Z" fill="white"/>
<path d="M22.9535 26.5482C23.3312 26.5482 23.6374 26.253 23.6374 25.8887C23.6374 25.5245 23.3312 25.2292 22.9535 25.2292C22.5757 25.2292 22.2695 25.5245 22.2695 25.8887C22.2695 26.253 22.5757 26.5482 22.9535 26.5482Z" fill="white"/>
<path d="M26.3734 26.5482C26.7511 26.5482 27.0574 26.253 27.0574 25.8887C27.0574 25.5245 26.7511 25.2292 26.3734 25.2292C25.9957 25.2292 25.6895 25.5245 25.6895 25.8887C25.6895 26.253 25.9957 26.5482 26.3734 26.5482Z" fill="white"/>
<path d="M24.7796 29.1345C24.1664 29.1345 23.5162 28.9202 22.8293 28.4915C22.7786 28.4597 22.7431 28.4099 22.7306 28.3529C22.718 28.2959 22.7294 28.2365 22.7623 28.1876C22.7951 28.1387 22.8468 28.1044 22.9058 28.0923C22.9649 28.0801 23.0266 28.091 23.0773 28.1226C24.2857 28.878 25.3153 28.8835 26.2257 28.1394C26.2718 28.1018 26.3315 28.0834 26.3917 28.0882C26.4519 28.093 26.5077 28.1207 26.5467 28.1651C26.5858 28.2095 26.605 28.2671 26.6 28.3251C26.5951 28.3832 26.5665 28.437 26.5205 28.4747C25.9826 28.9146 25.4007 29.1345 24.7796 29.1345Z" fill="white"/>
<path d="M32.3007 34.2425H29.3369V33.8029H31.8447V31.3848H32.3007V34.2425Z" fill="white"/>
<path d="M17.7099 22.5912H17.2539V19.7334H20.2177V20.1731H17.7099V22.5912Z" fill="white"/>
</g>
</g>
<defs>
<clipPath id="clip0_739_2263">
<rect width="209" height="160" fill="white"/>
</clipPath>
<clipPath id="clip1_739_2263">
<rect width="30.963" height="59.4286" fill="white" transform="translate(9.28906 13.7144)"/>
</clipPath>
</defs>
</svg>
