<svg width="261" height="190" viewBox="0 0 261 190" fill="none" xmlns="http://www.w3.org/2000/svg">
<g clip-path="url(#clip0_739_2508)">
<path d="M111.928 177.69C160.664 177.69 200.172 137.913 200.172 88.8451C200.172 39.7773 160.664 0 111.928 0C63.1927 0 23.6846 39.7773 23.6846 88.8451C23.6846 137.913 63.1927 177.69 111.928 177.69Z" fill="#EAF2FC"/>
<path d="M35.5136 190C54.8512 190 70.5273 187.475 70.5273 184.36C70.5273 181.245 54.8512 178.719 35.5136 178.719C16.1761 178.719 0.5 181.245 0.5 184.36C0.5 187.475 16.1761 190 35.5136 190Z" fill="#F2F2F2"/>
<path d="M201.223 134.542C201.223 134.542 192.268 92.2868 136.218 61.6343" stroke="#3F3D56" stroke-width="2" stroke-miterlimit="10"/>
<path d="M138.527 60.7126L138.639 61.1759L136.372 61.7295L137.086 63.9659L136.636 64.1114L135.766 61.3874L138.527 60.7126Z" fill="#3F3D56"/>
<path d="M16.6991 177.717C16.6991 183.068 13.5393 184.937 9.64107 184.937C9.55076 184.937 9.4606 184.936 9.37058 184.934C9.18997 184.93 9.01107 184.922 8.83433 184.909C5.31627 184.659 2.58301 182.694 2.58301 177.717C2.58301 172.566 9.12073 166.066 9.61182 165.585L9.61269 165.584C9.63161 165.566 9.64108 165.557 9.64108 165.557C9.64108 165.557 16.6991 172.365 16.6991 177.717Z" fill="#00AEEF"/>
<path d="M9.38427 184.118L11.9657 180.487L9.37782 184.517L9.37094 184.934C9.19032 184.93 9.01143 184.922 8.83469 184.91L9.11292 179.555L9.11077 179.514L9.1155 179.506L9.14173 179L6.54736 174.96L9.1499 178.621L9.15593 178.728L9.3662 174.683L7.14511 170.508L9.3933 173.973L9.61218 165.585L9.61304 165.557V165.584L9.5765 172.198L11.7877 169.576L9.56746 172.768L9.50898 176.39L11.5735 172.914L9.50038 176.923L9.4677 178.937L12.465 174.099L9.45651 179.64L9.38427 184.118Z" fill="#3F3D56"/>
<path d="M50.3646 176.33L51.8744 175.201C51.8744 175.201 52.8738 180.821 51.7586 181.664C50.6434 182.506 46.4614 183.909 46.4614 185.593C46.4614 187.277 36.9822 189.523 36.7034 186.997C36.4246 184.471 37.5398 183.067 37.5398 183.067C37.5398 183.067 42.0006 178.576 42.5582 177.734C43.1158 176.892 44.5098 175.207 44.5098 175.207L50.3646 176.33Z" fill="#2F2E41"/>
<path d="M28.0605 106.436C28.0605 106.436 28.1024 106.683 28.1748 107.135C28.2418 107.537 28.3338 108.104 28.4453 108.803C29.6163 115.997 33.0316 137.176 32.8001 137.875C32.5213 138.717 30.5697 141.804 32.8001 142.646C33.0148 142.728 33.2462 142.992 33.4943 143.407C33.9733 144.302 34.3681 145.24 34.6736 146.208C36.0035 150.093 37.4254 156.311 38.2479 160.617C38.6075 162.509 38.8528 164.03 38.9253 164.827C38.9505 165.011 38.9533 165.198 38.9337 165.383C38.6549 166.506 40.6065 170.436 41.4429 171.558C42.2793 172.681 43.6733 173.804 43.3945 174.927C43.1157 176.05 50.3644 179.137 51.2008 177.172C52.0372 175.207 52.0372 174.085 52.316 173.523C52.5948 172.962 52.8736 169.032 51.4796 168.471C50.0856 167.909 50.922 158.085 49.528 156.12C49.0625 155.466 48.3515 153.251 47.6071 150.587C47.3144 149.543 47.0189 148.432 46.7289 147.317C45.5524 142.75 44.5097 138.155 44.5097 138.155L44.7885 105.314L29.4545 103.349L29.0615 104.222L28.278 105.954L28.0605 106.436Z" fill="#2F2E41"/>
<path d="M27.2241 160.331C27.2241 160.331 24.9937 158.085 23.8785 160.331C22.7633 162.576 21.6481 171.278 19.6965 173.243C17.7449 175.208 15.2358 185.032 18.0237 185.593C20.8117 186.155 23.8785 184.751 24.1573 183.067C24.4361 181.383 30.2909 172.681 30.2909 171.839C30.2909 170.997 26.3877 167.909 26.3877 167.909L27.2241 160.331Z" fill="#2F2E41"/>
<path d="M61.5166 90.998C61.5166 90.998 57.8922 123.84 57.0558 126.927C56.2194 130.015 51.7586 141.804 50.3647 143.769C48.9707 145.734 40.0491 161.734 38.9339 162.576C37.8187 163.418 35.5883 165.664 35.5883 165.664C35.5883 165.664 31.4063 169.874 30.8487 170.716C30.2911 171.558 25.5516 169.032 25.2728 167.348C24.994 165.664 25.5516 162.857 25.8304 161.734C26.1092 160.611 25.2728 158.927 26.1092 158.085C26.9456 157.243 31.1275 153.032 31.1275 151.067C31.1275 149.103 38.3763 137.594 41.1643 135.068C43.9523 132.541 43.3947 128.331 43.3947 128.331V111.208L28.0607 106.436C28.0607 106.436 28.8971 92.9629 30.8487 92.9629C32.8003 92.9629 58.4498 88.4717 61.5166 90.998Z" fill="#2F2E41"/>
<path d="M38.9338 44.1213C44.015 44.1213 48.1341 39.9741 48.1341 34.8583C48.1341 29.7424 44.015 25.5952 38.9338 25.5952C33.8525 25.5952 29.7334 29.7424 29.7334 34.8583C29.7334 39.9741 33.8525 44.1213 38.9338 44.1213Z" fill="#FFB8B8"/>
<path d="M42.0005 42.1564C42.0005 42.1564 43.1157 46.3668 44.5097 47.4896C45.9037 48.6124 40.8854 53.3843 40.8854 53.3843L31.4062 53.9457L29.7334 48.6124C29.7334 48.6124 32.8002 42.4371 31.9638 38.5073C31.1274 34.5775 42.0005 42.1564 42.0005 42.1564Z" fill="#FFB8B8"/>
<path d="M45.9037 46.9282C45.9037 46.9282 43.3945 47.2089 42.8369 48.051C42.2793 48.8931 38.3761 51.4194 35.3093 50.858C32.2425 50.2966 30.2909 49.4545 29.7333 49.7352C29.1757 50.0159 28.0605 55.9106 28.0605 55.9106L31.1273 64.8929L30.5697 89.5944L29.7333 96.3312C29.7333 96.3312 28.0605 94.0856 34.7517 95.4891C41.4429 96.8926 50.0857 94.3663 52.8736 94.0856C55.6616 93.8049 60.4012 92.9628 60.68 91.2786C60.9588 89.5944 59.8436 83.419 59.8436 83.419L55.3828 64.6122L52.5948 54.5071L45.9037 46.9282Z" fill="#00AEEF"/>
<path d="M43.2666 45.6613C43.2666 45.6613 45.6249 44.402 46.4613 45.5248C47.2977 46.6475 57.8921 48.3317 57.8921 49.1738C57.8921 50.0159 60.1225 72.7525 59.5649 74.7174C59.0073 76.6823 60.6801 78.9279 60.6801 78.9279L62.6317 87.3488C62.6317 87.3488 67.9288 103.349 65.6984 103.91C63.4681 104.471 61.5165 103.91 60.6801 103.91C59.8437 103.91 60.1225 93.2435 57.8921 90.4365C55.6617 87.6295 52.5949 80.6121 52.0373 79.2086C51.4797 77.8051 44.5097 58.4369 44.7885 56.1913C45.0673 53.9457 43.2666 45.6613 43.2666 45.6613Z" fill="#BFDBFF"/>
<path d="M31.6851 46.9282C31.6851 46.9282 29.4547 46.9282 29.1759 47.4896C28.8971 48.051 26.1092 51.7001 24.994 52.5422C23.8788 53.3843 19.9756 57.0334 19.9756 57.8755C19.9756 58.7176 28.0608 64.8929 28.0608 64.8929C28.0608 64.8929 31.4063 81.4541 29.7335 87.0681C28.0607 92.6821 25.5516 106.156 26.6668 106.998C27.782 107.84 30.2911 108.12 30.2911 106.998C30.2911 105.875 31.9639 93.8049 33.3579 91.2786C34.7519 88.7523 38.9339 72.7525 37.2611 68.2613C35.5883 63.7701 31.6851 46.9282 31.6851 46.9282Z" fill="#BFDBFF"/>
<path d="M68.4866 74.7175C68.4866 74.7175 68.7654 83.4192 65.6986 87.9104C62.6318 92.4015 60.6802 97.4541 60.6802 97.4541C60.6802 97.4541 55.6619 96.0506 54.8255 94.3664C53.9891 92.6822 48.6919 94.0857 48.6919 93.5243C48.6919 92.9629 55.1043 90.1559 55.6619 89.5945C56.2195 89.0331 58.1711 89.0331 59.2863 87.9104C60.4014 86.7876 60.6802 84.2613 60.6802 84.2613L61.7954 76.9631L68.4866 74.7175Z" fill="#FFB8B8"/>
<path d="M45.2707 29.1468C45.9785 29.082 46.7084 29.0108 47.334 28.6712C48.7356 27.9101 49.1073 25.7429 48.0403 24.5527C47.7461 24.2499 47.4171 23.9835 47.0601 23.7592L44.9409 22.3069C44.0036 21.6646 43.0442 21.0117 41.951 20.7089C40.9622 20.4351 39.9179 20.4632 38.8944 20.5273C36.9074 20.6516 34.9082 20.9084 33.0394 21.5991C31.1705 22.2898 29.4272 23.4453 28.2954 25.0942C26.501 27.7081 26.4764 31.2335 27.4646 34.2512C28.4529 37.2688 30.3302 39.8966 32.1799 42.4711L33.1397 37.7562C33.2252 37.3362 33.3357 36.876 33.6826 36.6274C34.5449 36.0097 35.5996 37.278 36.6578 37.2698C37.3377 37.2645 37.9086 36.7015 38.1663 36.0679C38.4239 35.4344 38.4409 34.7328 38.5005 34.0508C38.6268 32.6064 39.1283 30.5966 40.4869 29.8C41.7529 29.0576 43.8476 29.2769 45.2707 29.1468Z" fill="#2F2E41"/>
<path opacity="0.1" d="M44.7544 106.663C44.7544 106.663 43.8127 134.085 43.2551 134.927C42.6975 135.769 43.2551 106.577 43.2551 106.577L44.7544 106.663Z" fill="black"/>
<path d="M55.6616 49.1738H57.892C57.892 49.1738 67.3712 62.086 66.256 62.9281C65.1408 63.7701 66.256 66.0157 66.256 66.0157L68.4864 70.2262C68.4864 70.2262 71.2744 72.7525 70.438 73.3139C69.6016 73.8753 68.4864 76.1209 68.4864 76.1209C68.4864 76.1209 62.9104 75.2788 61.2376 78.6472L57.6216 74.0511L55.6616 49.1738Z" fill="#BFDBFF"/>
<path d="M56.4498 53.3271L48.7964 56.509L54.6859 70.8686L62.3393 67.6866L56.4498 53.3271Z" fill="#2F2E41"/>
<path d="M55.5528 61.749C56.3982 61.3976 56.8235 60.4788 56.5029 59.6969C56.1822 58.915 55.2369 58.5661 54.3915 58.9176C53.5461 59.269 53.1208 60.1878 53.4415 60.9697C53.7622 61.7516 54.7075 62.1005 55.5528 61.749Z" fill="#00AEEF"/>
<path d="M50.0856 71.6297C50.0856 71.6297 30.012 88.4716 26.6664 83.1384C23.3209 77.8051 30.2908 73.3139 30.2908 73.3139C30.2908 73.3139 36.4244 73.5946 43.3944 69.1035L50.3644 66.0158C50.3644 66.0158 56.7274 56.8695 58.8957 60.3523C61.064 63.8351 55.1944 69.8967 50.0856 71.6297Z" fill="#FFB8B8"/>
<path d="M23.0423 56.7527L19.9755 57.8755V66.2964L18.8604 67.9806C18.8604 67.9806 19.1392 71.349 19.9755 72.1911C20.8119 73.0332 22.4847 72.7525 21.9271 74.7174C21.592 75.9984 21.4975 77.3312 21.6483 78.6472C21.6483 78.6472 26.6667 85.1032 26.9455 84.2611C27.2243 83.419 31.1275 73.0332 31.6851 73.0332C32.2427 73.0332 26.1091 56.7527 26.1091 56.7527H23.0423Z" fill="#BFDBFF"/>
<path d="M59.704 99.2786C59.704 99.2786 62.5867 96.4716 61.1453 96.3312C59.704 96.1909 54.6856 93.3839 53.8492 94.7874C53.0128 96.1909 59.704 99.2786 59.704 99.2786Z" fill="#2F2E41"/>
<path d="M114.531 45.7327C116.752 45.7327 118.553 44.773 118.553 43.589C118.553 42.4051 116.752 41.4453 114.531 41.4453C112.31 41.4453 110.509 42.4051 110.509 43.589C110.509 44.773 112.31 45.7327 114.531 45.7327Z" fill="#57B894"/>
<path d="M129.909 50.7347C120.84 47.2862 111.771 47.2862 102.702 50.7347V39.5397C111.573 36.8445 121.037 36.8445 129.909 39.5397V50.7347Z" stroke="#3F3D56" stroke-miterlimit="10"/>
<path d="M126.123 48.4194C119.578 45.9305 113.033 45.9305 106.487 48.4194V40.3395C112.89 38.3943 119.721 38.3943 126.123 40.3395V48.4194Z" stroke="#3F3D56" stroke-miterlimit="10"/>
<path d="M115.951 44.7799C118.172 44.7799 119.972 43.8201 119.972 42.6361C119.972 41.4522 118.172 40.4924 115.951 40.4924C113.729 40.4924 111.929 41.4522 111.929 42.6361C111.929 43.8201 113.729 44.7799 115.951 44.7799Z" stroke="#3F3D56" stroke-miterlimit="10"/>
<path d="M117.488 59.1579C119.664 58.7107 121.238 57.4078 121.003 56.2478C120.768 55.0877 118.813 54.5099 116.636 54.9571C114.46 55.4043 112.886 56.7072 113.122 57.8673C113.357 59.0273 115.312 59.6051 117.488 59.1579Z" fill="#57B894"/>
<path d="M133.549 60.9629C123.978 59.41 115.092 61.2359 106.892 66.4406L104.668 55.4717C112.825 51.0448 122.098 49.1394 131.325 49.9941L133.549 60.9629Z" stroke="#3F3D56" stroke-miterlimit="10"/>
<path d="M129.38 59.4565C122.472 58.3357 116.059 59.6536 110.14 63.41L108.536 55.4934C114.423 52.2983 121.115 50.9231 127.775 51.5399L129.38 59.4565Z" stroke="#3F3D56" stroke-miterlimit="10"/>
<path d="M118.69 57.9387C120.866 57.4915 122.44 56.1886 122.204 55.0285C121.969 53.8685 120.014 53.2907 117.838 53.7379C115.662 54.1851 114.088 55.488 114.323 56.648C114.558 57.808 116.513 58.3859 118.69 57.9387Z" stroke="#3F3D56" stroke-miterlimit="10"/>
<path d="M120.24 70.6629C120.322 69.4818 118.592 68.3985 116.376 68.2433C114.16 68.088 112.298 68.9196 112.216 70.1007C112.135 71.2818 113.865 72.3651 116.08 72.5204C118.296 72.6756 120.159 71.844 120.24 70.6629Z" fill="#57B894"/>
<path d="M131.076 78.5851C122.267 74.5111 113.22 73.8773 103.935 76.6836L104.707 65.5156C113.743 63.4469 123.184 64.1084 131.848 67.4171L131.076 78.5851Z" stroke="#3F3D56" stroke-miterlimit="10"/>
<path d="M127.46 76.0108C121.102 73.0705 114.572 72.613 107.871 74.6384L108.428 66.5781C114.95 65.085 121.764 65.5624 128.017 67.9505L127.46 76.0108Z" stroke="#3F3D56" stroke-miterlimit="10"/>
<path d="M121.722 69.8116C121.804 68.6305 120.074 67.5472 117.858 67.3919C115.642 67.2367 113.78 68.0683 113.698 69.2494C113.616 70.4305 115.347 71.5138 117.562 71.669C119.778 71.8243 121.641 70.9927 121.722 69.8116Z" stroke="#3F3D56" stroke-miterlimit="10"/>
<path d="M98.6616 50.9946C98.6616 50.9946 81.2739 48.5997 68.8569 55.9261" stroke="#3F3D56" stroke-width="2" stroke-miterlimit="10"/>
<path d="M69.2755 53.4641L69.7272 53.608L69.0212 55.8467L71.2909 56.3919L71.1805 56.8557L68.4165 56.1909L69.2755 53.4641Z" fill="#3F3D56"/>
<path d="M243.723 69.7349H200.287C198.191 69.7348 196.157 70.4501 194.52 71.7632C192.883 73.0763 191.74 74.9091 191.279 76.9603L169.331 174.615C169.092 175.68 169.088 176.785 169.319 177.852C169.55 178.919 170.011 179.922 170.67 180.792C171.329 181.661 172.169 182.375 173.132 182.884C174.095 183.393 175.157 183.685 176.244 183.739L220.898 185.946C223.289 186.064 225.641 185.305 227.515 183.811C229.39 182.318 230.659 180.191 231.085 177.828L243.535 108.785L244.462 109.05L246.845 95.9642L245.891 95.7251L249.366 76.4527C249.515 75.6272 249.481 74.7789 249.266 73.9683C249.05 73.1577 248.659 72.4047 248.12 71.7631C247.582 71.1215 246.908 70.607 246.149 70.2563C245.389 69.9056 244.561 69.7274 243.725 69.7343L243.723 69.7349Z" fill="#3F3D56"/>
<path d="M205.922 71.7554H200.806C199.337 71.7554 197.911 72.2573 196.767 73.1779C195.623 74.0984 194.828 75.3822 194.515 76.8161L173.256 174.137C173.133 174.698 173.133 175.278 173.256 175.838C173.379 176.398 173.621 176.926 173.966 177.384C174.312 177.842 174.752 178.22 175.257 178.493C175.762 178.766 176.321 178.926 176.894 178.964L221.807 181.904C223.074 181.987 224.327 181.601 225.327 180.82C226.328 180.039 227.005 178.917 227.23 177.669L245.37 77.0775C245.488 76.4265 245.461 75.7576 245.291 75.1181C245.121 74.4787 244.813 73.8842 244.389 73.3767C243.964 72.8691 243.433 72.4609 242.833 72.1807C242.233 71.9006 241.578 71.7554 240.916 71.7554H236.063C235.593 71.7554 235.136 71.91 234.763 72.1954C234.39 72.4809 234.122 72.8811 234 73.3342C233.892 73.7343 233.655 74.0878 233.326 74.3398C232.997 74.5918 232.593 74.7283 232.178 74.7281H209.137C208.324 74.7281 207.542 74.4219 206.946 73.8708C206.35 73.3197 205.984 72.5642 205.922 71.7554Z" fill="white"/>
<path d="M230.184 139.468C230.271 139.471 230.356 139.443 230.424 139.388C230.491 139.334 230.537 139.257 230.553 139.172L240.417 84.8384C240.426 84.7868 240.424 84.7337 240.411 84.6828C240.398 84.632 240.374 84.5845 240.341 84.5437C240.309 84.5032 240.267 84.4705 240.22 84.4477C240.174 84.425 240.122 84.4128 240.07 84.4121L195.192 83.8831H195.188C195.107 83.8837 195.028 83.912 194.964 83.9633C194.901 84.0145 194.857 84.0857 194.84 84.1651L183.211 136.735C183.2 136.787 183.2 136.84 183.211 136.891C183.222 136.942 183.244 136.991 183.276 137.033C183.307 137.075 183.347 137.109 183.393 137.133C183.439 137.158 183.49 137.172 183.542 137.175L230.184 139.468Z" fill="#BFDBFF"/>
<path d="M191.824 142.5C191.784 142.5 191.745 142.515 191.714 142.541C191.682 142.568 191.66 142.605 191.651 142.647L191.238 144.538C191.232 144.565 191.232 144.592 191.237 144.619C191.242 144.646 191.253 144.672 191.268 144.694C191.283 144.716 191.303 144.734 191.325 144.747C191.348 144.761 191.373 144.769 191.398 144.771L214.738 146.542C214.782 146.545 214.824 146.531 214.859 146.503C214.893 146.475 214.917 146.434 214.926 146.389L215.323 144.201C215.328 144.174 215.327 144.147 215.321 144.121C215.315 144.094 215.304 144.07 215.289 144.048C215.273 144.027 215.254 144.01 215.231 143.997C215.209 143.984 215.184 143.977 215.159 143.975L191.835 142.5L191.824 142.5Z" fill="#EAF2FC"/>
<path d="M220.641 153.616C220.684 153.62 220.727 153.607 220.761 153.579C220.796 153.551 220.821 153.511 220.831 153.465L221.344 151.156C221.35 151.128 221.351 151.098 221.346 151.07C221.341 151.041 221.33 151.014 221.315 150.99C221.299 150.967 221.279 150.947 221.256 150.933C221.233 150.919 221.208 150.911 221.182 150.909L190.955 148.564C190.914 148.561 190.874 148.573 190.84 148.599C190.806 148.625 190.781 148.663 190.77 148.707L190.237 150.702C190.229 150.731 190.228 150.761 190.232 150.79C190.236 150.819 190.246 150.847 190.261 150.872C190.276 150.896 190.296 150.917 190.319 150.932C190.343 150.947 190.369 150.956 190.395 150.958L220.641 153.616Z" fill="#EAF2FC"/>
<path d="M218.634 160.691C218.677 160.695 218.719 160.681 218.754 160.654C218.789 160.626 218.813 160.585 218.824 160.539L219.337 158.23C219.343 158.202 219.344 158.173 219.338 158.144C219.333 158.115 219.323 158.088 219.307 158.065C219.292 158.041 219.272 158.022 219.249 158.008C219.226 157.994 219.2 157.985 219.174 157.983L188.948 155.639C188.907 155.635 188.866 155.647 188.832 155.673C188.799 155.699 188.774 155.738 188.763 155.781L188.23 157.776C188.222 157.805 188.22 157.835 188.224 157.864C188.229 157.894 188.239 157.922 188.254 157.946C188.269 157.971 188.289 157.991 188.312 158.006C188.335 158.021 188.361 158.03 188.388 158.032L218.634 160.691Z" fill="#EAF2FC"/>
<path d="M204.995 171.808C205.038 171.812 205.082 171.801 205.118 171.777C205.154 171.752 205.179 171.717 205.189 171.676L206.286 167.474C206.293 167.449 206.293 167.424 206.288 167.399C206.283 167.374 206.273 167.35 206.258 167.33C206.242 167.309 206.222 167.292 206.199 167.28C206.176 167.267 206.151 167.259 206.124 167.257L187.348 165.745C187.304 165.742 187.261 165.754 187.225 165.779C187.19 165.804 187.165 165.84 187.154 165.881L186.219 169.914C186.213 169.938 186.213 169.963 186.218 169.987C186.223 170.012 186.234 170.035 186.249 170.055C186.265 170.075 186.284 170.091 186.307 170.104C186.329 170.116 186.354 170.123 186.38 170.126L204.995 171.808Z" fill="#00AEEF"/>
</g>
<defs>
<clipPath id="clip0_739_2508">
<rect width="260" height="190" fill="white" transform="translate(0.5)"/>
</clipPath>
</defs>
</svg>
