<svg width="56" height="57" viewBox="0 0 56 57" fill="none" xmlns="http://www.w3.org/2000/svg">
<circle opacity="0.88" cx="28" cy="28.3848" r="27.5" fill="url(#paint0_radial_602_2561)" fill-opacity="0.7" stroke="#002E6A"/>
<path d="M26.9482 27.5273C27.8213 27.5273 28.5801 27.6768 29.2246 27.9756C29.8691 28.2686 30.3672 28.6963 30.7188 29.2588C31.0762 29.8213 31.2549 30.5039 31.2549 31.3066C31.2549 32.1855 31.0645 32.9443 30.6836 33.583C30.3027 34.2158 29.7549 34.7051 29.04 35.0508C28.3252 35.3906 27.4697 35.5605 26.4736 35.5605C25.8057 35.5605 25.1846 35.502 24.6104 35.3848C24.0361 35.2676 23.5527 35.0918 23.1602 34.8574V33.4688C23.5879 33.7266 24.1064 33.9316 24.7158 34.084C25.3252 34.2363 25.917 34.3125 26.4912 34.3125C27.1416 34.3125 27.71 34.21 28.1963 34.0049C28.6885 33.7939 29.0693 33.4775 29.3389 33.0557C29.6143 32.6279 29.752 32.0918 29.752 31.4473C29.752 30.5918 29.4883 29.9326 28.9609 29.4697C28.4395 29.001 27.6133 28.7666 26.4824 28.7666C26.1191 28.7666 25.7207 28.7959 25.2871 28.8545C24.8535 28.9131 24.4961 28.9775 24.2148 29.0479L23.4766 28.5645L23.9688 22.5352H30.3584V23.8711H25.2168L24.8916 27.7471C25.1143 27.7002 25.4014 27.6533 25.7529 27.6064C26.1045 27.5537 26.5029 27.5273 26.9482 27.5273Z" fill="black"/>
<defs>
<radialGradient id="paint0_radial_602_2561" cx="0" cy="0" r="1" gradientUnits="userSpaceOnUse" gradientTransform="translate(28 28.3848) rotate(90) scale(28)">
<stop offset="0.916667" stop-color="#00AEEF"/>
<stop offset="1" stop-color="white" stop-opacity="0.36"/>
</radialGradient>
</defs>
</svg>
