<svg width="261" height="190" viewBox="0 0 261 190" fill="none" xmlns="http://www.w3.org/2000/svg">
<g clip-path="url(#clip0_739_2596)">
<path d="M174.734 155.013L179.474 228.254C179.474 228.254 190.851 257.078 190.377 284.484C190.377 284.484 186.111 295.352 189.429 297.242C192.747 299.132 194.643 300.55 192.747 301.967C190.851 303.385 189.429 306.692 190.851 307.637C192.273 308.582 192.747 310 192.273 310H178.052C178.052 310 180.896 302.912 176.63 301.022C172.364 299.132 174.734 294.407 174.734 294.407L142.975 201.793L117.853 286.846C117.853 286.846 122.119 289.682 118.801 291.099C115.483 292.517 114.061 289.682 115.483 292.517C116.905 295.352 115.009 296.769 115.009 297.242C115.009 297.714 100.788 295.824 100.788 295.824C100.788 295.824 107.899 289.682 104.58 288.264C101.262 286.846 99.8403 285.429 100.788 284.484C101.736 283.539 105.528 274.561 105.528 274.561C105.528 274.561 107.424 240.539 107.899 239.122C108.373 237.704 107.899 231.089 107.899 227.781C107.899 224.474 107.424 211.243 108.847 207.935C110.269 204.628 111.691 163.991 119.275 159.266C126.859 154.541 174.734 155.013 174.734 155.013Z" fill="#002E6A"/>
<path d="M154 52C163.665 52 171.5 44.3888 171.5 35C171.5 25.6112 163.665 18 154 18C144.335 18 136.5 25.6112 136.5 35C136.5 44.3888 144.335 52 154 52Z" fill="#FFB8B8"/>
<path d="M165.5 44L163.405 59.0577L147.69 71L143.5 65.2885V45.5577L165.5 44Z" fill="#FFB8B8"/>
<path d="M141.661 63.0812C141.661 63.0812 157.686 64.6116 165.958 59L182.5 155.417C182.5 155.417 124.085 160.009 121.5 156.948V126.849L131.839 77.8754L141.661 63.0812Z" fill="#002E6A"/>
<path d="M164.317 55L169.742 59.5941C169.742 59.5941 191.939 63.153 190.426 69.2539L184.372 141.448L186.39 165.852C186.39 165.852 169.238 161.276 156.121 165.852C143.004 170.427 153.425 67.5236 153.425 67.5236C153.425 67.5236 165.45 56.5068 164.317 55Z" fill="#BFDBFF"/>
<path d="M143.308 60C143.308 60 127.122 71.8064 125.099 79.476C123.076 87.1457 116.5 167.932 116.5 167.932C116.5 167.932 119.535 166.399 121.052 168.955C122.57 171.512 145.837 64.0442 143.308 60Z" fill="#BFDBFF"/>
<path d="M136.765 34.6778C136.765 34.6778 134.967 31.8938 135.658 28.8958C136.072 27.1936 136.235 25.437 136.142 23.6848C136.142 23.6848 137.595 18.8308 139.047 16.1183C140.499 13.4057 139.808 12.2636 144.372 11.407C148.937 10.5504 147.07 4.41152 159.103 11.0501C159.509 11.6352 160.074 12.083 160.726 12.3371C161.379 12.5912 162.089 12.6401 162.769 12.4777C165.258 11.9781 166.157 15.5472 166.157 15.5472C166.157 15.5472 167.817 14.5478 168.44 15.9755C169.062 17.4031 173.5 15.1186 173.5 24.7553C173.5 34.392 168.45 43 168.45 43C168.45 43 168.82 26.79 160.59 25.1482C152.36 23.5064 143.508 18.7237 141.364 24.8626C140.207 28.3081 138.663 31.6022 136.765 34.6778Z" fill="#002E6A"/>
<path d="M170 38C170.828 38 171.5 37.1046 171.5 36C171.5 34.8954 170.828 34 170 34C169.172 34 168.5 34.8954 168.5 36C168.5 37.1046 169.172 38 170 38Z" fill="#FFB8B8"/>
<path d="M188.5 167.573L184.755 179.513C184.755 179.513 183.798 201.773 171.26 198.711C158.722 195.648 174.917 169.615 174.917 169.615L178.574 164L188.5 167.573Z" fill="#FFB8B8"/>
<path d="M118.5 167.573L115.096 179.513C115.096 179.513 114.226 201.773 102.827 198.711C91.4293 195.648 106.152 169.615 106.152 169.615L109.476 164L118.5 167.573Z" fill="#FFB8B8"/>
<path d="M186.198 65.1074C186.198 65.1074 194.349 63.0518 196.896 76.9272C199.443 90.8027 202.5 130.374 202.5 130.374L190.274 172C190.274 172 178.047 165.319 175.5 166.347L185.121 130.209L177.028 93.3723C177.028 93.3723 184.16 65.1074 186.198 65.1074Z" fill="#BFDBFF"/>
<path opacity="0.15" d="M175.5 93L184.5 129.241L175.5 166L180.643 129.241L175.5 93Z" fill="black"/>
<path d="M125.5 93L106.5 166.192C106.5 166.192 116.522 169.423 120.217 172L125.5 93Z" fill="#EAF2FC"/>
<path d="M125.726 179.844C128.144 182.829 131.925 184.033 133.394 184.403C133.332 182.884 132.932 178.924 130.514 175.938C128.09 172.946 124.314 171.748 122.847 171.378C122.909 172.896 123.309 176.858 125.726 179.844Z" fill="white"/>
<path d="M124.439 137.844L143.05 144.568C144.16 144.969 145.384 144.916 146.45 144.422C147.517 143.927 148.339 143.03 148.737 141.929C149.135 140.828 149.075 139.613 148.571 138.551C148.067 137.489 147.16 136.667 146.049 136.266L127.438 129.542C126.328 129.142 125.105 129.195 124.04 129.69C122.974 130.185 122.152 131.081 121.755 132.182C121.357 133.282 121.417 134.496 121.92 135.558C122.423 136.62 123.329 137.442 124.439 137.844Z" fill="white"/>
<path d="M20.9241 152.069L128.478 190.925C129.73 191.377 131.058 191.578 132.387 191.516C133.716 191.453 135.021 191.13 136.226 190.563C137.431 189.996 138.513 189.197 139.41 188.211C140.307 187.226 141.002 186.074 141.455 184.82L160.426 132.308C161.341 129.776 161.214 126.985 160.075 124.549C158.935 122.113 156.875 120.231 154.348 119.318L46.7935 80.4623C45.5423 80.0102 44.2142 79.8096 42.885 79.8718C41.5557 79.934 40.2513 80.2578 39.0463 80.8248C37.8414 81.3917 36.7593 82.1907 35.8621 83.176C34.9648 84.1614 34.2699 85.3138 33.8169 86.5676L14.8459 139.08C14.3929 140.334 14.1908 141.664 14.2511 142.995C14.3115 144.327 14.633 145.633 15.1974 146.839C15.7618 148.045 16.5581 149.128 17.5407 150.025C18.5233 150.923 19.673 151.617 20.9241 152.069ZM133.492 185.374C133.266 185.336 127.92 184.375 124.658 180.354C121.396 176.333 121.55 170.893 121.558 170.663L121.579 170.078L122.155 170.177C122.971 170.335 123.772 170.56 124.551 170.849C126.445 171.533 129.076 172.838 130.99 175.198C134.252 179.218 134.097 184.659 134.089 184.888L134.068 185.473L133.492 185.374ZM127.759 128.185L146.942 135.115C148.341 135.621 149.482 136.662 150.113 138.011C150.744 139.36 150.814 140.905 150.307 142.307C149.801 143.71 148.759 144.853 147.412 145.487C146.064 146.121 144.521 146.194 143.122 145.688L123.939 138.758C122.54 138.252 121.399 137.211 120.768 135.862C120.137 134.513 120.067 132.968 120.573 131.566C121.08 130.163 122.121 129.02 123.469 128.386C124.816 127.752 126.359 127.679 127.759 128.185ZM40.1278 97.6132C40.6843 96.0867 41.8211 94.842 43.2897 94.151C44.7584 93.46 46.4396 93.3788 47.9662 93.9253L62.3536 99.123C63.8769 99.6784 65.1181 100.815 65.806 102.285C66.4939 103.756 66.5727 105.439 66.0251 106.969L62.8999 115.62C62.3434 117.146 61.2067 118.391 59.738 119.082C58.2693 119.773 56.5881 119.854 55.0615 119.307L40.6741 114.11C39.1508 113.554 37.9096 112.417 37.2217 110.947C36.5338 109.477 36.455 107.793 37.0026 106.264L40.1278 97.6132Z" fill="#00AEEF"/>
<path d="M54.7889 105.643L61.5345 108.08C62.0161 108.254 62.5571 108.202 63.0383 107.936C63.5195 107.67 63.9016 107.211 64.1004 106.66C64.2993 106.11 64.2987 105.513 64.0987 105C63.8987 104.488 63.5158 104.103 63.0341 103.929L56.2886 101.492C55.8069 101.318 55.266 101.369 54.7848 101.636C54.3036 101.902 53.9215 102.361 53.7226 102.911C53.5238 103.462 53.5244 104.059 53.7244 104.571C53.9243 105.083 54.3072 105.469 54.7889 105.643ZM55.8601 102.678L62.6057 105.115C62.7081 105.151 62.8013 105.211 62.8798 105.29C62.9584 105.368 63.0207 105.465 63.0634 105.574C63.106 105.683 63.128 105.801 63.1282 105.924C63.1284 106.046 63.1067 106.169 63.0645 106.286C63.0222 106.403 62.9602 106.512 62.8819 106.605C62.8036 106.699 62.7107 106.777 62.6084 106.833C62.506 106.89 62.3964 106.924 62.2856 106.934C62.1749 106.945 62.0652 106.931 61.963 106.894L55.2174 104.457C55.1149 104.42 55.0218 104.361 54.9432 104.282C54.8647 104.203 54.8023 104.106 54.7597 103.998C54.7171 103.889 54.6951 103.77 54.6949 103.648C54.6947 103.525 54.7163 103.402 54.7586 103.285C54.8009 103.168 54.8629 103.06 54.9412 102.966C55.0195 102.872 55.1124 102.795 55.2147 102.738C55.317 102.682 55.4267 102.647 55.5375 102.637C55.6482 102.627 55.7578 102.64 55.8601 102.678Z" fill="#002E6A"/>
<path d="M43.1915 101.453L49.2609 103.646C49.4756 103.724 49.7076 103.747 49.9437 103.715C50.1799 103.682 50.4155 103.595 50.6372 103.457C50.8588 103.319 51.0621 103.134 51.2354 102.911C51.4088 102.689 51.5487 102.434 51.6473 102.161C51.7459 101.888 51.8011 101.603 51.8099 101.321C51.8187 101.039 51.7808 100.767 51.6984 100.519C51.6161 100.272 51.4908 100.054 51.3299 99.8777C51.169 99.7019 50.9755 99.5716 50.7606 99.4945L44.6912 97.3018C44.2578 97.1452 43.7632 97.2137 43.3161 97.4922C42.869 97.7708 42.5061 98.2365 42.3073 98.787C42.1084 99.3375 42.0899 99.9276 42.2557 100.428C42.4215 100.927 42.7581 101.296 43.1915 101.453ZM44.2627 98.4878L50.3321 100.68C50.4243 100.713 50.5073 100.769 50.5763 100.845C50.6454 100.92 50.6991 101.013 50.7345 101.12C50.7698 101.226 50.7861 101.343 50.7824 101.463C50.7786 101.584 50.755 101.707 50.7127 101.824C50.6704 101.941 50.6104 102.05 50.5361 102.145C50.4617 102.24 50.3745 102.32 50.2795 102.379C50.1844 102.438 50.0834 102.476 49.9821 102.489C49.8809 102.503 49.7814 102.493 49.6894 102.46L43.62 100.267C43.4347 100.199 43.291 100.041 43.2202 99.827C43.1495 99.613 43.1575 99.3604 43.2426 99.1249C43.3277 98.8893 43.4829 98.69 43.6742 98.5705C43.8654 98.4511 44.0771 98.4213 44.2627 98.4878Z" fill="#002E6A"/>
<path d="M53.2921 109.795L60.0359 112.232C60.5175 112.405 61.0385 112.408 61.4845 112.239C61.9305 112.07 62.2648 111.744 62.4139 111.331C62.5631 110.918 62.5149 110.453 62.2798 110.038C62.0448 109.623 61.6422 109.292 61.1607 109.118L54.4169 106.682C54.1783 106.595 53.9275 106.55 53.6787 106.548C53.4299 106.547 53.188 106.589 52.9669 106.672C52.7457 106.756 52.5497 106.879 52.39 107.035C52.2303 107.191 52.1101 107.377 52.0361 107.582C51.9622 107.786 51.9361 108.006 51.9592 108.228C51.9823 108.45 52.0543 108.67 52.1709 108.876C52.2876 109.081 52.4467 109.268 52.639 109.426C52.8314 109.584 53.0534 109.709 53.2921 109.795ZM54.0955 107.571L60.8393 110.008C61.0457 110.082 61.2182 110.224 61.319 110.402C61.4197 110.58 61.4404 110.779 61.3764 110.956C61.3125 111.133 61.1692 111.273 60.9781 111.345C60.787 111.418 60.5637 111.417 60.3573 111.342L53.6135 108.906C53.4071 108.831 53.2346 108.689 53.1339 108.511C53.0331 108.334 53.0125 108.134 53.0764 107.957C53.1403 107.78 53.2836 107.64 53.4747 107.568C53.6658 107.496 53.8892 107.497 54.0955 107.571Z" fill="#002E6A"/>
<path d="M41.6925 105.604L47.7619 107.796C47.9766 107.874 48.2038 107.911 48.4305 107.905C48.6573 107.898 48.8791 107.849 49.0833 107.759C49.2876 107.67 49.4702 107.542 49.6208 107.382C49.7713 107.223 49.8869 107.036 49.9608 106.831C50.0347 106.626 50.0656 106.408 50.0516 106.19C50.0376 105.971 49.979 105.756 49.8793 105.556C49.7795 105.357 49.6405 105.177 49.4702 105.027C49.2998 104.877 49.1015 104.76 48.8866 104.683L42.8172 102.49C42.3839 102.334 41.909 102.348 41.4971 102.529C41.0851 102.71 40.7699 103.044 40.6208 103.457C40.4716 103.87 40.5008 104.328 40.7017 104.73C40.9027 105.133 41.2591 105.447 41.6925 105.604ZM42.4959 103.38L48.5653 105.573C48.751 105.64 48.9037 105.774 48.9899 105.947C49.076 106.12 49.0885 106.316 49.0246 106.493C48.9606 106.67 48.8256 106.813 48.649 106.89C48.4725 106.968 48.269 106.974 48.0832 106.907L42.0138 104.714C41.8281 104.647 41.6754 104.513 41.5892 104.34C41.5031 104.167 41.4906 103.971 41.5545 103.794C41.6185 103.617 41.7536 103.474 41.9301 103.396C42.1066 103.319 42.3101 103.313 42.4959 103.38Z" fill="#002E6A"/>
<path d="M51.7899 113.945L58.5354 116.382C59.0171 116.556 59.5383 116.559 59.9844 116.39C60.4304 116.221 60.7648 115.894 60.9139 115.481C61.0631 115.069 61.0148 114.603 60.7797 114.189C60.5446 113.774 60.1419 113.443 59.6602 113.269L52.9146 110.832C52.433 110.658 51.9118 110.655 51.4658 110.824C51.0197 110.993 50.6853 111.319 50.5361 111.732C50.387 112.145 50.4353 112.61 50.6704 113.025C50.9055 113.44 51.3082 113.771 51.7899 113.945ZM52.5933 111.721L59.3388 114.158C59.5453 114.233 59.7179 114.375 59.8186 114.552C59.9194 114.73 59.9401 114.93 59.8762 115.106C59.8122 115.283 59.6689 115.424 59.4778 115.496C59.2866 115.568 59.0632 115.567 58.8568 115.492L52.1112 113.055C51.9048 112.981 51.7322 112.839 51.6315 112.661C51.5307 112.483 51.51 112.284 51.5739 112.107C51.6379 111.93 51.7811 111.79 51.9723 111.718C52.1635 111.645 52.3868 111.647 52.5933 111.721Z" fill="#002E6A"/>
<path d="M40.1904 109.754L46.2614 111.947C46.4762 112.025 46.7035 112.062 46.9303 112.056C47.1571 112.049 47.3789 112 47.5832 111.91C47.7875 111.821 47.9701 111.692 48.1207 111.533C48.2713 111.374 48.3869 111.187 48.4608 110.982C48.5347 110.777 48.5656 110.559 48.5516 110.341C48.5375 110.122 48.479 109.907 48.3791 109.707C48.2793 109.508 48.1403 109.328 47.9699 109.178C47.7995 109.028 47.6012 108.911 47.3862 108.834L41.3152 106.641C40.8819 106.485 40.4074 106.499 39.996 106.68C39.5846 106.862 39.2698 107.195 39.1208 107.608C38.9718 108.02 39.0007 108.478 39.2013 108.88C39.4018 109.283 39.7576 109.597 40.1904 109.754ZM40.9938 107.53L47.0648 109.723C47.2506 109.79 47.4034 109.925 47.4896 110.098C47.5758 110.27 47.5882 110.467 47.5243 110.644C47.4604 110.821 47.3253 110.964 47.1487 111.041C46.9722 111.119 46.7686 111.125 46.5828 111.058L40.5118 108.864C40.326 108.797 40.1732 108.663 40.0871 108.49C40.0009 108.317 39.9884 108.121 40.0523 107.944C40.1162 107.767 40.2514 107.624 40.4279 107.547C40.6045 107.469 40.8081 107.463 40.9938 107.53Z" fill="#002E6A"/>
<rect x="23.9688" y="115.328" width="133.827" height="9.70647" transform="rotate(20.4154 23.9688 115.328)" fill="#002E6A"/>
</g>
<defs>
<clipPath id="clip0_739_2596">
<rect width="260" height="190" fill="white" transform="translate(0.5)"/>
</clipPath>
</defs>
</svg>
