<svg width="56" height="57" viewBox="0 0 56 57" fill="none" xmlns="http://www.w3.org/2000/svg">
<circle opacity="0.88" cx="28" cy="28.3848" r="27.5" fill="url(#paint0_radial_602_2534)" fill-opacity="0.7" stroke="#002E6A"/>
<path d="M31.3076 34.3848H22.8877V33.1631L26.3242 29.6738C26.9629 29.0293 27.499 28.4551 27.9326 27.9512C28.3721 27.4473 28.7061 26.9521 28.9346 26.4658C29.1631 25.9736 29.2773 25.4346 29.2773 24.8486C29.2773 24.1221 29.0605 23.5684 28.627 23.1875C28.1992 22.8008 27.6338 22.6074 26.9307 22.6074C26.3154 22.6074 25.7705 22.7129 25.2959 22.9238C24.8213 23.1348 24.335 23.4336 23.8369 23.8203L23.0547 22.8359C23.3945 22.5488 23.7637 22.2939 24.1621 22.0713C24.5664 21.8486 24.9971 21.6729 25.4541 21.5439C25.917 21.415 26.4092 21.3506 26.9307 21.3506C27.7217 21.3506 28.4043 21.4883 28.9785 21.7637C29.5527 22.0391 29.9951 22.4316 30.3057 22.9414C30.6221 23.4512 30.7803 24.0576 30.7803 24.7607C30.7803 25.4404 30.6455 26.0732 30.376 26.6592C30.1064 27.2393 29.7285 27.8164 29.2422 28.3906C28.7559 28.959 28.1875 29.5625 27.5371 30.2012L24.7422 32.9873V33.0488H31.3076V34.3848Z" fill="black"/>
<defs>
<radialGradient id="paint0_radial_602_2534" cx="0" cy="0" r="1" gradientUnits="userSpaceOnUse" gradientTransform="translate(28 28.3848) rotate(90) scale(28)">
<stop offset="0.916667" stop-color="#00AEEF"/>
<stop offset="1" stop-color="white" stop-opacity="0.36"/>
</radialGradient>
</defs>
</svg>
