<svg width="526" height="445" viewBox="0 0 526 445" fill="none" xmlns="http://www.w3.org/2000/svg">
<path d="M483.689 348.231L354.849 347.848L354.826 354.389L483.665 354.772L483.689 348.231Z" fill="#EAF2FC"/>
<path d="M501.547 365.309L372.707 364.925L372.683 371.467L501.523 371.85L501.547 365.309Z" fill="#EAF2FC"/>
<path d="M516.775 381.419L387.935 381.035L387.912 387.577L516.751 387.96L516.775 381.419Z" fill="#EAF2FC"/>
<path d="M482 379.371L474.643 382L461 354.88L471.859 351L482 379.371Z" fill="#FFB8B8"/>
<path d="M462.693 395L462.583 394.7C461.689 392.253 461.828 389.56 462.967 387.211C464.107 384.863 466.156 383.052 468.663 382.175L483.509 377L487 386.528L462.693 395Z" fill="#2F2E41"/>
<path d="M432.999 387L424.868 386.999L421 356L433 356.001L432.999 387Z" fill="#FFB8B8"/>
<path d="M435 395L409 394.999V394.684C409 393.413 409.262 392.153 409.77 390.978C410.279 389.803 411.024 388.736 411.964 387.836C412.904 386.937 414.019 386.224 415.247 385.737C416.475 385.25 417.791 385 419.12 385H419.121L435 385.001L435 395Z" fill="#2F2E41"/>
<path d="M451 189.39L447.643 183C447.643 183 435.137 186.018 434 193L451 189.39Z" fill="#00AEEF"/>
<path d="M466.2 268.306L456.654 321.137L482 365.594L466.858 371.471L441.184 328.376L437.892 316.624L435.917 378L422.261 377.589L416 320.278L426.042 267L466.2 268.306Z" fill="#2F2E41"/>
<path d="M420.144 278.018C419.849 276.7 419 236.446 419 236.446C419 236.446 433.021 190.375 433.15 189.997L433.2 189.849L443.845 185.854C443.994 185.786 447.541 184.205 450.443 185.523C451.188 185.885 451.844 186.406 452.366 187.049C452.889 187.691 453.265 188.441 453.468 189.244C454.676 190.144 463.377 199.899 463.377 213.131L463.705 244.356L471 278.208L470.678 278.276C470.478 278.319 461.586 281 447.581 281C439.799 281 420.144 278.018 420.144 278.018Z" fill="#3F3D56"/>
<path d="M437 180C444.732 180 451 173.732 451 166C451 158.268 444.732 152 437 152C429.268 152 423 158.268 423 166C423 173.732 429.268 180 437 180Z" fill="#FFB8B8"/>
<path opacity="0.2" d="M458 229L432.732 264L429 247.655L458 229Z" fill="black"/>
<path d="M413.288 264.993C414.162 264.957 415.017 264.722 415.793 264.305C416.57 263.887 417.249 263.298 417.783 262.577C418.317 261.857 418.693 261.023 418.885 260.135C419.076 259.248 419.078 258.327 418.89 257.438L437 245.871L427 241L411.336 252.731C409.923 253.158 408.709 254.11 407.925 255.406C407.14 256.703 406.84 258.253 407.081 259.765C407.322 261.277 408.086 262.644 409.23 263.607C410.374 264.571 411.818 265.064 413.288 264.993Z" fill="#FFB8B8"/>
<path d="M426.415 242L420 246.445L425.441 256L433 249.814L426.415 242Z" fill="#00AEEF"/>
<path d="M423 241.793L437.946 224.571L432.22 200.816C431.628 198.361 431.955 195.776 433.14 193.544C434.325 191.311 436.287 189.583 438.66 188.683C441.032 187.783 443.653 187.772 446.033 188.652C448.413 189.533 450.39 191.244 451.593 193.467L451.723 193.707L457 228.983L430.485 256L423 241.793Z" fill="#3F3D56"/>
<path d="M449.571 178.573L437.458 179C436.72 179.026 434.716 171.211 434.454 169.589C434.247 168.534 433.655 167.588 432.789 166.93C431.923 166.271 430.842 165.944 429.748 166.01C428.841 166.094 426.555 164.432 424.196 162.465C419.717 158.73 419.95 151.715 424.87 148.559C425.005 148.473 425.137 148.394 425.266 148.323C428.37 146.618 432.001 146.046 435.558 146.003C438.782 145.963 442.098 146.361 444.938 147.858C450.031 150.542 452.741 156.406 452.979 162.072C453.217 167.737 451.366 173.277 449.264 178.56" fill="#2F2E41"/>
<path d="M514.345 406H369.655C369.481 406 369.315 405.947 369.192 405.854C369.069 405.76 369 405.633 369 405.5C369 405.367 369.069 405.24 369.192 405.146C369.315 405.053 369.481 405 369.655 405H514.345C514.519 405 514.685 405.053 514.808 405.146C514.931 405.24 515 405.367 515 405.5C515 405.633 514.931 405.76 514.808 405.854C514.685 405.947 514.519 406 514.345 406Z" fill="#3F3D56"/>
<path d="M154.906 234.095C154.623 233.206 155.286 232.298 156.22 232.298H319.365C320.291 232.298 320.953 233.192 320.685 234.078L303.014 292.28C302.869 292.759 302.498 293.116 302.009 293.22C296.496 294.383 262.602 301.328 239.318 301.323C216.008 301.318 180.103 294.343 174.426 293.21C173.936 293.112 173.564 292.761 173.413 292.285L154.906 234.095Z" fill="#00AEEF"/>
<path d="M320.88 232.683C320.88 233.394 320.405 234.16 319.324 234.963C318.252 235.76 316.649 236.543 314.551 237.298C310.359 238.805 304.275 240.168 296.732 241.315C281.654 243.608 260.81 245.028 237.779 245.028C214.748 245.028 193.905 243.608 178.826 241.315C171.284 240.168 165.2 238.805 161.008 237.298C158.91 236.543 157.307 235.76 156.235 234.963C155.154 234.16 154.679 233.394 154.679 232.683C154.679 231.971 155.154 231.205 156.235 230.402C157.307 229.605 158.91 228.822 161.008 228.068C165.2 226.561 171.284 225.197 178.826 224.05C193.905 221.757 214.748 220.337 237.779 220.337C260.81 220.337 281.654 221.757 296.732 224.05C304.275 225.197 310.359 226.561 314.551 228.068C316.649 228.822 318.252 229.605 319.324 230.402C320.405 231.205 320.88 231.971 320.88 232.683Z" fill="#EAF2FC" stroke="#002E6A" stroke-width="0.689632"/>
<path d="M123.182 144.04C122.9 143.15 123.563 142.242 124.497 142.242H347.64C348.566 142.242 349.228 143.136 348.96 144.022L324.658 224.068C324.513 224.546 324.147 224.902 323.658 225.006C317.131 226.39 270.23 236.089 238.147 236.083C206.052 236.076 156.394 226.349 149.65 224.998C149.16 224.9 148.788 224.548 148.637 224.072L123.182 144.04Z" fill="#00AEEF"/>
<path d="M349.155 142.765C349.155 143.792 348.47 144.865 346.989 145.965C345.518 147.059 343.325 148.129 340.468 149.156C334.759 151.209 326.477 153.063 316.221 154.623C295.713 157.742 267.37 159.672 236.055 159.672C204.74 159.672 176.397 157.742 155.89 154.623C145.633 153.063 137.352 151.209 131.643 149.156C128.786 148.129 126.593 147.059 125.121 145.965C123.641 144.865 122.956 143.792 122.956 142.765C122.956 141.739 123.641 140.665 125.121 139.565C126.593 138.471 128.786 137.402 131.643 136.374C137.352 134.322 145.633 132.467 155.89 130.907C176.397 127.788 204.74 125.858 236.055 125.858C267.37 125.858 295.713 127.788 316.221 130.907C326.477 132.467 334.759 134.322 340.468 136.374C343.325 137.402 345.518 138.471 346.989 139.565C348.47 140.665 349.155 141.739 349.155 142.765Z" fill="#EAF2FC" stroke="#002E6A" stroke-width="0.689632"/>
<path d="M85.9424 23.8657C85.6595 22.9761 86.3233 22.0684 87.2568 22.0684H382.811C383.737 22.0684 384.4 22.9624 384.131 23.8483L351.826 130.255C351.681 130.734 351.29 131.095 350.801 131.199C343.085 132.84 280.483 145.866 237.779 145.857C195.056 145.849 128.739 132.782 120.81 131.189C120.32 131.09 119.933 130.736 119.781 130.26L85.9424 23.8657Z" fill="#00AEEF"/>
<path d="M384.326 22.7579C384.326 24.1645 383.388 25.6089 381.425 27.0676C379.471 28.5199 376.567 29.9353 372.794 31.2918C365.253 34.0033 354.32 36.4513 340.788 38.5092C313.728 42.6243 276.334 45.1709 235.021 45.1709C193.708 45.1709 156.314 42.6243 129.254 38.5092C115.722 36.4513 104.789 34.0033 97.2477 31.2918C93.4747 29.9353 90.5709 28.5199 88.6168 27.0676C86.654 25.6089 85.7155 24.1645 85.7155 22.7579C85.7155 21.3512 86.654 19.9068 88.6168 18.4481C90.5709 16.9959 93.4747 15.5805 97.2477 14.224C104.789 11.5124 115.722 9.06445 129.254 7.00652C156.314 2.89149 193.708 0.344816 235.021 0.344816C276.334 0.344816 313.728 2.89149 340.788 7.00652C354.32 9.06445 365.253 11.5124 372.794 14.224C376.567 15.5805 379.471 16.9959 381.425 18.4481C383.388 19.9068 384.326 21.3512 384.326 22.7579Z" fill="#EAF2FC" stroke="#002E6A" stroke-width="0.689632"/>
<path d="M361.259 65.0154C361.259 75.5945 352.683 84.1706 342.104 84.1706C331.525 84.1706 322.949 75.5945 322.949 65.0154C322.949 54.4363 331.525 45.8602 342.104 45.8602C352.683 45.8602 361.259 54.4363 361.259 65.0154Z" fill="#00AEEF" stroke="#3F3D56" stroke-width="0.689632"/>
<path d="M342 69.1074C344.209 69.1074 346 67.3166 346 65.1074C346 62.8983 344.209 61.1074 342 61.1074C339.791 61.1074 338 62.8983 338 65.1074C338 67.3166 339.791 69.1074 342 69.1074Z" fill="#2F2E41"/>
<path d="M456.719 14.4658C458.772 14.4658 460.436 12.8004 460.436 10.746C460.436 8.69156 458.772 7.02612 456.719 7.02612C454.666 7.02612 453.001 8.69156 453.001 10.746C453.001 12.8004 454.666 14.4658 456.719 14.4658Z" fill="#00AEEF"/>
<path d="M445.979 10.5C445.979 8.4233 446.594 6.39322 447.748 4.66651C448.902 2.93979 450.542 1.59399 452.46 0.799273C454.379 0.0045532 456.49 -0.203387 458.527 0.201758C460.564 0.606903 462.435 1.60693 463.903 3.07539C465.372 4.54384 466.372 6.41475 466.777 8.45155C467.182 10.4883 466.974 12.5995 466.179 14.5182C465.385 16.4368 464.039 18.0767 462.312 19.2304C460.585 20.3842 458.555 21 456.479 21C455.1 21 453.734 20.7284 452.46 20.2007C451.186 19.6731 450.029 18.8996 449.054 17.9246C448.079 16.9496 447.305 15.7921 446.778 14.5182C446.25 13.2443 445.979 11.8789 445.979 10.5ZM456.479 0.807723C453.909 0.810659 451.445 1.83275 449.628 3.64977C447.811 5.46679 446.789 7.93035 446.786 10.5C446.786 12.417 447.355 14.2909 448.42 15.8847C449.485 17.4786 450.998 18.7209 452.769 19.4545C454.541 20.1881 456.489 20.38 458.369 20.0061C460.25 19.6321 461.977 18.709 463.332 17.3535C464.688 15.998 465.611 14.271 465.985 12.3909C466.359 10.5107 466.167 8.56194 465.433 6.7909C464.699 5.01986 463.457 3.50613 461.863 2.44113C460.269 1.37613 458.395 0.807687 456.479 0.807689V0.807723Z" fill="#2F2E41"/>
<path d="M341.073 11.9927L446.386 10.3333L446.399 11.1593L341.9 12.8065V61.3775H341.225L341.073 11.9927Z" fill="#2F2E41"/>
<path d="M479.433 30.5854H434.001V33.4787H479.433V30.5854Z" fill="#EAF2FC"/>
<path d="M479.433 38.8516H434.001V41.7448H479.433V38.8516Z" fill="#EAF2FC"/>
<path d="M479.433 47.1182H434.001V50.0114H479.433V47.1182Z" fill="#EAF2FC"/>
<path d="M157.727 181.095C157.727 177.733 158.724 174.446 160.592 171.65C162.46 168.855 165.115 166.676 168.221 165.389C171.328 164.102 174.746 163.766 178.043 164.422C181.341 165.078 184.37 166.697 186.748 169.074C189.125 171.452 190.744 174.481 191.4 177.778C192.056 181.076 191.719 184.494 190.433 187.601C189.146 190.707 186.967 193.362 184.171 195.23C181.376 197.098 178.089 198.095 174.727 198.095C170.218 198.095 165.894 196.304 162.706 193.116C159.518 189.928 157.727 185.604 157.727 181.095V181.095ZM174.727 164.924C170.44 164.929 166.329 166.634 163.298 169.666C160.266 172.697 158.561 176.808 158.556 181.095C158.556 184.293 159.504 187.42 161.281 190.079C163.058 192.738 165.584 194.811 168.539 196.035C171.493 197.259 174.745 197.579 177.882 196.955C181.018 196.331 183.9 194.791 186.161 192.529C188.423 190.268 189.963 187.387 190.587 184.25C191.211 181.113 190.891 177.862 189.667 174.907C188.443 171.952 186.37 169.426 183.711 167.65C181.051 165.873 177.925 164.924 174.727 164.924Z" fill="#3F3D56"/>
<path d="M174.661 188.481C178.995 188.481 182.508 184.965 182.508 180.628C182.508 176.291 178.995 172.775 174.661 172.775C170.327 172.775 166.813 176.291 166.813 180.628C166.813 184.965 170.327 188.481 174.661 188.481Z" fill="#00AEEF"/>
<path d="M175 185.107C177.209 185.107 179 183.317 179 181.107C179 178.898 177.209 177.107 175 177.107C172.791 177.107 171 178.898 171 181.107C171 183.317 172.791 185.107 175 185.107Z" fill="#2F2E41"/>
<path d="M31.284 21.26C33.337 21.26 35.0012 19.5946 35.0012 17.5402C35.0012 15.4857 33.337 13.8203 31.284 13.8203C29.2311 13.8203 27.5669 15.4857 27.5669 17.5402C27.5669 19.5946 29.2311 21.26 31.284 21.26Z" fill="#00AEEF"/>
<path d="M174.454 17.7476H41.9238V16.9209H175.28V177.794H174.454V17.7476Z" fill="#2F2E41"/>
<path d="M20.5452 17.294C20.5452 15.2172 21.161 13.1872 22.3147 11.4605C23.4685 9.73376 25.1084 8.38794 27.027 7.59322C28.9456 6.7985 31.0568 6.59056 33.0936 6.9957C35.1304 7.40084 37.0013 8.40087 38.4698 9.86932C39.9382 11.3378 40.9383 13.2087 41.3434 15.2455C41.7486 17.2823 41.5406 19.3935 40.7459 21.3121C39.9512 23.2307 38.6054 24.8706 36.8787 26.0244C35.1519 27.1781 33.1219 27.7939 31.0452 27.7939C29.6663 27.7939 28.3009 27.5224 27.027 26.9947C25.7531 26.467 24.5956 25.6936 23.6205 24.7186C22.6455 23.7436 21.8721 22.5861 21.3444 21.3121C20.8168 20.0382 20.5452 18.6728 20.5452 17.294ZM31.0452 7.60167C29.1282 7.60166 27.2543 8.1701 25.6604 9.23511C24.0665 10.3001 22.8242 11.8138 22.0906 13.5849C21.3571 15.3559 21.1651 17.3047 21.5391 19.1848C21.9131 21.0649 22.8362 22.792 24.1917 24.1475C25.5472 25.5029 27.2742 26.426 29.1543 26.8C31.0344 27.174 32.9832 26.9821 34.7542 26.2485C36.5253 25.5149 38.039 24.2726 39.104 22.6787C40.169 21.0848 40.7375 19.2109 40.7375 17.294C40.7345 14.7243 39.7124 12.2607 37.8954 10.4437C36.0784 8.62671 33.6148 7.60461 31.0452 7.60167Z" fill="#2F2E41"/>
<path d="M53.4319 39.7939H8V42.6872H53.4319V39.7939Z" fill="#EAF2FC"/>
<path d="M53.4319 48.0602H8V50.9534H53.4319V48.0602Z" fill="#EAF2FC"/>
<path d="M53.4319 56.3267H8V59.2199H53.4319V56.3267Z" fill="#EAF2FC"/>
<path d="M248.469 276.543C248.469 280.923 244.918 284.473 240.538 284.473C236.158 284.473 232.607 280.923 232.607 276.543C232.607 272.163 236.158 268.612 240.538 268.612C244.918 268.612 248.469 272.163 248.469 276.543Z" fill="#00AEEF" stroke="#002E6A" stroke-width="0.689632"/>
<path d="M240.59 280.094C242.523 280.094 244.09 278.527 244.09 276.594C244.09 274.661 242.523 273.094 240.59 273.094C238.657 273.094 237.09 274.661 237.09 276.594C237.09 278.527 238.657 280.094 240.59 280.094Z" fill="#2F2E41"/>
<path d="M11.286 281.033C13.3389 281.033 15.0031 279.368 15.0031 277.314C15.0031 275.259 13.3389 273.594 11.286 273.594C9.23307 273.594 7.56885 275.259 7.56885 277.314C7.56885 279.368 9.23307 281.033 11.286 281.033Z" fill="#00AEEF"/>
<path d="M0.545898 277.314C0.545898 275.188 1.17569 273.111 2.35565 271.344C3.5356 269.576 5.21271 268.199 7.1749 267.386C9.13709 266.572 11.2962 266.359 13.3793 266.774C15.4623 267.189 17.3757 268.212 18.8775 269.715C20.3793 271.218 21.4021 273.133 21.8164 275.217C22.2308 277.302 22.0181 279.463 21.2053 281.426C20.3926 283.39 19.0162 285.068 17.2503 286.249C15.4844 287.43 13.4082 288.06 11.2843 288.06C8.43631 288.06 5.70496 286.928 3.69112 284.913C1.67727 282.897 0.545901 280.164 0.545898 277.314ZM11.2843 267.394C9.32383 267.394 7.40738 267.976 5.7773 269.066C4.14721 270.156 2.87671 271.705 2.12646 273.518C1.37621 275.33 1.17991 277.325 1.56238 279.249C1.94485 281.173 2.88891 282.941 4.27518 284.328C5.66145 285.715 7.42767 286.66 9.35049 287.043C11.2733 287.426 13.2664 287.229 15.0776 286.478C16.8889 285.728 18.437 284.456 19.5262 282.825C20.6154 281.194 21.1967 279.276 21.1967 277.314C21.1937 274.684 20.1484 272.163 18.2901 270.303C16.4318 268.443 13.9123 267.397 11.2843 267.394Z" fill="#2F2E41"/>
<path d="M21.9244 277.232H235.021L135.425 277.922L232.361 277.232L233.691 277.922H21.9244V277.232Z" fill="#2F2E41"/>
<path d="M74.2527 285.794H28.8208V288.687H74.2527V285.794Z" fill="#EAF2FC"/>
<path d="M74.2527 294.06H28.8208V296.953H74.2527V294.06Z" fill="#EAF2FC"/>
<path d="M74.2527 302.327H28.8208V305.22H74.2527V302.327Z" fill="#EAF2FC"/>
</svg>
