<svg width="287" height="333" viewBox="0 0 287 333" fill="none" xmlns="http://www.w3.org/2000/svg">
<g clip-path="url(#clip0_602_2439)">
<path d="M235.342 251.392C235.722 250.898 235.988 250.328 236.124 249.72C236.259 249.112 236.26 248.482 236.126 247.873C235.992 247.265 235.726 246.694 235.348 246.2C234.97 245.705 234.488 245.3 233.937 245.013L234.777 235.313L229.018 233.363L228.024 247.078C227.603 248.038 227.549 249.12 227.871 250.117C228.193 251.115 228.869 251.96 229.77 252.491C230.672 253.023 231.737 253.205 232.764 253.002C233.791 252.8 234.708 252.227 235.341 251.392L235.342 251.392Z" fill="#FFB8B8"/>
<path d="M264.074 326.806H258.892L256.427 306.768H264.078L264.074 326.806Z" fill="#FFB8B8"/>
<path d="M255.189 325.321H265.187V331.629H248.895C248.895 329.956 249.558 328.351 250.738 327.169C251.919 325.986 253.52 325.321 255.189 325.321Z" fill="#002E6A"/>
<path d="M252.309 313.51L247.276 314.75L240.109 295.883L247.538 294.053L252.309 313.51Z" fill="#FFB8B8"/>
<path d="M243.397 314.014L253.105 311.62L254.609 317.745L238.79 321.647C238.391 320.022 238.652 318.306 239.516 316.874C240.38 315.443 241.776 314.414 243.397 314.014Z" fill="#002E6A"/>
<path d="M258.009 320.417C257.535 320.418 257.078 320.243 256.727 319.926C256.375 319.608 256.153 319.171 256.104 318.7L250.141 263.016L244.95 280.044L252.302 306.64C252.428 307.096 252.382 307.583 252.173 308.007C251.963 308.431 251.605 308.762 251.166 308.937L245.321 311.28C245.081 311.376 244.823 311.423 244.564 311.417C244.305 311.411 244.05 311.352 243.814 311.244C243.578 311.137 243.366 310.982 243.192 310.79C243.017 310.598 242.883 310.373 242.798 310.128L233.788 284.225C232.802 281.397 232.366 278.405 232.503 275.412L233.76 247.458L266.881 248.863L266.364 318.026C266.358 318.507 266.173 318.969 265.844 319.321C265.516 319.673 265.069 319.889 264.59 319.928L258.158 320.413C258.108 320.416 258.058 320.417 258.009 320.417Z" fill="#002E6A"/>
<path d="M252.524 185.592C258.674 185.592 263.661 180.596 263.661 174.433C263.661 168.269 258.674 163.273 252.524 163.273C246.373 163.273 241.387 168.269 241.387 174.433C241.387 180.596 246.373 185.592 252.524 185.592Z" fill="#FFB8B8"/>
<path d="M260.714 250.682C257.781 250.682 254.139 250.441 250.368 250.193C245.217 249.853 239.89 249.502 235.914 249.733C235.377 249.786 234.836 249.701 234.341 249.485C233.846 249.269 233.415 248.93 233.088 248.499C228.99 243.24 235.31 222.733 235.582 221.863L240.726 198.931L240.947 198.981L240.726 198.931C241.86 193.888 245.474 190.167 250.164 189.222C254.553 188.339 258.798 190.1 261.521 193.936C261.666 194.14 261.81 194.349 261.954 194.563C270.82 207.72 265.805 240.409 265.469 242.517C265.938 243.079 268.47 246.257 267.774 248.465C267.491 249.364 266.722 249.976 265.488 250.283C263.916 250.595 262.314 250.728 260.712 250.68L260.714 250.682Z" fill="#00AEEF"/>
<path d="M236.094 250.692C235.085 250.692 233.724 250.319 231.89 249.556C231.101 249.227 228.701 248.227 231.615 222.715C233.046 210.184 235.096 197.739 235.116 197.615L235.136 197.495L235.246 197.445C235.299 197.421 240.534 195.017 241.445 191.926C241.475 191.819 241.51 191.716 241.551 191.615C241.801 190.928 242.307 190.365 242.962 190.042C243.617 189.72 244.371 189.664 245.067 189.885C245.802 190.061 246.442 190.51 246.858 191.142C247.275 191.774 247.435 192.541 247.308 193.287C246.991 195.303 246.381 197.261 245.498 199.1C243.035 204.193 241.366 217.696 241.349 217.832C241.255 218.985 239.019 246.308 238.589 248.382C238.438 249.106 238.162 249.992 237.349 250.422C236.96 250.614 236.529 250.708 236.095 250.694L236.094 250.692Z" fill="#002E6A"/>
<path d="M248.26 249.645C248.057 249.645 247.859 249.577 247.698 249.452C244.422 246.957 249.724 216.714 252.867 206.279C253.497 204.189 254.058 202.4 254.534 200.96C255.403 198.376 256.008 195.712 256.343 193.006C256.516 191.54 256.892 190.703 257.493 190.446C257.911 190.268 258.4 190.389 258.954 190.807C261.859 190.663 264.681 191.852 267.297 193.161L269.651 194.338L272.293 241.206C272.218 244.197 266.334 246.308 263.768 246.443C259.647 246.66 252.246 247.333 248.986 249.401C248.772 249.55 248.521 249.634 248.261 249.644L248.26 249.645Z" fill="#002E6A"/>
<path d="M233.543 240.851C233.504 240.851 233.465 240.851 233.426 240.847L228.09 240.518C227.824 240.502 227.565 240.43 227.328 240.308C227.092 240.186 226.883 240.016 226.716 239.808C226.548 239.601 226.426 239.361 226.356 239.103C226.287 238.846 226.271 238.577 226.311 238.313L228.725 222.283L233.271 199.792C233.383 199.238 233.61 198.714 233.937 198.253C234.264 197.793 234.684 197.406 235.17 197.119C235.655 196.831 236.196 196.649 236.756 196.585C237.317 196.52 237.884 196.574 238.423 196.744C239.343 197.038 240.128 197.652 240.635 198.475C241.143 199.298 241.341 200.276 241.192 201.232L237.581 223.769L235.443 239.194C235.377 239.653 235.149 240.072 234.8 240.376C234.452 240.681 234.005 240.849 233.543 240.851H233.543Z" fill="#002E6A"/>
<path d="M251.772 223.305C252.097 222.775 252.535 222.322 253.054 221.979C253.573 221.636 254.161 221.412 254.775 221.321C255.39 221.23 256.018 221.276 256.613 221.454C257.209 221.633 257.758 221.94 258.222 222.354L266.971 218.12L270.836 222.82L258.397 228.626C257.651 229.361 256.662 229.797 255.616 229.85C254.571 229.903 253.543 229.57 252.726 228.914C251.91 228.258 251.361 227.325 251.186 226.291C251.01 225.258 251.218 224.195 251.772 223.305Z" fill="#FFB8B8"/>
<path d="M263.926 227.853C263.495 227.853 263.077 227.708 262.739 227.441C262.4 227.174 262.161 226.8 262.06 226.381L260.791 221.087C260.694 220.689 260.727 220.27 260.885 219.892C261.044 219.515 261.319 219.198 261.67 218.988L269.334 214.392L265.416 200.018C265.077 198.787 265.232 197.472 265.849 196.355C266.465 195.237 267.494 194.406 268.714 194.039C269.935 193.672 271.25 193.798 272.379 194.391C273.508 194.984 274.36 195.995 274.754 197.21L279.079 210.443C279.61 212.057 279.615 213.797 279.091 215.413C278.567 217.029 277.543 218.435 276.167 219.428L265.049 227.488C264.722 227.725 264.329 227.853 263.926 227.853Z" fill="#002E6A"/>
<path d="M286.535 332.185H194.465C194.342 332.185 194.223 332.132 194.136 332.038C194.049 331.945 194 331.817 194 331.685C194 331.552 194.049 331.425 194.136 331.331C194.223 331.238 194.342 331.185 194.465 331.185H286.535C286.658 331.185 286.777 331.238 286.864 331.331C286.951 331.425 287 331.552 287 331.685C287 331.817 286.951 331.945 286.864 332.038C286.777 332.132 286.658 332.185 286.535 332.185Z" fill="#00AEEF"/>
<path d="M256.618 177.407C256.618 177.407 255.263 169.898 252.179 170.795C249.095 171.692 241.158 172.61 241.143 169.074C241.129 165.538 248.614 162.412 253.027 162.835C257.441 163.258 264.945 164.552 264.532 171.185C264.201 175.362 262.913 179.406 260.767 183.003L256.618 177.407Z" fill="#002E6A"/>
<path d="M222.128 0.184814H7.56336C5.55817 0.187219 3.63579 0.986487 2.2179 2.40729C0.800019 3.8281 0.00239999 5.75443 0 7.76375V30.9004C0.00239999 32.9097 0.800019 34.8361 2.2179 36.2569C3.63579 37.6777 5.55817 38.4769 7.56336 38.4793H222.128C224.133 38.4769 226.056 37.6777 227.473 36.2569C228.891 34.8361 229.689 32.9097 229.691 30.9004V7.76375C229.689 5.75443 228.891 3.8281 227.473 2.40729C226.056 0.986487 224.133 0.187219 222.128 0.184814ZM228.895 30.9004C228.892 32.698 228.179 34.4213 226.91 35.6924C225.642 36.9635 223.922 37.6788 222.128 37.6815H7.56336C5.76942 37.6788 4.04971 36.9635 2.78119 35.6924C1.51268 34.4213 0.798876 32.698 0.796237 30.9004V7.76375C0.798876 5.96611 1.51268 4.24286 2.78119 2.97174C4.04971 1.70061 5.76942 0.985335 7.56336 0.982691H222.128C223.922 0.985335 225.642 1.70061 226.91 2.97174C228.179 4.24286 228.892 5.96611 228.895 7.76375V30.9004Z" fill="#002E6A"/>
<path d="M222.128 93.1281H7.56336C5.55817 93.1257 3.63579 92.3264 2.2179 90.9056C0.800019 89.4848 0.00239999 87.5585 0 85.5492V62.413C0.00239999 60.4036 0.800019 58.4773 2.2179 57.0565C3.63579 55.6357 5.55817 54.8364 7.56336 54.834H222.128C224.133 54.8364 226.056 55.6357 227.473 57.0565C228.891 58.4773 229.689 60.4036 229.691 62.413V85.5492C229.689 87.5585 228.891 89.4848 227.473 90.9056C226.056 92.3264 224.133 93.1257 222.128 93.1281ZM7.56336 55.6319C5.76923 55.6339 4.04918 56.349 2.78054 57.6203C1.5119 58.8915 0.798277 60.6151 0.796237 62.413V85.5492C0.797917 87.3472 1.51137 89.0712 2.78005 90.3427C4.04873 91.6143 5.769 92.3295 7.56336 92.3316H222.128C223.922 92.3296 225.642 91.6146 226.911 90.3434C228.18 89.0721 228.893 87.3484 228.896 85.5505V62.413C228.893 60.6151 228.18 58.8915 226.911 57.6203C225.643 56.349 223.923 55.6339 222.128 55.6319H7.56336Z" fill="#00AEEF"/>
<path d="M222.128 147.777H7.56336C5.55817 147.775 3.63579 146.976 2.2179 145.555C0.800019 144.134 0.00239999 142.208 0 140.198V117.062C0.00239999 115.053 0.800019 113.127 2.2179 111.706C3.63579 110.285 5.55817 109.486 7.56336 109.483H222.128C224.133 109.486 226.056 110.285 227.473 111.706C228.891 113.127 229.689 115.053 229.691 117.062V140.198C229.689 142.208 228.891 144.134 227.473 145.555C226.056 146.976 224.133 147.775 222.128 147.777ZM7.56336 110.279C5.76923 110.281 4.04918 110.996 2.78054 112.268C1.5119 113.539 0.798277 115.263 0.796237 117.06V140.197C0.798158 141.994 1.51173 143.718 2.78038 144.99C4.04903 146.261 5.76915 146.976 7.56336 146.978H222.128C223.922 146.976 225.642 146.261 226.911 144.99C228.18 143.719 228.893 141.995 228.896 140.197V117.062C228.894 115.264 228.18 113.54 226.912 112.268C225.643 110.997 223.922 110.281 222.128 110.279H7.56336Z" fill="#00AEEF"/>
<path d="M36.5558 32.5234C33.9522 32.5234 31.407 31.7498 29.2422 30.3003C27.0773 28.8508 25.39 26.7906 24.3937 24.3802C23.3973 21.9698 23.1366 19.3174 23.6446 16.7586C24.1525 14.1997 25.4063 11.8492 27.2473 10.0044C29.0884 8.15954 31.434 6.90318 33.9876 6.39419C36.5412 5.8852 39.1881 6.14643 41.5936 7.14485C43.999 8.14328 46.055 9.83404 47.5015 12.0033C48.948 14.1727 49.7201 16.7231 49.7201 19.3321C49.7201 22.8306 48.3331 26.1859 45.8644 28.6598C43.3956 31.1336 40.0472 32.5234 36.5558 32.5234Z" fill="#00AEEF"/>
<path d="M202.692 30.1021H62.1711C61.3264 30.1021 60.5164 29.7659 59.9191 29.1674C59.3219 28.5689 58.9863 27.7572 58.9863 26.9108C58.9863 26.0644 59.3219 25.2527 59.9191 24.6542C60.5164 24.0557 61.3264 23.7195 62.1711 23.7195H202.692C203.536 23.7195 204.346 24.0557 204.944 24.6542C205.541 25.2527 205.876 26.0644 205.876 26.9108C205.876 27.7572 205.541 28.5689 204.944 29.1674C204.346 29.7659 203.536 30.1021 202.692 30.1021Z" fill="#00AEEF"/>
<path d="M156.91 16.5395H62.1679C61.3232 16.5395 60.5132 16.2033 59.9159 15.6048C59.3187 15.0063 58.9832 14.1946 58.9832 13.3482C58.9832 12.5018 59.3187 11.6901 59.9159 11.0916C60.5132 10.4931 61.3232 10.1569 62.1679 10.1569H156.91C157.755 10.1569 158.565 10.4931 159.162 11.0916C159.759 11.6901 160.095 12.5018 160.095 13.3482C160.095 14.1946 159.759 15.0063 159.162 15.6048C158.565 16.2033 157.755 16.5395 156.91 16.5395Z" fill="#00AEEF"/>
<path d="M36.5558 87.1722C33.9522 87.1722 31.407 86.3985 29.2422 84.949C27.0773 83.4996 25.39 81.4394 24.3937 79.029C23.3973 76.6185 23.1366 73.9662 23.6446 71.4073C24.1525 68.8485 25.4063 66.498 27.2473 64.6532C29.0884 62.8083 31.434 61.552 33.9876 61.043C36.5412 60.534 39.1881 60.7952 41.5936 61.7936C43.999 62.7921 46.055 64.4828 47.5015 66.6521C48.948 68.8214 49.7201 71.3718 49.7201 73.9808C49.7201 77.4794 48.3331 80.8347 45.8644 83.3085C43.3956 85.7824 40.0472 87.1722 36.5558 87.1722Z" fill="#EAF2FC"/>
<path d="M202.692 84.7513H62.1711C61.3264 84.7513 60.5164 84.4151 59.9191 83.8166C59.3219 83.2181 58.9863 82.4064 58.9863 81.56C58.9863 80.7136 59.3219 79.9019 59.9191 79.3034C60.5164 78.7049 61.3264 78.3687 62.1711 78.3687H202.692C203.536 78.3687 204.346 78.7049 204.944 79.3034C205.541 79.9019 205.876 80.7136 205.876 81.56C205.876 82.4064 205.541 83.2181 204.944 83.8166C204.346 84.4151 203.536 84.7513 202.692 84.7513Z" fill="#EAF2FC"/>
<path d="M156.91 71.1887H62.1679C61.3232 71.1887 60.5132 70.8525 59.9159 70.254C59.3187 69.6555 58.9832 68.8438 58.9832 67.9974C58.9832 67.1511 59.3187 66.3393 59.9159 65.7409C60.5132 65.1424 61.3232 64.8062 62.1679 64.8062H156.91C157.755 64.8062 158.565 65.1424 159.162 65.7409C159.759 66.3393 160.095 67.1511 160.095 67.9974C160.095 68.8438 159.759 69.6555 159.162 70.254C158.565 70.8525 157.755 71.1887 156.91 71.1887Z" fill="#EAF2FC"/>
<path d="M36.5558 141.821C33.9522 141.821 31.407 141.048 29.2422 139.598C27.0773 138.149 25.39 136.089 24.3937 133.678C23.3973 131.268 23.1366 128.615 23.6446 126.057C24.1525 123.498 25.4063 121.147 27.2473 119.302C29.0884 117.458 31.434 116.201 33.9876 115.692C36.5412 115.183 39.1881 115.444 41.5936 116.443C43.999 117.441 46.055 119.132 47.5015 121.301C48.948 123.471 49.7201 126.021 49.7201 128.63C49.7201 132.129 48.3331 135.484 45.8644 137.958C43.3956 140.432 40.0472 141.821 36.5558 141.821Z" fill="#EAF2FC"/>
<path d="M202.692 139.4H62.1711C61.3264 139.4 60.5164 139.064 59.9191 138.466C59.3219 137.867 58.9863 137.056 58.9863 136.209C58.9863 135.363 59.3219 134.551 59.9191 133.953C60.5164 133.354 61.3264 133.018 62.1711 133.018H202.692C203.536 133.018 204.346 133.354 204.944 133.953C205.541 134.551 205.876 135.363 205.876 136.209C205.876 137.056 205.541 137.867 204.944 138.466C204.346 139.064 203.536 139.4 202.692 139.4Z" fill="#EAF2FC"/>
<path d="M156.91 125.838H62.1679C61.3232 125.838 60.5132 125.502 59.9159 124.903C59.3187 124.305 58.9832 123.493 58.9832 122.647C58.9832 121.8 59.3187 120.989 59.9159 120.39C60.5132 119.792 61.3232 119.455 62.1679 119.455H156.91C157.755 119.455 158.565 119.792 159.162 120.39C159.759 120.989 160.095 121.8 160.095 122.647C160.095 123.493 159.759 124.305 159.162 124.903C158.565 125.502 157.755 125.838 156.91 125.838Z" fill="#EAF2FC"/>
<path d="M35.8837 23.9721C35.5568 23.9729 35.2384 23.867 34.9769 23.6704L34.9605 23.6582L31.5484 21.0428C31.3904 20.9214 31.2577 20.77 31.1581 20.5972C31.0584 20.4245 30.9937 20.2337 30.9677 20.0359C30.9416 19.8381 30.9546 19.6371 31.0061 19.4443C31.0575 19.2515 31.1464 19.0708 31.2675 18.9125C31.3887 18.7541 31.5397 18.6212 31.7121 18.5214C31.8846 18.4215 32.0749 18.3567 32.2723 18.3305C32.4697 18.3044 32.6703 18.3175 32.8627 18.369C33.0551 18.4206 33.2354 18.5096 33.3934 18.631L35.6035 20.3294L40.8258 13.502C41.0704 13.1825 41.4316 12.9733 41.8301 12.9206C42.2285 12.8678 42.6316 12.9758 42.9506 13.2208L42.9184 13.2662L42.9515 13.2208C43.2701 13.4662 43.4785 13.8283 43.531 14.2275C43.5835 14.6268 43.4759 15.0306 43.2317 15.3504L37.089 23.3774C36.9466 23.562 36.7638 23.7113 36.5547 23.8137C36.3455 23.9161 36.1156 23.9689 35.8828 23.968L35.8837 23.9721Z" fill="white"/>
</g>
<defs>
<clipPath id="clip0_602_2439">
<rect width="287" height="332" fill="white" transform="translate(0 0.184814)"/>
</clipPath>
</defs>
</svg>
