<svg width="538" height="264" viewBox="0 0 538 264" fill="none" xmlns="http://www.w3.org/2000/svg">
<path d="M331.956 0.188232H0.141602V212.768H331.956V0.188232Z" fill="#EAF2FC"/>
<path d="M322.468 26.851H9.62988V107.888H322.468V26.851Z" fill="white"/>
<path d="M153.604 38.5564H87.4453V42.3554H153.604V38.5564Z" fill="#EAF2FC"/>
<path d="M189.608 52.4139H87.4453V56.2129H189.608V52.4139Z" fill="#00AEEF"/>
<path d="M170.706 65.4701H87.4453V69.2691H170.706V65.4701Z" fill="#EAF2FC"/>
<path d="M136.051 78.4768H87.4453V82.2758H136.051V78.4768Z" fill="#EAF2FC"/>
<path d="M160.805 91.4833H87.4453V95.2823H160.805V91.4833Z" fill="#EAF2FC"/>
<path d="M65.3925 37.2058H57.2915V45.3095H65.3925V37.2058Z" fill="#EAF2FC"/>
<path d="M65.3925 50.2617H57.2915V58.3654H65.3925V50.2617Z" fill="#00AEEF"/>
<path d="M65.3925 63.3176H57.2915V71.4214H65.3925V63.3176Z" fill="#EAF2FC"/>
<path d="M65.3925 76.3738H57.2915V84.4775H65.3925V76.3738Z" fill="#EAF2FC"/>
<path d="M65.3925 89.4297H57.2915V97.5334H65.3925V89.4297Z" fill="#EAF2FC"/>
<path d="M278.719 55.6643H251.716V82.6767H278.719V55.6643Z" fill="#EAF2FC"/>
<path d="M322.468 119.143H9.62988V200.18H322.468V119.143Z" fill="white"/>
<path d="M79.3444 126.346H71.2434V134.449H79.3444V126.346Z" fill="#EAF2FC"/>
<path d="M65.3925 126.346H57.2915V134.449H65.3925V126.346Z" fill="#00AEEF"/>
<path d="M194.646 144.067C192.176 139.885 188.75 136.35 184.649 133.751C180.548 131.152 175.889 129.563 171.055 129.117C166.22 128.67 161.349 129.377 156.841 131.181C152.333 132.984 148.318 135.832 145.125 139.491L143.151 137.765C146.616 133.793 150.974 130.701 155.867 128.743C160.76 126.785 166.048 126.017 171.295 126.501C176.543 126.986 181.6 128.71 186.052 131.532C190.504 134.353 194.222 138.191 196.902 142.731L194.646 144.067Z" fill="#EAF2FC"/>
<path d="M195.881 178.232L193.705 176.768C196.928 171.96 198.726 166.339 198.892 160.553C199.059 154.767 197.586 149.052 194.646 144.067L196.902 142.731C200.095 148.142 201.694 154.347 201.513 160.629C201.332 166.91 199.38 173.012 195.881 178.232Z" fill="#00AEEF"/>
<path d="M143.424 181.885C138.005 175.831 134.986 168.003 134.935 159.877C134.885 151.75 137.807 143.886 143.151 137.765L145.125 139.491C140.202 145.13 137.511 152.374 137.557 159.861C137.603 167.347 140.384 174.558 145.377 180.135L143.424 181.885Z" fill="#00AEEF"/>
<path d="M168.231 192.978C163.549 192.975 158.921 191.985 154.646 190.074C150.372 188.163 146.549 185.373 143.424 181.885L145.377 180.135C148.494 183.619 152.365 186.344 156.696 188.103C161.027 189.861 165.702 190.606 170.365 190.282C175.027 189.957 179.554 188.57 183.599 186.228C187.644 183.886 191.101 180.65 193.705 176.768L195.881 178.231C192.837 182.772 188.722 186.493 183.9 189.065C179.077 191.637 173.696 192.981 168.231 192.978Z" fill="#00AEEF"/>
<path d="M278.719 143.905H251.716V170.917H278.719V143.905Z" fill="#EAF2FC"/>
<path d="M83.1699 161.463H56.1665V188.475H83.1699V161.463Z" fill="#EAF2FC"/>
<path d="M331.815 0H0V14.1014H331.815V0Z" fill="#00AEEF"/>
<path d="M10.4755 9.823C11.9185 9.823 13.0882 8.65286 13.0882 7.20941C13.0882 5.76597 11.9185 4.59583 10.4755 4.59583C9.03255 4.59583 7.86279 5.76597 7.86279 7.20941C7.86279 8.65286 9.03255 9.823 10.4755 9.823Z" fill="white"/>
<path d="M20.3927 9.823C21.8357 9.823 23.0055 8.65286 23.0055 7.20941C23.0055 5.76597 21.8357 4.59583 20.3927 4.59583C18.9498 4.59583 17.78 5.76597 17.78 7.20941C17.78 8.65286 18.9498 9.823 20.3927 9.823Z" fill="white"/>
<path d="M30.31 9.823C31.7529 9.823 32.9227 8.65286 32.9227 7.20941C32.9227 5.76597 31.7529 4.59583 30.31 4.59583C28.867 4.59583 27.6973 5.76597 27.6973 7.20941C27.6973 8.65286 28.867 9.823 30.31 9.823Z" fill="white"/>
<path d="M470.035 256.303H477.342L480.819 230.134L470.033 230.135L470.035 256.303Z" fill="#FFB8B8"/>
<path d="M468.492 254.764L482.608 254.764H482.608C484.994 254.764 487.282 255.628 488.969 257.166C490.656 258.703 491.604 260.789 491.604 262.963V263.23L468.493 263.23L468.492 254.764Z" fill="#2F2E41"/>
<path d="M453.085 230.801L458.166 235.522L478.508 217.859L471.008 210.892L453.085 230.801Z" fill="#FFB8B8"/>
<path d="M453.078 227.825L463.309 236.969L463.309 236.97C465.038 238.515 466.068 240.669 466.173 242.957C466.277 245.244 465.447 247.479 463.866 249.169L463.672 249.376L446.922 234.404L453.078 227.825Z" fill="#2F2E41"/>
<path d="M481.645 162.407L479.628 202.014L484.671 245.087L469.543 247.067L459.963 192.607L456.937 155.475L481.645 162.407Z" fill="#2F2E41"/>
<path d="M504.058 148.033C504.058 148.033 509.948 187.081 497.677 199.933C485.406 212.785 468.717 235.522 468.717 235.522L456.937 220.693L486.878 188.564L480.988 166.816L456.937 155.447L460.864 128.261L496.204 127.767L504.058 148.033Z" fill="#2F2E41"/>
<path d="M477.352 58.4957C483.947 58.4957 489.293 53.1544 489.293 46.5656C489.293 39.9769 483.947 34.6356 477.352 34.6356C470.757 34.6356 465.411 39.9769 465.411 46.5656C465.411 53.1544 470.757 58.4957 477.352 58.4957Z" fill="#FFB8B8"/>
<path d="M487.738 63.1136L489.633 65.9146L494.685 79.7137L490.644 133.431L466.901 133.924L463.87 72.3212L470.219 64.5786L487.738 63.1136Z" fill="#00AEEF"/>
<path d="M454.263 73.6125L450.275 73.1195C450.275 73.1195 449.278 73.6125 448.78 77.0635C448.281 80.5145 442.3 111.08 442.3 111.08L450.275 148.548L459.248 136.716L453.765 116.01L459.248 95.3044L454.263 73.6125Z" fill="#2F2E41"/>
<path d="M504.911 73.1195H507.712L514.716 113.383L508.179 144.7L501.642 133.267L503.51 120.839L502.576 109.904L499.308 103.441L504.911 73.1195Z" fill="#2F2E41"/>
<path d="M484.784 46.6163L482.56 46.0618C482.56 46.0618 480.892 36.6344 477 37.7435C473.108 38.8526 463.1 39.9617 463.1 35.5252C463.1 31.0888 472.552 27.2069 478.112 27.7615C483.672 28.316 490.772 30.1557 492.567 38.298C495.445 51.3504 486.631 54.6473 486.631 54.6473L486.777 54.172C487.185 52.8525 487.214 51.4456 486.861 50.1104C486.509 48.7752 485.789 47.565 484.784 46.6163Z" fill="#2F2E41"/>
<path d="M450.774 72.9591L466.668 66.5407L470.393 63.8252L481.569 112.951L489.019 90.7332L486.784 62.344L507.397 72.9591L500.443 106.532L499.45 119.369L502.43 129.738C502.43 129.738 512.86 137.143 509.384 145.043C505.907 152.943 501.933 153.436 501.933 153.436C501.933 153.436 485.046 137.637 484.052 133.687C483.059 129.738 481.569 122.825 481.569 122.825C481.569 122.825 473.125 154.424 463.191 153.93C453.257 153.436 453.257 143.068 453.257 143.068L455.741 132.206L459.714 120.85L457.727 102.089L450.774 72.9591Z" fill="#2F2E41"/>
<path d="M536.731 264H243.096C242.805 264 242.526 263.959 242.321 263.887C242.115 263.815 242 263.717 242 263.615C242 263.513 242.115 263.415 242.321 263.343C242.526 263.271 242.805 263.23 243.096 263.23H536.731C537.022 263.23 537.301 263.271 537.506 263.343C537.712 263.415 537.827 263.513 537.827 263.615C537.827 263.717 537.712 263.815 537.506 263.887C537.301 263.959 537.022 264 536.731 264Z" fill="#EAF2FC"/>
</svg>
