<svg width="208" height="190" viewBox="0 0 208 190" fill="none" xmlns="http://www.w3.org/2000/svg">
<g clip-path="url(#clip0_739_2559)">
<path d="M165.665 133.545C165.665 133.545 191.397 134.879 185.403 142.999C179.41 151.119 163.661 138.235 163.661 138.235L165.665 133.545Z" fill="#FFB8B8"/>
<path d="M118.244 56.2031L123.482 57.5157C123.482 57.5157 126.537 66.7037 128.72 75.0167C130.902 83.3297 135.267 108.269 135.267 108.269L169.105 132.041L165.069 141.091L119.99 123.282L109.951 83.7672L118.244 56.2031Z" fill="#BFDBFF"/>
<path opacity="0.2" d="M123.172 72.512L121.22 113.491L125.294 125.674L113.361 116.902L123.172 72.512Z" fill="black"/>
<path d="M130.247 145.24C130.247 145.24 135.922 160.553 136.795 171.054C137.667 181.554 138.54 189.867 138.54 189.867H111.915L106.678 181.992V189.867H75.6881C75.6881 189.867 66.9586 161.428 70.4504 157.928C73.9422 154.428 107.114 139.552 107.114 139.552L130.247 145.24Z" fill="#2F2E41"/>
<path d="M180.98 189.468H26.915V190H180.98V189.468Z" fill="#002E6A"/>
<path d="M96.857 39.5771C106.017 39.5771 113.443 32.1334 113.443 22.9512C113.443 13.7689 106.017 6.3252 96.857 6.3252C87.6968 6.3252 80.271 13.7689 80.271 22.9512C80.271 32.1334 87.6968 39.5771 96.857 39.5771Z" fill="#FFB8B8"/>
<path d="M84.1991 29.9517L82.8896 49.2028L99.4757 71.5165L107.769 50.5153C107.769 50.5153 100.349 45.7026 104.713 35.6395L84.1991 29.9517Z" fill="#FFB8B8"/>
<path d="M132.647 148.958C132.647 152.897 121.735 159.022 121.735 159.022V161.209L117.37 163.397L107.768 144.147L105.151 165.146C105.151 165.146 85.9448 168.211 79.8352 165.146C73.723 162.084 70.6682 163.397 61.9388 160.335C53.2094 157.273 65.4311 116.144 65.4311 116.144L56.7017 52.703L75.7728 43.1445L76.7778 42.6394L79.4003 42.1556L83.4203 41.4114L96.8566 50.5154L97.9385 56.2037L98.6041 59.7044L102.094 55.7651L104.73 47.0758L123.482 57.5168L118.245 99.5175C118.245 99.5175 132.647 145.021 132.647 148.958Z" fill="#BFDBFF"/>
<path d="M68.4863 162.522C68.4863 162.522 88.5641 178.71 78.9617 181.773C69.3593 184.836 64.1216 165.147 64.1216 165.147L68.4863 162.522Z" fill="#FFB8B8"/>
<path d="M61.0659 53.5779L56.7012 52.7029C56.7012 52.7029 50.1541 56.2031 49.7176 63.2035C49.2811 70.2039 43.6069 119.207 43.6069 119.207L61.9389 168.647L76.779 162.959L62.3753 116.582L73.2872 76.3292L61.0659 53.5779Z" fill="#BFDBFF"/>
<path d="M98.7766 66.93C99.6553 66.93 100.368 66.2159 100.368 65.3351C100.368 64.4543 99.6553 63.7402 98.7766 63.7402C97.8979 63.7402 97.1855 64.4543 97.1855 65.3351C97.1855 66.2159 97.8979 66.93 98.7766 66.93Z" fill="#2F2E41"/>
<path d="M98.7766 77.2967C99.6553 77.2967 100.368 76.5826 100.368 75.7018C100.368 74.821 99.6553 74.1069 98.7766 74.1069C97.8979 74.1069 97.1855 74.821 97.1855 75.7018C97.1855 76.5826 97.8979 77.2967 98.7766 77.2967Z" fill="#2F2E41"/>
<path d="M107.792 145.61C108.671 145.61 109.383 144.896 109.383 144.015C109.383 143.134 108.671 142.42 107.792 142.42C106.914 142.42 106.201 143.134 106.201 144.015C106.201 144.896 106.914 145.61 107.792 145.61Z" fill="#2F2E41"/>
<path d="M82.8536 5.91868L79.7876 4.68826C79.7876 4.68826 86.1983 -2.38662 95.1177 -1.77139L92.6091 -4.53984C92.6091 -4.53984 98.7411 -7.00064 104.316 -0.540993C107.246 2.85469 110.637 6.84616 112.75 11.3425H116.034L114.663 14.3672L119.46 17.392L114.537 16.8487C114.83 18.5051 114.875 20.1961 114.67 21.8658C114.459 23.536 113.609 25.0587 112.299 26.1124C112.299 26.1124 108.497 18.2228 108.497 16.9924V20.0684C108.497 20.0684 105.431 17.3 105.431 15.4544L103.758 17.6076H92.6091L94.2815 14.8392L87.8707 15.762L90.3793 12.3783L80.4537 26.3506C80.4537 26.3506 74.7705 10.5327 82.8536 5.91868Z" fill="#2F2E41"/>
<path opacity="0.4" d="M207.5 96.9501C207.5 111.355 195.851 123.031 181.483 123.031C167.115 123.031 155.466 111.355 155.466 96.9501C155.466 82.5449 167.115 70.8691 181.483 70.8691C195.851 70.8691 207.5 82.5449 207.5 96.9501Z" fill="#EAF2FC" stroke="#002E6A"/>
<path opacity="0.1" d="M181.483 119.81C194.078 119.81 204.288 109.575 204.288 96.9502C204.288 84.3252 194.078 74.0906 181.483 74.0906C168.888 74.0906 158.678 84.3252 158.678 96.9502C158.678 109.575 168.888 119.81 181.483 119.81Z" fill="#002E6A"/>
<path d="M180.39 110.439V107.112C178.712 107.079 176.976 106.486 175.964 105.663L176.658 103.456C177.861 104.359 179.32 104.856 180.824 104.872C182.878 104.872 184.266 103.521 184.266 101.644C184.266 99.8319 183.138 98.712 180.997 97.7236C178.047 96.406 176.224 94.8906 176.224 92.0247C176.224 89.2904 177.931 87.2151 180.592 86.721V83.3938H182.386V86.5892C183.723 86.6075 185.028 87.0074 186.147 87.7421L185.423 89.9164C184.35 89.1801 183.079 88.7893 181.778 88.7963C179.551 88.7963 178.712 90.3116 178.712 91.6294C178.712 93.3423 179.782 94.1988 182.299 95.3848C185.279 96.7684 186.783 98.4813 186.783 101.413C186.783 104.016 185.192 106.453 182.212 107.013V110.439H180.39Z" fill="#00AEEF"/>
<path opacity="0.2" d="M66.2944 129.2L76.9 162.408L68.4145 127.853L66.2944 129.2Z" fill="black"/>
<path d="M12.2228 64.3242H5.49093C5.19753 64.3238 4.91624 64.2068 4.70877 63.9989C4.5013 63.7909 4.3846 63.5089 4.38428 63.2148V53.5146C4.3846 53.2205 4.5013 52.9385 4.70877 52.7305C4.91624 52.5226 5.19753 52.4056 5.49093 52.4053H12.2228C12.5162 52.4056 12.7975 52.5226 13.0049 52.7305C13.2124 52.9385 13.3291 53.2205 13.3294 53.5146V63.2148C13.3291 63.5089 13.2124 63.7909 13.0049 63.9989C12.7975 64.2068 12.5162 64.3238 12.2228 64.3242ZM5.49093 52.9369C5.33814 52.9371 5.19166 52.998 5.08362 53.1063C4.97558 53.2146 4.91481 53.3614 4.91462 53.5146V63.2148C4.91481 63.368 4.97558 63.5148 5.08362 63.6231C5.19166 63.7314 5.33814 63.7923 5.49093 63.7925H12.2228C12.3756 63.7923 12.522 63.7314 12.6301 63.6231C12.7381 63.5148 12.7989 63.368 12.7991 63.2148V53.5146C12.7989 53.3614 12.7381 53.2146 12.6301 53.1063C12.522 52.998 12.3756 52.9371 12.2228 52.9369H5.49093Z" fill="#002E6A"/>
<path d="M24.5185 64.3241H18.4393C18.0594 64.3236 17.6952 64.1722 17.4265 63.9029C17.1579 63.6336 17.0068 63.2685 17.0063 62.8877V43.2977C17.0068 42.9169 17.1579 42.5518 17.4265 42.2825C17.6952 42.0133 18.0594 41.8618 18.4393 41.8613H24.5185C24.8985 41.8618 25.2627 42.0133 25.5313 42.2825C25.7999 42.5518 25.951 42.9169 25.9515 43.2977V62.8877C25.951 63.2685 25.7999 63.6336 25.5313 63.9029C25.2627 64.1722 24.8985 64.3236 24.5185 64.3241ZM18.4393 42.3929C18.2 42.3932 17.9706 42.4886 17.8013 42.6582C17.6321 42.8279 17.537 43.0578 17.5367 43.2977V62.8877C17.537 63.1276 17.6321 63.3575 17.8013 63.5272C17.9706 63.6968 18.2 63.7922 18.4393 63.7925H24.5185C24.7579 63.7922 24.9873 63.6968 25.1565 63.5272C25.3257 63.3575 25.4209 63.1276 25.4211 62.8877V43.2977C25.4209 43.0578 25.3257 42.8279 25.1565 42.6582C24.9873 42.4886 24.7579 42.3932 24.5185 42.3929L18.4393 42.3929Z" fill="#002E6A"/>
<path d="M36.9059 64.3241H31.2961C30.854 64.3236 30.4301 64.1474 30.1174 63.834C29.8048 63.5206 29.6289 63.0957 29.6284 62.6524V33.8328C29.6289 33.3896 29.8048 32.9647 30.1174 32.6513C30.4301 32.3379 30.854 32.1616 31.2961 32.1611H36.9059C37.348 32.1616 37.7719 32.3379 38.0846 32.6513C38.3972 32.9647 38.5731 33.3896 38.5736 33.8328V62.6524C38.5731 63.0957 38.3972 63.5206 38.0846 63.834C37.7719 64.1474 37.348 64.3236 36.9059 64.3241ZM31.2961 32.6928C30.9946 32.6931 30.7055 32.8133 30.4923 33.0271C30.279 33.2408 30.1591 33.5306 30.1588 33.8328V62.6524C30.1591 62.9547 30.279 63.2445 30.4923 63.4582C30.7055 63.672 30.9946 63.7922 31.2961 63.7925H36.9059C37.2074 63.7922 37.4965 63.672 37.7097 63.4582C37.9229 63.2445 38.0429 62.9547 38.0432 62.6524V33.8328C38.0429 33.5306 37.9229 33.2408 37.7097 33.0271C37.4965 32.8133 37.2074 32.6931 36.9059 32.6928H31.2961Z" fill="#002E6A"/>
<path d="M11.3814 54.2527H6.33252V62.4768H11.3814V54.2527Z" fill="#00AEEF"/>
<path d="M24.0035 43.8142H18.9546V62.4767H24.0035V43.8142Z" fill="#00AEEF"/>
<path d="M36.6255 34.114H31.5767V62.4768H36.6255V34.114Z" fill="#00AEEF"/>
<path d="M191.719 33.7561H156.451C156.416 33.7561 156.382 33.7492 156.35 33.7358C156.318 33.7225 156.288 33.7029 156.264 33.6782C156.239 33.6535 156.22 33.6242 156.206 33.592C156.193 33.5597 156.186 33.5252 156.186 33.4902V-2.3941C156.186 -2.4646 156.214 -2.53221 156.264 -2.58206C156.313 -2.63191 156.381 -2.65991 156.451 -2.65991C156.522 -2.65991 156.589 -2.63191 156.639 -2.58206C156.688 -2.53221 156.716 -2.4646 156.716 -2.3941V33.2244H191.719C191.789 33.2244 191.857 33.2524 191.907 33.3023C191.956 33.3521 191.984 33.4198 191.984 33.4902C191.984 33.5607 191.956 33.6284 191.907 33.6782C191.857 33.7281 191.789 33.7561 191.719 33.7561Z" fill="#002E6A"/>
<path d="M42.1623 68.0455H0.265172C0.230346 68.0456 0.195861 68.0387 0.163685 68.0253C0.131509 68.012 0.102272 67.9924 0.0776465 67.9677C0.0530213 67.943 0.0334892 67.9137 0.0201663 67.8815C0.00684335 67.8492 -9.04916e-06 67.8146 8.96866e-09 67.7797V26.0475C8.96866e-09 25.9771 0.0279374 25.9094 0.0776668 25.8596C0.127396 25.8097 0.194844 25.7817 0.265172 25.7817C0.335499 25.7817 0.402947 25.8097 0.452676 25.8596C0.502406 25.9094 0.530343 25.9771 0.530343 26.0475V67.5139H42.1623C42.2326 67.5139 42.3001 67.5419 42.3498 67.5918C42.3995 67.6416 42.4275 67.7092 42.4275 67.7797C42.4275 67.8502 42.3995 67.9178 42.3498 67.9677C42.3001 68.0175 42.2326 68.0455 42.1623 68.0455Z" fill="#002E6A"/>
<path d="M168.622 30.4247H161.89C161.597 30.4244 161.316 30.3075 161.108 30.0995C160.901 29.8915 160.784 29.6096 160.784 29.3154V19.6152C160.784 19.321 160.901 19.0391 161.108 18.8311C161.316 18.6231 161.597 18.5062 161.89 18.5059H168.622C168.916 18.5062 169.197 18.6232 169.404 18.8312C169.612 19.0391 169.729 19.3211 169.729 19.6152V29.3154C169.729 29.6095 169.612 29.8915 169.404 30.0994C169.197 30.3074 168.916 30.4244 168.622 30.4247ZM161.89 19.0375C161.738 19.0377 161.591 19.0986 161.483 19.2069C161.375 19.3152 161.314 19.462 161.314 19.6152V29.3154C161.314 29.4686 161.375 29.6154 161.483 29.7237C161.591 29.832 161.738 29.893 161.89 29.8931H168.622C168.775 29.8929 168.922 29.832 169.03 29.7237C169.138 29.6154 169.198 29.4686 169.198 29.3154V19.6152C169.198 19.462 169.138 19.3152 169.03 19.2069C168.922 19.0986 168.775 19.0377 168.622 19.0375H161.89Z" fill="#002E6A"/>
<path d="M182.409 30.4246H176.212C175.848 30.4242 175.499 30.2789 175.241 30.0206C174.983 29.7622 174.838 29.412 174.838 29.0467V11.4767C174.838 11.1114 174.983 10.7612 175.241 10.5029C175.499 10.2446 175.848 10.0993 176.212 10.0989H182.409C182.773 10.0993 183.122 10.2446 183.38 10.5029C183.638 10.7612 183.783 11.1114 183.783 11.4767V29.0467C183.783 29.412 183.638 29.7622 183.38 30.0206C183.122 30.2789 182.773 30.4242 182.409 30.4246ZM176.212 10.6305C175.989 10.6307 175.774 10.72 175.616 10.8786C175.457 11.0373 175.368 11.2524 175.368 11.4767V29.0467C175.368 29.271 175.457 29.4862 175.616 29.6449C175.774 29.8035 175.989 29.8928 176.212 29.893H182.409C182.632 29.8928 182.847 29.8035 183.005 29.6449C183.163 29.4862 183.252 29.271 183.253 29.0467V11.4767C183.252 11.2524 183.163 11.0373 183.005 10.8786C182.847 10.72 182.632 10.6307 182.409 10.6305H176.212Z" fill="#002E6A"/>
<path d="M167.66 20.4453H162.611V28.6695H167.66V20.4453Z" fill="#00AEEF"/>
<path d="M181.835 12.3057H176.786V28.218H181.835V12.3057Z" fill="#00AEEF"/>
<path d="M165.202 15.6808C166.52 15.6808 167.589 14.6098 167.589 13.2885C167.589 11.9673 166.52 10.8962 165.202 10.8962C163.884 10.8962 162.815 11.9673 162.815 13.2885C162.815 14.6098 163.884 15.6808 165.202 15.6808Z" fill="#00AEEF"/>
<path d="M179.256 6.64347C180.574 6.64347 181.643 5.5724 181.643 4.25118C181.643 2.92995 180.574 1.85889 179.256 1.85889C177.938 1.85889 176.87 2.92995 176.87 4.25118C176.87 5.5724 177.938 6.64347 179.256 6.64347Z" fill="#00AEEF"/>
</g>
<defs>
<clipPath id="clip0_739_2559">
<rect width="208" height="195" fill="white" transform="translate(0 -5)"/>
</clipPath>
</defs>
</svg>
