<svg width="61" height="61" viewBox="0 0 61 61" fill="none" xmlns="http://www.w3.org/2000/svg">
<circle opacity="0.88" cx="30.1205" cy="30.4777" r="29.6205" fill="url(#paint0_radial_602_2082)" fill-opacity="0.7" stroke="#002E6A"/>
<path d="M22.4202 25.0361L18.5969 36.1279H16.2854L21.1018 23.3311H22.5784L22.4202 25.0361ZM25.6194 36.1279L21.7874 25.0361L21.6204 23.3311H23.1057L27.9397 36.1279H25.6194ZM25.4348 31.3818V33.1309H18.4739V31.3818H25.4348ZM34.2327 31.3555H30.9016V29.6064H34.2327C34.8127 29.6064 35.2815 29.5127 35.6389 29.3252C35.9963 29.1377 36.2571 28.8799 36.4211 28.5518C36.5911 28.2178 36.676 27.8369 36.676 27.4092C36.676 27.0049 36.5911 26.627 36.4211 26.2754C36.2571 25.918 35.9963 25.6309 35.6389 25.4141C35.2815 25.1973 34.8127 25.0889 34.2327 25.0889H31.5784V36.1279H29.3723V23.3311H34.2327C35.2229 23.3311 36.0637 23.5068 36.7551 23.8584C37.4524 24.2041 37.9827 24.6846 38.3459 25.2998C38.7092 25.9092 38.8909 26.6064 38.8909 27.3916C38.8909 28.2178 38.7092 28.9268 38.3459 29.5186C37.9827 30.1104 37.4524 30.5645 36.7551 30.8809C36.0637 31.1973 35.2229 31.3555 34.2327 31.3555ZM43.2239 23.3311V36.1279H41.0178V23.3311H43.2239Z" fill="black"/>
<rect x="16.136" y="40.1592" width="2.15147" height="2.15147" rx="0.5" fill="black"/>
<rect x="20.439" y="40.1592" width="2.15147" height="2.15147" rx="0.5" fill="black"/>
<rect x="24.7419" y="40.1592" width="2.15147" height="2.15147" rx="0.5" fill="black"/>
<rect x="29.0449" y="40.1592" width="2.15147" height="2.15147" rx="0.5" fill="black"/>
<rect x="33.3479" y="40.1592" width="2.15147" height="2.15147" rx="0.5" fill="black"/>
<rect x="37.6506" y="40.1592" width="2.15147" height="2.15147" rx="0.5" fill="black"/>
<rect x="41.9536" y="40.1592" width="2.15147" height="2.15147" rx="0.5" fill="black"/>
<defs>
<radialGradient id="paint0_radial_602_2082" cx="0" cy="0" r="1" gradientUnits="userSpaceOnUse" gradientTransform="translate(30.1205 30.4777) rotate(90) scale(30.1205)">
<stop offset="0.916667" stop-color="#00AEEF"/>
<stop offset="1" stop-color="white" stop-opacity="0.36"/>
</radialGradient>
</defs>
</svg>
