<svg width="153" height="28" viewBox="0 0 153 28" fill="none" xmlns="http://www.w3.org/2000/svg">
<path fill-rule="evenodd" clip-rule="evenodd" d="M21.3426 23.9531L27.9867 23.95C35.0872 23.9464 39.1401 19.3973 39.1401 13.9984C39.1401 8.57039 35.324 4.0469 28.0459 4.0469H25.6018C25.4699 4.0469 25.3569 4.09746 25.2695 4.1945C25.1823 4.29203 25.1453 4.40895 25.1616 4.53763L25.5116 7.33995C25.5391 7.56016 25.7264 7.72406 25.9515 7.72406H27.898C32.4834 7.72406 34.8209 10.2923 34.8209 13.9984C34.8209 17.442 32.6602 20.2714 27.898 20.2726L24.9925 20.2743C24.7671 20.2743 24.5796 20.1108 24.5519 19.8902L22.6217 4.431C22.5938 4.2108 22.4065 4.0469 22.1816 4.0469H18.2574C18.0592 4.0469 17.8908 4.16958 17.833 4.35696L15.0296 13.4442C14.7041 14.4947 14.2306 16.0124 13.9644 17.0917H13.8461C13.5799 16.0124 13.1361 14.5527 12.7812 13.4442L9.91948 4.35457C9.86118 4.16862 9.69333 4.0469 9.49609 4.0469H5.54248C5.31682 4.0469 5.12857 4.21127 5.10209 4.43268L2.81096 23.4607C2.79565 23.5891 2.83258 23.7061 2.92003 23.8029C3.00723 23.9002 3.12018 23.95 3.2516 23.95H6.16846C6.3968 23.95 6.58602 23.7813 6.60934 23.5573L7.60406 13.9984C7.7226 12.7143 7.87029 11.1096 7.92908 9.79627H8.16591C8.46153 11.2848 8.93521 12.802 9.31998 14.0567L12.2135 23.6375C12.2704 23.8256 12.4392 23.95 12.6384 23.95H14.9353C15.1345 23.95 15.3036 23.8256 15.3602 23.637L18.1952 14.2026C18.6091 12.831 19.0529 11.0801 19.4078 9.79627H19.5856C19.6743 10.9632 19.8516 12.8605 19.9998 14.1738L20.976 23.95H21.3423L21.3426 23.9531ZM2.5644 0H39.383C40.7936 0 41.9479 1.13866 41.9479 2.53012V25.4704C41.9479 26.8618 40.7936 28 39.383 28H2.5644C1.15431 28 0 26.8618 0 25.4704V2.53012C0 1.13866 1.15431 0 2.5644 0Z" fill="#00AEEF"/>
<path fill-rule="evenodd" clip-rule="evenodd" d="M59.8359 4.04688H48.6525C48.4082 4.04688 48.209 4.24336 48.209 4.48417V23.5124C48.209 23.7532 48.4082 23.9497 48.6525 23.9497H51.9964C52.2406 23.9497 52.4398 23.7532 52.4398 23.5124V16.3328C52.4398 16.092 52.6389 15.8952 52.8831 15.8952H59.5403C59.7844 15.8952 59.9838 15.6987 59.9838 15.4577V12.889C59.9838 12.6482 59.7844 12.4517 59.5403 12.4517H52.8831C52.6389 12.4517 52.4398 12.2552 52.4398 12.0144V8.10311C52.4398 7.8623 52.6389 7.66581 52.8831 7.66581H59.8359C60.08 7.66581 60.2792 7.46932 60.2792 7.22827V4.48417C60.2792 4.24336 60.08 4.04688 59.8359 4.04688Z" fill="white"/>
<path fill-rule="evenodd" clip-rule="evenodd" d="M63.8632 7.8115H67.1775C67.4216 7.8115 67.6208 7.61501 67.6208 7.37396V4.48417C67.6208 4.24336 67.4216 4.04688 67.1775 4.04688H63.8632C63.6191 4.04688 63.4199 4.24336 63.4199 4.48417V7.37396C63.4199 7.61501 63.6191 7.8115 63.8632 7.8115Z" fill="#00AEEF"/>
<path fill-rule="evenodd" clip-rule="evenodd" d="M63.7705 23.9502H66.8775C67.1216 23.9502 67.3208 23.7538 67.3208 23.5129V10.409C67.3208 10.1682 67.1216 9.97168 66.8775 9.97168H63.7705C63.5263 9.97168 63.3271 10.1682 63.3271 10.409V23.5129C63.3271 23.7538 63.5263 23.9502 63.7705 23.9502Z" fill="white"/>
<path fill-rule="evenodd" clip-rule="evenodd" d="M71.4326 23.95H74.5396C74.7838 23.95 74.9829 23.7535 74.9829 23.5127V16.5667C74.9829 14.2321 76.2555 13.0062 78.0006 13.0062C79.658 13.0062 80.6632 14.0862 80.6632 16.1874V23.5127C80.6632 23.7535 80.8623 23.95 81.1067 23.95H84.214C84.4584 23.95 84.6573 23.7535 84.6573 23.5127V15.9248C84.6573 11.6349 82.4381 9.53369 79.2431 9.53369C77.6166 9.53369 76.0187 10.1756 75.0427 11.7226H74.9242V10.4088C74.9242 10.168 74.725 9.97147 74.4806 9.97147H71.4326C71.1884 9.97147 70.9893 10.168 70.9893 10.4088V23.5127C70.9893 23.7535 71.1884 23.95 71.4326 23.95Z" fill="white"/>
<path fill-rule="evenodd" clip-rule="evenodd" d="M91.2844 16.9754C91.2844 14.9616 92.4676 12.9481 94.9528 12.9481C96.9352 12.9481 98.4733 14.5528 98.4733 17.0044C98.4733 19.3679 96.8167 21.0024 94.9232 21.0024C92.4385 21.0024 91.2844 19.0181 91.2844 16.9754ZM101.817 9.97135H98.8579C98.6135 9.97135 98.4143 10.1678 98.4143 10.4089V11.7807H98.2958C97.5267 10.6718 96.1956 9.5918 93.9768 9.5918C90.3677 9.5918 87.2314 12.4516 87.2314 16.9459C87.2314 22.2283 90.9293 24.4169 93.6805 24.4169C95.9881 24.4169 97.379 23.3954 98.2958 22.199H98.4143V23.5126C98.4143 23.7537 98.6135 23.9501 98.8579 23.9501H101.817C102.061 23.9501 102.261 23.7537 102.261 23.5126V10.4089C102.261 10.1678 102.061 9.97135 101.817 9.97135Z" fill="white"/>
<path fill-rule="evenodd" clip-rule="evenodd" d="M106.431 23.95H109.538C109.782 23.95 109.981 23.7535 109.981 23.5127V16.5667C109.981 14.2321 111.254 13.0062 112.999 13.0062C114.656 13.0062 115.661 14.0862 115.661 16.1874V23.5127C115.661 23.7535 115.86 23.95 116.105 23.95H119.212C119.456 23.95 119.655 23.7535 119.655 23.5127V15.9248C119.655 11.6349 117.436 9.53369 114.241 9.53369C112.615 9.53369 111.017 10.1756 110.041 11.7226H109.922V10.4088C109.922 10.168 109.723 9.97147 109.479 9.97147H106.431C106.186 9.97147 105.987 10.168 105.987 10.4088V23.5127C105.987 23.7535 106.186 23.95 106.431 23.95Z" fill="white"/>
<path fill-rule="evenodd" clip-rule="evenodd" d="M129.773 9.50439C125.099 9.50439 122.229 12.8312 122.229 16.9165C122.229 21.4987 125.602 24.446 129.803 24.446C133.495 24.446 135.622 22.3443 136.542 19.7456C136.591 19.6076 136.571 19.4677 136.485 19.3481C136.399 19.2285 136.271 19.1638 136.123 19.1638H132.968C132.791 19.1638 132.64 19.259 132.566 19.4169C132.135 20.3298 131.272 21.0904 129.862 21.0904C127.584 21.0904 126.283 19.2515 126.283 16.946C126.283 14.4944 127.584 12.8312 129.744 12.8312C131.047 12.8312 131.976 13.4209 132.395 14.3516C132.467 14.5133 132.621 14.6114 132.8 14.6114H135.896C136.041 14.6114 136.165 14.5498 136.252 14.4352C136.338 14.3209 136.362 14.1858 136.321 14.049C135.657 11.8541 133.505 9.50439 129.773 9.50439Z" fill="white"/>
<path fill-rule="evenodd" clip-rule="evenodd" d="M144.913 12.4057C146.753 12.4057 148.077 13.4438 148.494 14.8008C148.536 14.935 148.505 15.0651 148.409 15.1756C148.312 15.2856 148.175 15.3447 148.017 15.3447H141.805C141.646 15.3447 141.51 15.286 141.413 15.1765C141.316 15.0674 141.286 14.9373 141.326 14.8037C141.717 13.4994 142.995 12.4057 144.913 12.4057ZM144.946 9.69727C139.797 9.69727 136.826 13.0106 136.826 16.9582C136.826 21.4528 140.524 24.4494 145.243 24.4494C149.028 24.4494 151.31 22.7793 152.461 20.7203C152.538 20.5822 152.528 20.4322 152.435 20.3021C152.342 20.1722 152.192 20.0986 152.015 20.0986H148.699C148.539 20.0986 148.401 20.1587 148.305 20.2697C147.616 21.0608 146.633 21.5396 145.277 21.5396C143.229 21.5396 141.512 20.1734 141.225 18.4908C141.203 18.3621 141.243 18.2436 141.34 18.1451C141.437 18.0467 141.566 17.9954 141.715 17.9954H152.49C152.751 17.9954 152.967 17.8194 152.984 17.5915C153 17.3692 153 17.1579 153 16.9582C153 13.0972 150.161 9.69727 144.946 9.69727Z" fill="white"/>
</svg>
