<svg width="209" height="160" viewBox="0 0 209 160" fill="none" xmlns="http://www.w3.org/2000/svg">
<g clip-path="url(#clip0_739_2206)">
<path d="M19.3981 159.937L19.3884 160C19.3768 159.939 19.3658 159.877 19.3552 159.815C19.3359 159.716 19.3192 159.616 19.3035 159.516C18.6783 155.608 19.0223 151.607 20.3058 147.86C20.5526 147.129 20.8336 146.411 21.1488 145.707C22.3546 142.978 24.0639 140.498 26.1884 138.394C26.8783 137.693 27.6653 137.094 28.5258 136.613C28.6522 136.547 28.7792 136.484 28.909 136.426C29.7049 136.043 30.6008 135.914 31.4735 136.057C31.7905 136.116 32.0978 136.219 32.3865 136.361C32.4878 136.41 32.5853 136.464 32.6809 136.521C33.2642 136.901 33.7623 137.396 34.1439 137.976C34.5255 138.556 34.7825 139.208 34.8987 139.891C35.0644 140.91 35.0265 141.951 34.7871 142.955C34.7666 143.051 34.7445 143.147 34.7208 143.242C34.5511 143.911 34.3378 144.569 34.0824 145.211C31.5255 151.744 26.0305 157.54 19.3981 159.937Z" fill="#EAF2FC"/>
<path d="M32.6855 136.077C30.7551 138.981 28.9315 141.958 27.2148 145.008C25.5002 148.057 23.8977 151.17 22.4073 154.348C21.5735 156.127 20.7763 157.923 20.0154 159.737C19.9312 159.938 20.2154 160.113 20.3007 159.909C21.6595 156.671 23.134 153.489 24.7243 150.364C26.3136 147.242 28.0146 144.187 29.8271 141.197C30.8413 139.525 31.8892 137.875 32.9708 136.249C33.0917 136.067 32.806 135.896 32.6855 136.077Z" fill="white"/>
<path d="M34.6605 142.072C33.1068 143.998 30.8199 145.262 28.2956 145.59C27.5913 145.681 26.8783 145.695 26.1708 145.63C25.9445 145.61 25.9429 145.946 26.1673 145.966C28.8002 146.178 31.4142 145.39 33.4418 143.774C34.0106 143.321 34.522 142.806 34.966 142.24C35.1019 142.067 34.7955 141.901 34.6605 142.072Z" fill="white"/>
<path d="M21.6333 153.915C21.2414 153.348 20.9157 152.738 20.663 152.095C20.0854 150.63 19.8804 149.041 20.0668 147.474C20.3442 146.634 20.6602 145.809 21.0147 145C21.0362 145.032 21.0491 145.069 21.0522 145.107C21.0553 145.146 21.0485 145.184 21.0324 145.219C20.7828 145.826 20.6033 146.461 20.4976 147.11C20.1181 149.424 20.6449 151.797 21.9655 153.722C21.9822 153.743 21.9934 153.768 21.9978 153.795C22.0023 153.822 21.9999 153.849 21.991 153.874C21.9762 153.908 21.9529 153.937 21.9236 153.959C21.8942 153.981 21.8597 153.995 21.8236 153.999C21.7874 154.003 21.7508 153.997 21.7174 153.982C21.6841 153.968 21.6551 153.944 21.6333 153.915Z" fill="white"/>
<path d="M28.2636 136.117C27.8094 137.712 27.9447 139.394 28.6498 140.917C28.6748 140.955 28.7157 140.983 28.7638 140.994C28.8119 141.006 28.8633 141 28.9067 140.978C28.9492 140.956 28.9801 140.92 28.9932 140.878C29.0062 140.835 29.0004 140.79 28.9768 140.752C28.3166 139.307 28.1941 137.715 28.627 136.204C28.6382 136.162 28.6306 136.118 28.6056 136.081C28.5807 136.044 28.5404 136.017 28.4932 136.006C28.4461 135.995 28.3958 136 28.353 136.02C28.3101 136.041 28.2781 136.076 28.2636 136.117H28.2636Z" fill="white"/>
<path d="M19.4177 151.938L19.4393 152C19.3987 151.949 19.3578 151.897 19.3179 151.846C19.2512 151.764 19.1869 151.68 19.1232 151.595C16.6245 148.297 14.9809 144.448 14.3348 140.383C14.2051 139.591 14.1138 138.795 14.061 137.995C13.8423 134.905 14.2131 131.802 15.1543 128.846C15.4511 127.87 15.8879 126.94 16.4516 126.085C16.5363 125.963 16.6234 125.845 16.7155 125.729C17.2666 124.994 18.0356 124.446 18.9166 124.159C19.2401 124.062 19.5758 124.009 19.9141 124.002C20.0321 123.998 20.149 124.001 20.266 124.008C20.9942 124.078 21.6999 124.295 22.3389 124.646C22.9779 124.996 23.5364 125.473 23.9795 126.046C24.6334 126.905 25.1091 127.882 25.3795 128.921C25.4075 129.02 25.4339 129.118 25.4586 129.217C25.6294 129.915 25.754 130.623 25.8317 131.336C26.6622 138.577 24.4021 146.549 19.4177 151.938Z" fill="#EAF2FC"/>
<path d="M19.7591 124.155C19.4522 127.608 19.2382 131.075 19.1169 134.554C18.9962 138.03 18.969 141.509 19.0352 144.991C19.0723 146.939 19.1388 148.886 19.2347 150.831C19.2453 151.046 19.4852 151.062 19.4745 150.844C19.3038 147.372 19.2262 143.895 19.2419 140.411C19.2579 136.931 19.3674 133.455 19.5703 129.984C19.6839 128.041 19.8268 126.103 19.9989 124.169C20.0181 123.953 19.7782 123.94 19.7591 124.155V124.155Z" fill="white"/>
<path d="M24.6586 129.166C24.2374 131.761 22.8817 134.073 20.8854 135.601C20.3285 136.027 19.7275 136.383 19.0945 136.66C18.8921 136.749 19.0484 137.073 19.249 136.985C21.5905 135.923 23.448 133.911 24.418 131.385C24.6901 130.677 24.8845 129.937 24.9975 129.18C25.0324 128.949 24.6933 128.936 24.6586 129.166V129.166Z" fill="white"/>
<path d="M18.6971 143.984C18.0819 143.734 17.5056 143.429 16.98 143.075C15.7805 142.268 14.8581 141.237 14.2977 140.076C14.1567 139.387 14.0575 138.695 14 138C14.0341 138.014 14.0629 138.035 14.0835 138.061C14.1041 138.086 14.1159 138.116 14.1177 138.146C14.1755 138.662 14.3089 139.171 14.5154 139.662C15.2496 141.415 16.8251 142.874 18.9061 143.726C18.9309 143.735 18.9525 143.748 18.9688 143.765C18.9852 143.782 18.9958 143.802 18.9996 143.823C19.0019 143.852 18.9947 143.881 18.9784 143.907C18.9621 143.933 18.9375 143.955 18.9069 143.971C18.8763 143.988 18.8409 143.997 18.804 144C18.7672 144.002 18.7304 143.996 18.6971 143.984Z" fill="white"/>
<path d="M16.004 126.182C16.5586 127.664 17.8309 128.993 19.6357 129.976C19.689 129.998 19.7535 130.005 19.8151 129.996C19.8766 129.988 19.9304 129.964 19.9647 129.929C19.9972 129.895 20.0078 129.853 19.9943 129.814C19.9808 129.774 19.9443 129.739 19.8922 129.717C18.1896 128.781 16.991 127.52 16.4691 126.116C16.4538 126.077 16.4158 126.044 16.3632 126.023C16.3106 126.002 16.2474 125.995 16.1871 126.004C16.1267 126.012 16.0739 126.036 16.0397 126.069C16.0056 126.102 15.9927 126.143 16.004 126.182L16.004 126.182Z" fill="white"/>
<path d="M19.6751 159.96L19.7275 160C19.6656 159.979 19.6024 159.958 19.5405 159.936C19.4392 159.903 19.3391 159.867 19.2389 159.831C15.3216 158.411 11.8245 156.097 9.05074 153.089C8.5073 152.505 7.99407 151.898 7.51102 151.267C5.63247 148.84 4.24441 146.096 3.41854 143.179C3.13388 142.223 2.99304 141.233 3.00026 140.238C3.00504 140.094 3.01336 139.951 3.02767 139.809C3.09013 138.919 3.43863 138.071 4.02518 137.379C4.24477 137.132 4.49903 136.915 4.78072 136.734C4.87842 136.67 4.97856 136.612 5.08104 136.557C5.73409 136.238 6.44883 136.051 7.1805 136.009C7.91218 135.967 8.64504 136.07 9.33319 136.312C10.3558 136.68 11.2928 137.237 12.0909 137.952C12.1683 138.018 12.2446 138.086 12.3197 138.154C12.8463 138.639 13.3395 139.157 13.7962 139.703C18.4667 145.228 20.9288 152.952 19.6751 159.96Z" fill="#EAF2FC"/>
<path d="M5.01931 137.256C6.61086 140.371 8.32751 143.427 10.1693 146.424C12.0099 149.418 13.9707 152.344 16.0518 155.202C17.2162 156.801 18.4168 158.376 19.6537 159.928C19.7905 160.1 20.104 159.932 19.9654 159.758C17.7578 156.988 15.665 154.142 13.6871 151.221C11.7115 148.303 9.8567 145.318 8.12279 142.265C7.15282 140.558 6.22223 138.831 5.33102 137.086C5.23131 136.891 4.91996 137.061 5.01931 137.256Z" fill="white"/>
<path d="M12.4764 138.25C12.9432 140.42 12.9511 142.86 12.4984 145.041C12.3721 145.65 12.2099 146.228 12.0152 146.764C11.953 146.935 12.0981 147.098 12.1598 146.928C12.8714 144.919 13.1465 142.445 12.9254 140.044C12.8634 139.37 12.7612 138.713 12.621 138.085C12.5784 137.893 12.4341 138.059 12.4764 138.25Z" fill="white"/>
<path d="M15.8195 154.961C15.1504 155.026 14.4764 155.01 13.8109 154.912C12.2931 154.689 10.853 154.068 9.62293 153.107C9.05012 152.432 8.50915 151.73 8 151.001C8.03733 150.998 8.0748 151.005 8.10872 151.021C8.14265 151.038 8.17185 151.064 8.19345 151.096C8.58339 151.628 9.03063 152.111 9.52621 152.535C11.2921 154.048 13.5504 154.777 15.8195 154.564C15.8454 154.56 15.8719 154.562 15.8966 154.572C15.9212 154.581 15.9431 154.597 15.9601 154.618C15.9814 154.649 15.9947 154.684 15.9987 154.722C16.0027 154.759 15.9974 154.797 15.9831 154.832C15.9689 154.866 15.9463 154.897 15.9176 154.919C15.8889 154.942 15.8551 154.956 15.8195 154.961Z" fill="white"/>
<path d="M3.05528 140.238C4.35854 141.2 6.02697 141.817 7.81773 141.999C7.91614 142.009 7.99907 141.927 8 141.859C7.99886 141.822 7.97929 141.787 7.94535 141.761C7.91141 141.735 7.86571 141.72 7.81773 141.719C6.12283 141.54 4.54545 140.952 3.31306 140.04C3.14409 139.915 2.88597 140.113 3.05527 140.238H3.05528Z" fill="white"/>
<path d="M42.4814 115.479C42.8236 115.24 43.1101 114.927 43.3209 114.563C43.5317 114.198 43.6616 113.791 43.7015 113.37C43.7413 112.949 43.6901 112.524 43.5515 112.125C43.4129 111.726 43.1903 111.363 42.8993 111.062L44 86L38.396 86.6416L38.7216 111.156C38.2573 111.688 38.0005 112.375 38 113.088C37.9995 113.8 38.2551 114.488 38.7186 115.021C39.182 115.554 39.8211 115.895 40.5146 115.979C41.2081 116.064 41.9079 115.886 42.4814 115.479Z" fill="#FFB8B8"/>
<path d="M53 155.434L56.0176 156L59 143.836L55.0462 143L53 155.434Z" fill="#FFB8B8"/>
<path d="M61.4575 159.777L51.6564 158.055L52.3221 154.272L58.3365 155.328C58.8337 155.416 59.3089 155.6 59.7349 155.871C60.1609 156.142 60.5293 156.494 60.8191 156.907C61.1089 157.32 61.3145 157.786 61.424 158.278C61.5336 158.771 61.5449 159.28 61.4575 159.777Z" fill="#002E6A"/>
<path d="M44.0004 157L46.7107 157L48 144L44 144L44.0004 157Z" fill="#FFB8B8"/>
<path d="M53.5464 159.777L43.5949 159.777L43.5948 155.935L49.7013 155.935C50.7211 155.935 51.699 156.34 52.4201 157.06C53.1412 157.781 53.5463 158.758 53.5464 159.777L53.5464 159.777Z" fill="#002E6A"/>
<path d="M57.5192 154.429C57.471 154.43 57.4228 154.427 57.375 154.421L53.739 154.113C53.5734 154.093 53.4136 154.038 53.2691 153.952C53.1246 153.867 52.9986 153.752 52.8986 153.614C52.7986 153.477 52.7268 153.32 52.6875 153.154C52.6482 152.987 52.6422 152.813 52.67 152.644L56.0274 133.267L53.7588 120.949C53.7403 120.849 53.6873 120.759 53.6095 120.696C53.5318 120.633 53.4345 120.601 53.3357 120.606C53.2369 120.611 53.1432 120.653 53.0719 120.724C53.0006 120.794 52.9565 120.889 52.9477 120.99L50.1115 153.846C50.0804 154.176 49.9261 154.48 49.6812 154.695C49.4363 154.91 49.1199 155.018 48.7989 154.997L45.3733 154.866C45.0731 154.844 44.7911 154.71 44.5805 154.489C44.3699 154.267 44.2453 153.974 44.2303 153.665L44 114.286L61.7594 112L63 131.73L62.9951 131.751L58.7139 153.462C58.6486 153.738 58.4955 153.983 58.2789 154.158C58.0623 154.334 57.7948 154.429 57.5192 154.429Z" fill="#002E6A"/>
<path d="M50 71C53.3137 71 56 68.3137 56 65C56 61.6863 53.3137 59 50 59C46.6863 59 44 61.6863 44 65C44 68.3137 46.6863 71 50 71Z" fill="#FFB8B8"/>
<path d="M55.94 116C54.9632 116.006 54.0052 115.729 53.1792 115.202C50.1539 113.291 46.7177 114.051 44.9387 114.673C44.7621 114.736 44.5739 114.757 44.388 114.736C44.2022 114.714 44.0235 114.651 43.8654 114.55C43.7091 114.451 43.5771 114.317 43.4791 114.159C43.3812 114.001 43.3199 113.823 43.2998 113.637L40.0646 84.4436C39.5225 79.5522 42.4386 74.9534 46.9984 73.5087C47.1697 73.4544 47.3439 73.4029 47.521 73.3543C48.94 72.9655 50.426 72.8957 51.8746 73.1497C53.3231 73.4038 54.699 73.9754 55.9053 74.8245C57.1341 75.683 58.1618 76.8031 58.9159 78.1061C59.6701 79.4091 60.1325 80.8633 60.2706 82.3662L62.9941 111.756C63.0127 111.946 62.9872 112.138 62.9199 112.317C62.8525 112.495 62.745 112.656 62.6058 112.785C61.6511 113.678 58.8801 116 55.94 116Z" fill="#BFDBFF"/>
<path d="M45.4199 90.9908L38.2687 90.1448C38.0653 90.1207 37.869 90.0497 37.6933 89.9367C37.5177 89.8236 37.3667 89.6712 37.2507 89.4897C37.1347 89.3082 37.0565 89.1019 37.0212 88.885C36.986 88.668 36.9947 88.4454 37.0466 88.2324L38.8668 80.7674C38.9872 79.648 39.5152 78.6256 40.3351 77.9244C41.155 77.2232 42.1998 76.9005 43.2405 77.0269C44.2812 77.1533 45.2328 77.7187 45.8867 78.5989C46.5406 79.4792 46.8434 80.6025 46.7288 81.7226L46.999 89.4098C47.0067 89.6299 46.9702 89.8492 46.892 90.0528C46.8138 90.2563 46.6957 90.4393 46.5459 90.5894C46.396 90.7394 46.2179 90.8529 46.0236 90.9222C45.8293 90.9915 45.6234 91.0149 45.4199 90.9908V90.9908Z" fill="#BFDBFF"/>
<path d="M63.0862 114.267C63.3818 113.989 63.6167 113.645 63.7744 113.26C63.9322 112.875 64.0089 112.457 63.9992 112.037C63.9895 111.616 63.8936 111.203 63.7183 110.827C63.543 110.45 63.2925 110.119 62.9846 109.857L61.2114 85L56 86.2529L59.0591 110.46C58.6814 111.042 58.5166 111.752 58.596 112.454C58.6753 113.157 58.9934 113.805 59.4898 114.274C59.9861 114.743 60.6264 115.001 61.2893 115C61.9521 114.999 62.5915 114.738 63.0862 114.267V114.267Z" fill="#FFB8B8"/>
<path d="M53.4541 90.5599C53.3042 90.3992 53.1861 90.2031 53.1079 89.985C53.0297 89.7669 52.9933 89.532 53.001 89.2961L53.2712 81.0599C53.1566 79.8598 53.4594 78.6562 54.1133 77.7131C54.7672 76.77 55.7189 76.1643 56.7596 76.0288C57.8002 75.8933 58.8451 76.2392 59.6649 76.9904C60.4848 77.7417 61.0128 78.8371 61.1332 80.0365L62.9534 88.0346C63.0053 88.2629 63.014 88.5014 62.9788 88.7338C62.9435 88.9663 62.8653 89.1873 62.7493 89.3817C62.6333 89.5762 62.4823 89.7395 62.3067 89.8606C62.131 89.9818 61.9347 90.0578 61.7313 90.0836L54.5801 90.9901C54.3766 91.016 54.1707 90.991 53.9764 90.9167C53.782 90.8425 53.6039 90.7208 53.4541 90.5599Z" fill="#BFDBFF"/>
<path d="M49.6019 72C49.4883 71.9999 49.3752 71.9859 49.2646 71.9584L49.2322 71.95C43.6154 71.0414 42.3741 67.6013 42.1016 66.1646C41.8196 64.6772 42.1407 63.2414 42.8664 62.6838C42.4707 61.3629 42.5342 60.1917 43.0555 59.2013C43.9647 57.474 45.9378 56.8899 46.2024 56.8185C47.7781 55.5893 49.6634 56.4098 50.0065 56.5762C53.0545 55.3838 54.2195 56.3764 54.4302 56.598C55.7927 56.8567 56.6232 57.4133 56.899 58.2525C57.4168 59.8287 55.7791 61.7894 55.7091 61.8721L55.6728 61.915L53.233 62.0378C53.0015 62.0495 52.7748 62.1125 52.5678 62.2228C52.3608 62.333 52.1781 62.4881 52.0314 62.6778C51.8847 62.8676 51.7774 63.0878 51.7163 63.3242C51.6553 63.5607 51.642 63.808 51.6772 64.0503C51.7433 64.3628 51.8267 64.671 51.927 64.9731C52.3437 66.3501 52.6559 67.5264 52.2533 67.9736C52.162 68.0601 52.0496 68.1177 51.9288 68.1399C51.8081 68.162 51.6839 68.1477 51.5704 68.0987C51.189 67.991 50.9299 68.0136 50.8009 68.166C50.6005 68.4024 50.6617 69.0006 50.9731 69.8507C51.0708 70.1195 51.0971 70.4115 51.0492 70.6949C51.0012 70.9784 50.8808 71.2426 50.7011 71.4589C50.5657 71.6277 50.3974 71.7635 50.2076 71.8569C50.0179 71.9504 49.8112 71.9992 49.6019 72Z" fill="#002E6A"/>
<path d="M124.503 91H92.4968C91.3046 90.9987 90.1616 90.5419 89.3185 89.7297C88.4755 88.9176 88.0013 87.8165 88 86.6679V40.3321C88.0013 39.1835 88.4755 38.0824 89.3185 37.2703C90.1616 36.4581 91.3046 36.0013 92.4968 36H124.503C125.695 36.0013 126.838 36.4581 127.681 37.2703C128.524 38.0824 128.999 39.1835 129 40.3321V86.6679C128.999 87.8165 128.524 88.9176 127.681 89.7297C126.838 90.5419 125.695 90.9987 124.503 91ZM92.4968 36.5097C91.4448 36.5108 90.4363 36.9139 89.6925 37.6305C88.9486 38.3471 88.5302 39.3187 88.529 40.3321V86.6679C88.5302 87.6813 88.9486 88.6529 89.6925 89.3695C90.4363 90.0861 91.4448 90.4892 92.4968 90.4903H124.503C125.555 90.4892 126.564 90.0861 127.308 89.3695C128.051 88.6529 128.47 87.6813 128.471 86.6679V40.3321C128.47 39.3187 128.051 38.3471 127.308 37.6305C126.564 36.9139 125.555 36.5108 124.503 36.5097H92.4968Z" fill="#002E6A"/>
<path d="M119.812 59H98.1881C97.608 58.9993 97.0518 58.7635 96.6416 58.3441C96.2314 57.9248 96.0006 57.3562 96 56.7632V46.2368C96.0006 45.6438 96.2314 45.0752 96.6416 44.6559C97.0518 44.2365 97.608 44.0007 98.1881 44H119.812C120.392 44.0007 120.948 44.2366 121.358 44.6559C121.769 45.0753 121.999 45.6438 122 46.2368V56.7632C121.999 57.3562 121.769 57.9247 121.358 58.3441C120.948 58.7634 120.392 58.9993 119.812 59Z" fill="#00AEEF"/>
<path d="M118 68H100C99.4696 68 98.9609 67.7893 98.5858 67.4142C98.2107 67.0391 98 66.5304 98 66C98 65.4696 98.2107 64.9609 98.5858 64.5858C98.9609 64.2107 99.4696 64 100 64H118C118.53 64 119.039 64.2107 119.414 64.5858C119.789 64.9609 120 65.4696 120 66C120 66.5304 119.789 67.0391 119.414 67.4142C119.039 67.7893 118.53 68 118 68Z" fill="#EAF2FC"/>
<path d="M118 76H100C99.4696 76 98.9609 75.7893 98.5858 75.4142C98.2107 75.0391 98 74.5304 98 74C98 73.4696 98.2107 72.9609 98.5858 72.5858C98.9609 72.2107 99.4696 72 100 72H118C118.53 72 119.039 72.2107 119.414 72.5858C119.789 72.9609 120 73.4696 120 74C120 74.5304 119.789 75.0391 119.414 75.4142C119.039 75.7893 118.53 76 118 76Z" fill="#EAF2FC"/>
<path d="M118 84H100C99.4696 84 98.9609 83.7893 98.5858 83.4142C98.2107 83.0391 98 82.5304 98 82C98 81.4696 98.2107 80.9609 98.5858 80.5858C98.9609 80.2107 99.4696 80 100 80H118C118.53 80 119.039 80.2107 119.414 80.5858C119.789 80.9609 120 81.4696 120 82C120 82.5304 119.789 83.0391 119.414 83.4142C119.039 83.7893 118.53 84 118 84Z" fill="#EAF2FC"/>
<path d="M199.723 118H169.277C168.143 117.999 167.056 117.534 166.254 116.707C165.452 115.88 165.001 114.759 165 113.589V66.4108C165.001 65.2414 165.452 64.1203 166.254 63.2934C167.056 62.4665 168.143 62.0013 169.277 62H199.723C200.857 62.0013 201.944 62.4665 202.746 63.2934C203.548 64.1203 203.999 65.2414 204 66.4108V113.589C203.999 114.759 203.548 115.88 202.746 116.707C201.944 117.534 200.857 117.999 199.723 118ZM169.277 62.5189C168.277 62.5201 167.317 62.9305 166.61 63.6601C165.902 64.3898 165.504 65.379 165.503 66.4108V113.589C165.504 114.621 165.902 115.61 166.61 116.34C167.317 117.069 168.277 117.48 169.277 117.481H199.723C200.723 117.48 201.683 117.069 202.39 116.34C203.098 115.61 203.496 114.621 203.497 113.589V66.4108C203.496 65.379 203.098 64.3898 202.39 63.6601C201.683 62.9305 200.723 62.5201 199.723 62.5189H169.277Z" fill="#002E6A"/>
<path d="M194.909 74H176.091C175.536 74 175.005 73.7366 174.612 73.2678C174.22 72.7989 174 72.163 174 71.5C174 70.837 174.22 70.2011 174.612 69.7322C175.005 69.2634 175.536 69 176.091 69H194.909C195.464 69 195.995 69.2634 196.388 69.7322C196.78 70.2011 197 70.837 197 71.5C197 72.163 196.78 72.7989 196.388 73.2678C195.995 73.7366 195.464 74 194.909 74Z" fill="#EAF2FC"/>
<path d="M194.909 81H176.091C175.536 81 175.005 80.7893 174.612 80.4142C174.22 80.0391 174 79.5304 174 79C174 78.4696 174.22 77.9609 174.612 77.5858C175.005 77.2107 175.536 77 176.091 77H194.909C195.464 77 195.995 77.2107 196.388 77.5858C196.78 77.9609 197 78.4696 197 79C197 79.5304 196.78 80.0391 196.388 80.4142C195.995 80.7893 195.464 81 194.909 81Z" fill="#EAF2FC"/>
<path d="M195.812 101H174.188C173.608 100.999 173.052 100.763 172.642 100.344C172.231 99.9247 172.001 99.3562 172 98.7632V88.2368C172.001 87.6438 172.231 87.0753 172.642 86.6559C173.052 86.2366 173.608 86.0007 174.188 86H195.812C196.392 86.0007 196.948 86.2366 197.358 86.6559C197.769 87.0753 197.999 87.6438 198 88.2368V98.7632C197.999 99.3562 197.769 99.9247 197.358 100.344C196.948 100.763 196.392 100.999 195.812 101Z" fill="#EAF2FC"/>
<path d="M194.909 111H176.091C175.536 111 175.005 110.737 174.612 110.268C174.22 109.799 174 109.163 174 108.5C174 107.837 174.22 107.201 174.612 106.732C175.005 106.263 175.536 106 176.091 106H194.909C195.464 106 195.995 106.263 196.388 106.732C196.78 107.201 197 107.837 197 108.5C197 109.163 196.78 109.799 196.388 110.268C195.995 110.737 195.464 111 194.909 111Z" fill="#EAF2FC"/>
<path d="M181.613 43H150.387C149.224 42.9987 148.109 42.5347 147.286 41.7099C146.464 40.8851 146.001 39.7668 146 38.6004V9.3996C146.001 8.23316 146.464 7.11486 147.286 6.29006C148.109 5.46526 149.224 5.00131 150.387 5H181.613C182.776 5.00131 183.891 5.46526 184.714 6.29006C185.536 7.11486 185.999 8.23316 186 9.3996V38.6004C185.999 39.7668 185.536 40.8851 184.714 41.7099C183.891 42.5347 182.776 42.9987 181.613 43ZM150.387 5.5176C149.361 5.51876 148.377 5.92814 147.651 6.6559C146.925 7.38366 146.517 8.37039 146.516 9.3996V38.6004C146.517 39.6296 146.925 40.6163 147.651 41.3441C148.377 42.0719 149.361 42.4812 150.387 42.4824H181.613C182.639 42.4812 183.623 42.0719 184.349 41.3441C185.075 40.6163 185.483 39.6296 185.484 38.6004V9.3996C185.483 8.37039 185.075 7.38366 184.349 6.6559C183.623 5.92814 182.639 5.51876 181.613 5.5176H150.387Z" fill="#002E6A"/>
<path d="M175 34H157C156.47 34 155.961 33.7893 155.586 33.4142C155.211 33.0391 155 32.5304 155 32C155 31.4696 155.211 30.9609 155.586 30.5858C155.961 30.2107 156.47 30 157 30H175C175.53 30 176.039 30.2107 176.414 30.5858C176.789 30.9609 177 31.4696 177 32C177 32.5304 176.789 33.0391 176.414 33.4142C176.039 33.7893 175.53 34 175 34Z" fill="#EAF2FC"/>
<path d="M175 26H157C156.47 26 155.961 25.7893 155.586 25.4142C155.211 25.0391 155 24.5304 155 24C155 23.4696 155.211 22.9609 155.586 22.5858C155.961 22.2107 156.47 22 157 22H175C175.53 22 176.039 22.2107 176.414 22.5858C176.789 22.9609 177 23.4696 177 24C177 24.5304 176.789 25.0391 176.414 25.4142C176.039 25.7893 175.53 26 175 26Z" fill="#EAF2FC"/>
<path d="M175 19H157C156.47 19 155.961 18.7893 155.586 18.4142C155.211 18.0391 155 17.5304 155 17C155 16.4696 155.211 15.9609 155.586 15.5858C155.961 15.2107 156.47 15 157 15H175C175.53 15 176.039 15.2107 176.414 15.5858C176.789 15.9609 177 16.4696 177 17C177 17.5304 176.789 18.0391 176.414 18.4142C176.039 18.7893 175.53 19 175 19Z" fill="#EAF2FC"/>
<path d="M126.5 43C130.09 43 133 40.3137 133 37C133 33.6863 130.09 31 126.5 31C122.91 31 120 33.6863 120 37C120 40.3137 122.91 43 126.5 43Z" fill="#00AEEF"/>
<path d="M125.35 39C125.194 39.0002 125.043 38.962 124.918 38.891L124.911 38.8866L123.285 37.9402C123.209 37.8965 123.146 37.8418 123.098 37.7793C123.05 37.7169 123.019 37.6478 123.006 37.5762C122.994 37.5046 123 37.4317 123.024 37.3619C123.049 37.2921 123.091 37.2266 123.149 37.1692C123.207 37.1118 123.279 37.0637 123.361 37.0276C123.444 36.9914 123.534 36.968 123.629 36.9587C123.723 36.9493 123.819 36.9542 123.91 36.973C124.002 36.9919 124.088 37.0243 124.163 37.0685L125.216 37.6823L127.705 35.215C127.762 35.1578 127.834 35.1097 127.916 35.0737C127.999 35.0376 128.089 35.0142 128.183 35.0047C128.277 34.9953 128.373 35 128.464 35.0187C128.556 35.0373 128.642 35.0695 128.717 35.1134L128.702 35.1293L128.718 35.1136C128.869 35.2023 128.969 35.3332 128.994 35.4775C129.019 35.6219 128.968 35.7679 128.851 35.8835L125.925 38.7857C125.857 38.8526 125.77 38.9067 125.67 38.9439C125.57 38.981 125.461 39.0002 125.35 39Z" fill="white"/>
<path d="M203.5 69C206.538 69 209 66.5376 209 63.5C209 60.4624 206.538 58 203.5 58C200.462 58 198 60.4624 198 63.5C198 66.5376 200.462 69 203.5 69Z" fill="#002E6A"/>
<path d="M202.958 66C202.829 66.0003 202.702 65.9524 202.599 65.8637L202.592 65.8582L201.238 64.6753C201.174 64.6206 201.121 64.5523 201.082 64.4742C201.042 64.3961 201.016 64.3098 201.005 64.2202C200.995 64.1307 201 64.0397 201.02 63.9524C201.041 63.8651 201.076 63.7832 201.124 63.7115C201.172 63.6398 201.232 63.5796 201.301 63.5345C201.37 63.4893 201.445 63.46 201.524 63.4483C201.602 63.4366 201.682 63.4427 201.759 63.4663C201.835 63.4898 201.907 63.5304 201.97 63.5856L202.847 64.3529L204.921 61.2687C204.969 61.1972 205.029 61.1372 205.097 61.0921C205.165 61.047 205.241 61.0177 205.319 61.0059C205.398 60.9941 205.477 61 205.554 61.0233C205.63 61.0466 205.702 61.0869 205.764 61.1417L205.751 61.1617L205.765 61.142C205.891 61.2529 205.974 61.4165 205.995 61.5969C206.016 61.7773 205.973 61.9598 205.876 62.1044L203.437 65.7321C203.381 65.8157 203.308 65.8834 203.225 65.9298C203.142 65.9763 203.051 66.0003 202.958 66Z" fill="white"/>
<path d="M185 12C188.314 12 191 9.31371 191 6C191 2.68629 188.314 0 185 0C181.686 0 179 2.68629 179 6C179 9.31371 181.686 12 185 12Z" fill="#002E6A"/>
<path d="M183.958 8C183.829 8.00022 183.702 7.96196 183.599 7.89098L183.592 7.88657L182.238 6.94024C182.174 6.89649 182.121 6.84181 182.082 6.77934C182.042 6.71686 182.016 6.64783 182.005 6.5762C181.995 6.50456 182 6.43174 182.02 6.36189C182.041 6.29205 182.076 6.22656 182.124 6.16919C182.172 6.11182 182.232 6.06369 182.301 6.02756C182.37 5.99143 182.445 5.96802 182.524 5.95866C182.602 5.9493 182.682 5.95418 182.759 5.97302C182.835 5.99187 182.907 6.0243 182.97 6.06846L183.847 6.68234L185.921 4.215C185.969 4.15777 186.029 4.10975 186.097 4.07367C186.165 4.03759 186.241 4.01416 186.319 4.00472C186.398 3.99529 186.477 4.00002 186.554 4.01866C186.63 4.0373 186.702 4.06949 186.764 4.11337L186.751 4.12934L186.765 4.1136C186.891 4.20232 186.974 4.3332 186.995 4.47754C187.016 4.62187 186.973 4.76787 186.876 4.88351L184.437 7.78569C184.381 7.85257 184.308 7.90669 184.225 7.94385C184.142 7.98102 184.051 8.00023 183.958 8Z" fill="white"/>
<path d="M98.7415 160H0.258486C0.189931 160 0.124184 159.947 0.0757085 159.854C0.027233 159.76 0 159.633 0 159.5C0 159.367 0.027233 159.24 0.0757085 159.146C0.124184 159.053 0.189931 159 0.258486 159H98.7415C98.8101 159 98.8758 159.053 98.9243 159.146C98.9728 159.24 99 159.367 99 159.5C99 159.633 98.9728 159.76 98.9243 159.854C98.8758 159.947 98.8101 160 98.7415 160Z" fill="#002E6A"/>
<path d="M207.052 134H111V137.938H207.052V134Z" fill="#EAF2FC"/>
<path d="M207.052 145.252H111V149.192H207.052V145.252Z" fill="#EAF2FC"/>
<path d="M207.052 156.506H111V160.444H207.052V156.506Z" fill="#EAF2FC"/>
</g>
<defs>
<clipPath id="clip0_739_2206">
<rect width="209" height="160" fill="white"/>
</clipPath>
</defs>
</svg>
