<svg width="604" height="395" viewBox="0 0 604 395" fill="none" xmlns="http://www.w3.org/2000/svg">
<path d="M345.046 113.318C344.482 114.651 343.93 116.018 343.406 117.38L342.035 116.853C342.565 115.475 343.123 114.094 343.693 112.746L345.046 113.318Z" fill="#002E6A"/>
<path d="M586.049 210.613C585.341 212.456 584.585 214.297 583.803 216.088L582.457 215.5C583.629 212.819 584.733 210.038 585.725 207.269L587.108 207.765C586.767 208.715 586.414 209.665 586.049 210.613ZM589.844 199.237L588.43 198.837C589.234 196.003 589.948 193.112 590.553 190.242L591.99 190.545C591.378 193.447 590.656 196.371 589.844 199.237ZM579.945 224.168C578.57 226.81 577.089 229.434 575.542 231.966L574.29 231.2C575.818 228.697 577.283 226.103 578.641 223.49L579.945 224.168ZM593.536 181.725L592.081 181.521C592.489 178.61 592.8 175.648 593.005 172.716L594.47 172.818C594.262 175.784 593.948 178.781 593.536 181.725ZM570.613 239.443C568.893 241.866 567.065 244.262 565.18 246.563L564.044 245.633C565.908 243.357 567.715 240.989 569.416 238.593L570.613 239.443ZM594.786 163.869L593.318 163.868C593.32 160.93 593.22 157.955 593.02 155.029L594.486 154.93C594.687 157.89 594.788 160.897 594.786 163.869L594.786 163.869ZM559.259 253.301C557.215 255.471 555.072 257.594 552.888 259.612L551.891 258.534C554.049 256.539 556.169 254.439 558.19 252.294L559.259 253.301ZM593.571 146.03L592.116 146.229C591.714 143.318 591.208 140.384 590.609 137.51L592.047 137.21C592.652 140.117 593.165 143.084 593.571 146.03V146.03ZM546.101 265.468C543.78 267.336 541.367 269.144 538.929 270.844L538.089 269.64C540.499 267.959 542.885 266.171 545.181 264.324L546.101 265.468ZM589.923 128.515L588.508 128.912C587.714 126.081 586.811 123.243 585.826 120.475L587.209 119.982C588.206 122.782 589.119 125.653 589.923 128.515V128.515ZM531.407 275.716C528.858 277.246 526.222 278.708 523.572 280.063L522.903 278.755C525.524 277.416 528.13 275.97 530.651 274.457L531.407 275.716ZM583.92 111.653L582.574 112.238C581.401 109.542 580.12 106.851 578.767 104.241L580.072 103.565C581.44 106.205 582.734 108.926 583.92 111.653V111.653ZM515.46 283.865C512.724 285.035 509.914 286.125 507.109 287.106L506.624 285.72C509.399 284.751 512.176 283.672 514.882 282.515L515.46 283.865ZM575.678 95.7568L574.423 96.5188C572.897 94.0091 571.261 91.5168 569.563 89.1117L570.763 88.2656C572.481 90.6974 574.134 93.2182 575.678 95.7568ZM498.558 289.77C495.69 290.558 492.759 291.255 489.848 291.844L489.556 290.405C492.435 289.823 495.333 289.133 498.17 288.354L498.558 289.77ZM565.344 81.126L564.205 82.0525C562.346 79.77 560.385 77.5241 558.374 75.3761L559.447 74.3735C561.48 76.5457 563.464 78.8171 565.344 81.126H565.344ZM481.018 293.318C478.071 293.706 475.074 293.997 472.11 294.182L472.018 292.717C474.949 292.533 477.913 292.246 480.826 291.862L481.018 293.318ZM553.098 68.041L552.098 69.1159C549.942 67.1102 547.689 65.1538 545.4 63.3014L546.324 62.1604C548.64 64.0338 550.919 66.0124 553.098 68.041ZM463.167 294.432C460.192 294.413 457.18 294.289 454.216 294.065L454.327 292.601C457.258 292.822 460.235 292.944 463.177 292.964L463.167 294.432ZM539.17 56.7693L538.326 57.972C535.918 56.2839 533.42 54.6592 530.903 53.1423L531.662 51.8854C534.207 53.4195 536.733 55.0627 539.17 56.7694L539.17 56.7693ZM445.312 293.08C442.37 292.651 439.404 292.115 436.498 291.484L436.809 290.049C439.683 290.673 442.615 291.203 445.524 291.627L445.312 293.08ZM523.837 47.5286L523.167 48.8347C520.554 47.4952 517.858 46.2273 515.153 45.0651L515.733 43.7166C518.468 44.8912 521.195 46.1738 523.837 47.5286ZM427.814 289.288C424.963 288.462 422.098 287.526 419.3 286.506L419.804 285.127C422.571 286.136 425.403 287.061 428.223 287.878L427.814 289.288ZM506.9 41.8463C504.123 40.8683 501.28 39.9743 498.451 39.189L498.844 37.7746C501.705 38.5685 504.58 39.4725 507.388 40.4609L506.9 41.8463ZM489.841 37.114C486.956 36.5238 484.018 36.0262 481.108 35.6363L481.303 34.1814C484.246 34.5756 487.218 35.0784 490.136 35.6759L489.841 37.114ZM472.295 34.7642C469.363 34.5763 466.388 34.4876 463.452 34.5015L463.445 33.0334C466.415 33.0194 469.424 33.1089 472.388 33.2996L472.295 34.7642ZM454.61 34.8494C451.676 35.0662 448.715 35.3878 445.81 35.8043L445.601 34.3509C448.54 33.9296 451.534 33.6048 454.501 33.3854L454.61 34.8494ZM437.094 37.3604C434.215 37.977 431.324 38.7003 428.503 39.5086L428.098 38.0981C430.951 37.2797 433.875 36.5483 436.786 35.9244L437.094 37.3604ZM420.078 42.2393C417.313 43.24 414.547 44.3492 411.856 45.5363L411.263 44.1933C413.985 42.9926 416.782 41.8709 419.578 40.8583L420.078 42.2393ZM403.878 49.3867C401.272 50.7566 398.681 52.232 396.179 53.7721L395.409 52.5223C397.939 50.9646 400.559 49.4721 403.195 48.0872L403.878 49.3867ZM388.797 58.6716C386.4 60.3849 384.035 62.2001 381.767 64.0674L380.833 62.9343C383.127 61.0456 385.519 59.2098 387.943 57.4773L388.797 58.6716ZM375.122 69.934C372.983 71.9574 370.889 74.0803 368.897 76.2441L367.816 75.2498C369.831 73.0617 371.949 70.9143 374.113 68.8671L375.122 69.934ZM363.121 82.9697C361.284 85.2652 359.504 87.654 357.829 90.0704L356.622 89.2347C358.315 86.7904 360.116 84.3741 361.974 82.0528L363.121 82.9697ZM353.041 97.5193C351.538 100.043 350.103 102.654 348.775 105.279L347.464 104.616C348.808 101.961 350.259 99.3207 351.778 96.7685L353.041 97.5193Z" fill="#002E6A"/>
<path d="M411.391 281.727L410.794 283.068C409.439 282.466 408.088 281.837 406.777 281.2L407.419 279.88C408.715 280.509 410.051 281.131 411.391 281.727Z" fill="#002E6A"/>
<path d="M368.944 170.292H17.6377V394.308H368.944V170.292Z" fill="#EAF2FC"/>
<path d="M321.823 394.102C321.654 393.827 317.68 387.195 316.303 373.422C315.039 360.786 315.852 339.488 326.901 309.779C347.833 253.496 322.077 208.084 321.814 207.632L323.085 206.895C323.151 207.01 329.797 218.588 333.724 237.025C338.911 261.468 337.022 286.882 328.278 310.291C307.381 366.477 322.917 393.075 323.076 393.338L321.823 394.102Z" fill="#002E6A"/>
<path d="M313.637 204.327C318.91 204.327 323.184 200.054 323.184 194.784C323.184 189.514 318.91 185.241 313.637 185.241C308.365 185.241 304.091 189.514 304.091 194.784C304.091 200.054 308.365 204.327 313.637 204.327Z" fill="#00AEEF"/>
<path d="M343.744 239.563C349.017 239.563 353.291 235.29 353.291 230.02C353.291 224.749 349.017 220.477 343.744 220.477C338.472 220.477 334.198 224.749 334.198 230.02C334.198 235.29 338.472 239.563 343.744 239.563Z" fill="#002E6A"/>
<path d="M323.183 263.053C328.456 263.053 332.73 258.781 332.73 253.51C332.73 248.24 328.456 243.967 323.183 243.967C317.911 243.967 313.637 248.24 313.637 253.51C313.637 258.781 317.911 263.053 323.183 263.053Z" fill="#00AEEF"/>
<path d="M348.151 282.874C353.423 282.874 357.697 278.601 357.697 273.331C357.697 268.06 353.423 263.788 348.151 263.788C342.878 263.788 338.604 268.06 338.604 273.331C338.604 278.601 342.878 282.874 348.151 282.874Z" fill="#00AEEF"/>
<path d="M315.84 313.705C321.112 313.705 325.386 309.432 325.386 304.162C325.386 298.891 321.112 294.619 315.84 294.619C310.568 294.619 306.294 298.891 306.294 304.162C306.294 309.432 310.568 313.705 315.84 313.705Z" fill="#002E6A"/>
<path d="M327.589 394.454C327.589 394.454 318.043 370.963 346.682 353.345L327.589 394.454Z" fill="#002E6A"/>
<path d="M315.849 394.027C315.849 394.027 311.505 369.047 277.878 369.261L315.849 394.027Z" fill="#002E6A"/>
<path d="M220.394 220.283C227.92 223.587 234.784 228.229 240.653 233.983L246.546 228.091C239.641 221.305 231.504 215.898 222.571 212.161L220.394 220.283Z" fill="#00AEEF"/>
<path d="M128.796 261.697C131.603 252.95 136.162 244.867 142.196 237.939L136.292 232.038C129.239 240.014 123.943 249.385 120.751 259.542L128.796 261.697Z" fill="#00AEEF"/>
<path d="M253.746 236.245L247.795 242.194C252.39 248.411 255.883 255.372 258.12 262.771L266.156 260.619C263.533 251.809 259.328 243.549 253.746 236.245Z" fill="#002E6A"/>
<path d="M144.038 224.43L149.952 230.342C156.905 224.528 164.957 220.172 173.628 217.53L171.475 209.497C161.392 212.518 152.048 217.603 144.038 224.43Z" fill="#00AEEF"/>
<path d="M125.585 282.3C125.585 278.944 125.833 275.593 126.329 272.274L118.259 270.112C116.585 280.481 117.064 291.084 119.667 301.26L127.699 299.108C126.292 293.616 125.581 287.969 125.585 282.3Z" fill="#00AEEF"/>
<path d="M209.976 347.902C204.522 349.287 198.917 349.987 193.291 349.984C191.206 349.984 189.145 349.884 187.108 349.699L184.93 357.825C194.036 358.828 203.249 358.187 212.128 355.931L209.976 347.902Z" fill="#002E6A"/>
<path d="M131.253 309.394L123.129 311.57C127.043 320.92 132.787 329.395 140.022 336.496L145.916 330.604C139.719 324.534 134.742 317.335 131.253 309.394Z" fill="#00AEEF"/>
<path d="M268.495 271.23L260.411 273.395C261.379 280.707 261.147 288.128 259.727 295.365L267.774 297.521C269.529 288.864 269.773 279.97 268.495 271.23H268.495Z" fill="#002E6A"/>
<path d="M184.251 215.221C192.886 214.061 201.664 214.573 210.105 216.729L212.257 208.7C202.403 206.182 192.146 205.652 182.085 207.139L184.251 215.221Z" fill="#00AEEF"/>
<path d="M176.364 347.842C168.443 345.792 160.96 342.319 154.283 337.591L148.316 343.556C156.084 349.273 164.874 353.452 174.213 355.87L176.364 347.842Z" fill="#002E6A"/>
<path d="M244.581 338.375L238.681 332.478C233.229 337.413 227.012 341.43 220.271 344.371L222.447 352.489C230.588 349.103 238.077 344.327 244.581 338.375Z" fill="#002E6A"/>
<path d="M256.781 305.814C254.256 312.595 250.659 318.928 246.128 324.571L252.055 330.496C257.579 323.777 261.906 316.159 264.848 307.975L256.781 305.814Z" fill="#002E6A"/>
<path d="M62.3496 183.009H25.3027V197.695H62.3496V183.009Z" fill="#002E6A"/>
<path d="M62.3496 205.357H25.3027V220.044H62.3496V205.357Z" fill="#00AEEF"/>
<path d="M249.48 35.5887C249.48 35.5887 253.652 49.2933 251.268 53.4642C248.884 57.6352 255.44 66.5729 266.169 62.402C276.898 58.231 277.494 53.4642 277.494 53.4642C277.494 53.4642 273.322 46.9099 272.13 33.2053L249.48 35.5887Z" fill="#FFB9B9"/>
<path d="M194.941 169.953C194.941 169.953 173.484 180.678 183.02 194.979C188.564 203.291 199.142 219.455 207.028 231.534C213.629 241.643 218.691 252.676 222.049 264.272L223.552 269.46L229.512 276.61L242.029 262.31C242.029 262.31 223.552 228.346 223.552 221.792C223.552 215.238 208.65 194.383 208.65 194.383L223.552 184.849C223.552 184.849 206.862 165.782 194.941 169.953Z" fill="#FFB9B9"/>
<path d="M264.679 206.896C264.679 206.896 265.275 223.579 265.871 230.134C266.363 235.541 261.581 250.682 263.239 267.525C264.251 278.423 264.13 289.396 262.878 300.268L260.507 321.895L278.388 323.682L284.349 274.822C284.349 274.822 287.925 240.263 286.137 228.942L286.733 205.108C286.733 205.108 273.62 200.341 264.679 206.896Z" fill="#FFB9B9"/>
<path d="M232.791 137.479C232.791 137.479 191.067 164.292 190.471 172.634C190.471 172.634 214.313 170.251 214.909 191.106C214.909 191.106 229.214 185.743 232.791 184.551C236.367 183.359 255.44 170.847 255.44 170.847C255.44 170.847 263.189 176.805 263.189 186.339C263.189 195.872 262.593 212.556 263.189 213.748C263.785 214.94 277.494 197.66 288.819 212.556L296.568 171.443C296.568 171.443 298.952 146.417 294.183 144.629L260.805 132.116L232.791 137.479Z" fill="#002E6A"/>
<path d="M258.123 43.0369C267.998 43.0369 276.004 35.0337 276.004 25.1614C276.004 15.289 267.998 7.28589 258.123 7.28589C248.247 7.28589 240.241 15.289 240.241 25.1614C240.241 35.0337 248.247 43.0369 258.123 43.0369Z" fill="#FFB9B9"/>
<path d="M253.652 56.4435C253.652 56.4435 273.822 61.7687 276.552 51.658C276.552 51.658 301.336 56.4435 305.508 72.5314C309.681 88.6193 295.376 127.35 295.376 128.541C295.376 129.733 307.297 136.883 301.932 140.458C296.568 144.033 291.799 139.862 294.183 144.629C296.568 149.396 300.74 150.588 297.164 151.779C293.587 152.971 272.13 134.5 255.44 139.267C238.751 144.033 230.407 140.458 230.407 140.458L222.923 75.8016C222.631 73.3245 222.964 70.8137 223.892 68.4984C224.82 66.183 226.313 64.1369 228.235 62.5466C231.97 59.4731 236.927 56.1524 241.731 55.2518C251.268 53.4642 251.664 52.4857 251.664 52.4857L253.652 56.4435Z" fill="#BFDBFF"/>
<path d="M234.579 160.717C234.579 160.717 239.943 191.106 247.096 186.935C254.248 182.764 245.307 160.717 245.307 160.717H234.579Z" fill="#FFB9B9"/>
<path d="M259.478 164.65C259.478 164.65 250.183 194.075 258.455 193.682C266.726 193.289 268.992 169.607 268.992 169.607L259.478 164.65Z" fill="#FFB9B9"/>
<path d="M226.532 268.268C226.532 268.268 222.36 263.501 219.976 270.056C217.591 276.61 211.035 284.952 211.035 284.952C211.035 284.952 196.73 301.04 206.863 301.636C216.995 302.232 231.3 287.335 231.3 287.335L247.99 271.843C247.99 271.843 242.458 258.376 239.86 258.257C237.261 258.139 237.857 274.227 226.532 268.268Z" fill="#002E6A"/>
<path d="M265.275 317.724C265.275 317.724 261.075 318.949 261.387 313.868C261.387 313.868 246.202 321.895 250.374 327.853C254.546 333.812 259.315 339.77 259.315 339.77C259.315 339.77 281.368 352.283 283.157 349.304C284.945 346.324 284.945 340.366 283.753 337.982C282.56 335.599 276.6 331.428 278.388 327.853C280.176 324.278 277.792 314.744 274.812 314.744C271.832 314.744 265.275 317.724 265.275 317.724Z" fill="#002E6A"/>
<path d="M242.518 10.0147C242.518 10.0147 248.27 -2.44442 259.295 0.430766C270.321 3.30595 276.552 7.61871 277.032 11.9315C277.511 16.2443 276.792 22.7134 276.792 22.7134C276.792 22.7134 275.593 13.8483 267.924 15.7651C260.254 17.6819 248.27 16.2443 248.27 16.2443L246.353 33.4953C246.353 33.4953 244.196 30.3806 241.799 32.2974C239.402 34.2141 234.848 13.8483 242.518 10.0147Z" fill="#002E6A"/>
<path d="M295.376 71.9357C295.376 71.9357 281.07 110.666 282.263 115.433C283.455 120.2 282.263 120.795 280.474 121.987C278.686 123.179 273.918 135.692 273.918 135.692C273.918 135.692 270.938 142.842 268.553 144.629C266.169 146.417 266.169 151.184 266.169 151.184C266.169 151.184 260.209 157.142 261.401 158.334C262.593 159.526 262.593 161.313 260.209 163.101C257.825 164.888 255.44 167.272 256.633 167.868C257.825 168.463 266.169 175.018 268.553 174.422C270.938 173.826 267.361 171.443 270.342 170.251C273.322 169.059 275.11 167.272 273.918 166.676C272.726 166.08 269.15 166.08 272.726 164.888C276.302 163.697 288.819 155.951 292.991 146.417C297.164 136.883 317.155 79.203 305.073 71.1005C305.073 71.1005 300.144 64.7855 295.376 71.9357Z" fill="#BFDBFF"/>
<path d="M229.214 65.3813L228.972 65.4822C226.721 66.4208 224.732 67.8938 223.178 69.7737C221.625 71.6537 220.553 73.8839 220.055 76.2712C218.754 82.4988 217.473 91.5063 218.486 99.9406C220.274 114.837 221.466 121.391 223.85 126.158C226.234 130.925 226.83 129.137 226.234 132.712C225.638 136.287 222.658 133.308 225.638 138.075C228.618 142.842 230.407 141.65 229.214 144.034C228.022 146.417 226.234 146.417 228.618 149.396C231.003 152.375 231.003 153.567 231.599 154.759C232.195 155.951 233.983 164.888 233.983 164.888C233.983 164.888 243.52 161.909 248.884 163.101C248.884 163.101 244.116 154.759 245.308 152.971C246.5 151.184 248.288 150.588 246.5 148.8C244.712 147.013 241.731 147.609 244.712 145.821C247.692 144.034 242.327 125.562 242.327 125.562L229.214 65.3813Z" fill="#BFDBFF"/>
<path d="M604 393.998H0V395H604V393.998Z" fill="#3F3D56"/>
<path d="M391.142 202.188L390.212 201.312L460.297 126.962H517.346V128.239H460.849L391.142 202.188Z" fill="#3F3D56"/>
<path d="M545.875 136.726H478.546V139.008H545.875V136.726Z" fill="#00AEEF"/>
<path d="M545.875 146.423H478.546V148.704H545.875V146.423Z" fill="#00AEEF"/>
<path d="M545.875 156.119H478.546V158.401H545.875V156.119Z" fill="#00AEEF"/>
<path d="M538.848 322.537H471.52V324.819H538.848V322.537Z" fill="#00AEEF"/>
<path d="M538.848 332.234H471.52V334.516H538.848V332.234Z" fill="#00AEEF"/>
<path d="M538.848 341.931H471.52V344.212H538.848V341.931Z" fill="#00AEEF"/>
<path d="M510.106 311.09H442.703L442.512 310.813L390.136 234.829L391.187 234.104L443.373 309.813H510.106V311.09Z" fill="#3F3D56"/>
</svg>
