<svg width="392" height="585" viewBox="0 0 392 585" fill="none" xmlns="http://www.w3.org/2000/svg">
<g clip-path="url(#clip0_780_2053)">
<path d="M0.616627 440.657L0 442.239L342.385 575.638L343.002 574.056L0.616627 440.657Z" fill="#EAF2FC"/>
<path d="M245.27 0.260467L54.9557 50.4172C54.1946 50.6326 53.4917 51.0165 52.8991 51.5404C52.2378 52.1194 51.6737 52.8006 51.2281 53.5581C50.7386 54.3785 50.361 55.2607 50.1053 56.1811C49.8342 57.1452 49.6955 58.1417 49.6929 59.1431V341.394C49.6934 342.38 49.8322 343.36 50.1053 344.307C50.3563 345.189 50.7345 346.03 51.2281 346.802C51.6711 347.506 52.2372 348.123 52.8991 348.626C53.5015 349.086 54.2079 349.389 54.9557 349.511L245.27 377.524C246.373 377.694 247.501 377.607 248.566 377.271C249.579 376.945 250.505 376.393 251.273 375.657C252.07 374.888 252.696 373.96 253.109 372.934C253.563 371.8 253.793 370.59 253.786 369.369V7.42735C253.798 6.23131 253.568 5.04517 253.109 3.94076C252.703 2.97166 252.074 2.11193 251.273 1.43141C250.494 0.778515 249.563 0.331514 248.566 0.131328C247.472 -0.080002 246.344 -0.035804 245.27 0.260467Z" fill="#EAF2FC"/>
<path d="M59.647 58.3373C59.1097 58.495 58.6143 58.7708 58.1972 59.1444C57.7332 59.553 57.3376 60.0333 57.0253 60.5669C56.6831 61.1473 56.4209 61.7713 56.2456 62.4218C56.0606 63.1012 55.97 63.8028 55.9765 64.5068V335.301C55.9688 335.994 56.0594 336.685 56.2456 337.352C56.4175 337.974 56.6797 338.568 57.024 339.114C57.3338 339.611 57.7305 340.049 58.1952 340.406C58.6194 340.732 59.1171 340.951 59.645 341.041L237.912 365.052C238.672 365.144 239.442 365.06 240.163 364.805C240.855 364.556 241.482 364.154 241.996 363.629C242.533 363.08 242.95 362.426 243.221 361.708C243.52 360.916 243.665 360.075 243.649 359.229V18.7379C243.668 17.9079 243.523 17.0822 243.221 16.3086C242.955 15.6294 242.536 15.0206 241.996 14.5297C241.475 14.0613 240.845 13.7305 240.163 13.5672C239.422 13.3963 238.651 13.4016 237.912 13.5827L59.647 58.3373Z" fill="white"/>
<path d="M67.1878 69.1637C66.8207 69.2583 66.483 69.4433 66.2056 69.7017C65.8849 69.997 65.6151 70.3431 65.4071 70.7261C65.1697 71.1564 64.9888 71.6155 64.8689 72.092C64.7366 72.6026 64.6688 73.1277 64.6671 73.6551V111.371C64.6642 111.871 64.7307 112.369 64.8649 112.851C64.9766 113.261 65.1587 113.649 65.4031 113.998C65.6084 114.293 65.8836 114.534 66.2043 114.697C66.5087 114.846 66.8527 114.895 67.1865 114.836L226.522 87.4037C227.048 87.3071 227.545 87.0934 227.977 86.7782C228.443 86.4403 228.846 86.0243 229.17 85.5488C229.52 85.0393 229.792 84.4803 229.977 83.8902C230.173 83.2724 230.273 82.6282 230.274 81.9801V35.7976C230.279 35.1884 230.179 34.5828 229.977 34.0079C229.805 33.5125 229.53 33.059 229.17 32.6769C228.839 32.3216 228.419 32.0617 227.953 31.9245C227.487 31.7872 226.993 31.7776 226.522 31.8967L67.1878 69.1637Z" fill="#EAF2FC"/>
<path d="M67.1879 133.195C66.8256 133.261 66.4845 133.414 66.1936 133.639C65.874 133.884 65.6006 134.185 65.3863 134.526C65.1491 134.898 64.9678 135.304 64.8481 135.729C64.7215 136.183 64.6604 136.652 64.6664 137.123V217.736C64.6605 218.197 64.7235 218.656 64.8535 219.098C64.9696 219.495 65.1516 219.87 65.3917 220.207C65.605 220.51 65.8801 220.764 66.1989 220.953C66.5001 221.13 66.8432 221.222 67.1926 221.222L226.526 216.68C227.04 216.656 227.543 216.518 227.998 216.277C228.457 216.033 228.864 215.703 229.196 215.304C229.544 214.888 229.815 214.414 229.997 213.903C230.189 213.363 230.284 212.794 230.277 212.221V113.513C230.288 112.955 230.192 112.4 229.997 111.878C229.82 111.407 229.548 110.978 229.196 110.618C228.86 110.275 228.451 110.014 227.998 109.855C227.524 109.692 227.018 109.642 226.521 109.711L67.1879 133.195Z" fill="#EAF2FC"/>
<path d="M81.1479 71.3475L206.733 42.8838V52.5015L81.1479 79.5946V71.3475Z" fill="white"/>
<path d="M81.3672 88.6809L207.031 63.0938V67.5616L81.3672 92.5105V88.6809Z" fill="white"/>
<path d="M81.3672 95.4571L207.031 70.9985V75.4664L81.3672 99.2874V95.4571Z" fill="white"/>
<path d="M81.3672 102.233L207.031 78.9033V83.3712L81.3672 106.064V102.233Z" fill="white"/>
<path d="M151.043 218.991L214.77 217.187C214.992 217.181 215.211 217.137 215.418 217.058C215.628 216.978 215.824 216.866 216 216.727C216.182 216.581 216.343 216.411 216.477 216.22C216.619 216.018 216.732 215.798 216.814 215.566C216.982 215.096 217.026 214.591 216.94 214.099C216.899 213.862 216.827 213.631 216.724 213.413C216.624 213.198 216.492 212.999 216.333 212.822L174.323 166.262C174.141 166.056 173.913 165.894 173.658 165.791C173.418 165.696 173.159 165.659 172.903 165.683C172.636 165.709 172.379 165.792 172.148 165.928C171.892 166.078 171.667 166.278 171.486 166.515L161.713 179.141C161.345 179.625 160.886 180.032 160.36 180.337C159.891 180.608 159.367 180.771 158.826 180.815C158.304 180.854 157.78 180.769 157.298 180.565C156.781 180.343 156.323 180.005 155.958 179.578L127.153 146.488C126.993 146.3 126.789 146.153 126.56 146.061C126.346 145.977 126.115 145.947 125.887 145.975C125.647 146.006 125.417 146.091 125.215 146.223C124.983 146.373 124.783 146.566 124.624 146.792L74.0169 217.25C73.9034 217.41 73.8107 217.583 73.741 217.766C73.6688 217.956 73.6178 218.152 73.5891 218.353C73.5594 218.557 73.5517 218.764 73.5662 218.97C73.5806 219.176 73.6183 219.379 73.6785 219.576C73.7351 219.763 73.8154 219.942 73.9173 220.108C74.009 220.259 74.1223 220.395 74.2537 220.512C74.3748 220.62 74.5139 220.706 74.6647 220.765C74.8112 220.823 74.9677 220.85 75.1249 220.845L151.118 218.664L151.043 218.991Z" fill="white"/>
<path d="M86.2143 141.658C87.0372 141.547 87.8748 141.663 88.6362 141.994C89.4116 142.339 90.095 142.861 90.6309 143.518C91.2303 144.256 91.6866 145.098 91.9764 146.003C92.3113 147.035 92.4788 148.114 92.4722 149.199C92.4725 150.323 92.3054 151.441 91.9764 152.515C91.6744 153.516 91.2206 154.465 90.6309 155.328C90.097 156.116 89.4219 156.798 88.6396 157.34C87.9193 157.84 87.088 158.156 86.2177 158.263C85.3947 158.357 84.5617 158.224 83.8086 157.879C83.0453 157.52 82.3757 156.989 81.8522 156.328C81.2659 155.593 80.8196 154.755 80.5357 153.859C80.2112 152.841 80.0491 151.778 80.0553 150.71C80.055 149.603 80.2168 148.503 80.5357 147.444C80.8305 146.453 81.2732 145.513 81.8489 144.654C82.3726 143.866 83.0355 143.179 83.8052 142.628C84.5185 142.116 85.3449 141.783 86.2143 141.658Z" fill="white"/>
<path d="M67.1874 240.156C66.8354 240.166 66.4924 240.269 66.1931 240.455C65.8751 240.654 65.6012 240.916 65.3885 241.225C65.149 241.569 64.9672 241.949 64.8503 242.351C64.7215 242.796 64.6594 243.257 64.666 243.72V324.333C64.6613 324.803 64.7243 325.271 64.853 325.722C64.9722 326.143 65.1536 326.542 65.3912 326.909C65.6054 327.243 65.879 327.535 66.1985 327.77C66.4909 327.986 66.8321 328.128 67.1922 328.182L226.521 346.658C227.02 346.71 227.524 346.644 227.993 346.467C228.447 346.293 228.856 346.019 229.191 345.667C229.542 345.297 229.814 344.859 229.992 344.381C230.187 343.856 230.282 343.298 230.272 342.738V244.033C230.28 243.462 230.185 242.895 229.992 242.358C229.811 241.854 229.54 241.388 229.191 240.982C228.858 240.594 228.451 240.276 227.993 240.047C227.535 239.819 227.032 239.697 226.521 239.689L67.1874 240.156Z" fill="#EAF2FC"/>
<path d="M151.043 338.066L214.767 345.468C214.983 345.494 215.203 345.482 215.415 345.433C215.622 345.384 215.818 345.3 215.996 345.185C216.178 345.066 216.34 344.918 216.474 344.747C216.616 344.563 216.729 344.359 216.81 344.141C216.896 343.913 216.949 343.674 216.969 343.431C216.99 343.183 216.979 342.935 216.936 342.691C216.894 342.443 216.822 342.202 216.721 341.973C216.619 341.741 216.487 341.524 216.33 341.326L174.323 288.7C174.141 288.469 173.915 288.277 173.657 288.135C173.424 288.008 173.166 287.934 172.901 287.919C172.643 287.905 172.385 287.951 172.147 288.053C171.893 288.165 171.667 288.333 171.485 288.544L161.712 299.757C161.344 300.189 160.881 300.531 160.36 300.757C159.876 300.963 159.35 301.051 158.826 301.014C158.287 300.973 157.765 300.812 157.297 300.543C156.777 300.242 156.322 299.841 155.958 299.363L127.153 262.108C126.993 261.898 126.791 261.723 126.559 261.595C126.352 261.482 126.122 261.42 125.886 261.413C125.653 261.408 125.422 261.459 125.213 261.563C124.982 261.678 124.779 261.843 124.619 262.046L74.0165 325.2C73.9021 325.345 73.8092 325.505 73.7406 325.676C73.6677 325.857 73.6166 326.047 73.5886 326.24C73.5589 326.444 73.5512 326.65 73.5658 326.854C73.5803 327.066 73.6178 327.275 73.6774 327.479C73.735 327.676 73.8151 327.867 73.9163 328.046C74.0086 328.211 74.1216 328.363 74.2526 328.499C74.3728 328.624 74.5114 328.729 74.6637 328.812C74.8065 328.889 74.9626 328.939 75.1238 328.958L151.119 337.753L151.043 338.066Z" fill="white"/>
<path d="M86.2142 251.368C87.0669 251.383 87.9012 251.618 88.6361 252.051C89.4167 252.514 90.0943 253.132 90.6274 253.867C91.2211 254.68 91.6757 255.585 91.9729 256.547C92.3042 257.604 92.4714 258.706 92.4687 259.814C92.4726 260.915 92.3054 262.01 91.9729 263.059C91.678 264.002 91.2228 264.888 90.6274 265.677C90.0941 266.387 89.4152 266.974 88.6361 267.401C87.8934 267.801 87.0579 267.999 86.2142 267.973C85.3618 267.939 84.5323 267.687 83.8051 267.241C83.0367 266.767 82.3714 266.144 81.8488 265.408C81.2692 264.598 80.8257 263.7 80.5356 262.748C80.2145 261.705 80.0526 260.62 80.0552 259.529C80.0514 258.446 80.2134 257.368 80.5356 256.333C80.8235 255.398 81.2675 254.519 81.8488 253.733C82.3713 253.021 83.0379 252.427 83.8051 251.989C84.5398 251.575 85.3706 251.36 86.2142 251.368Z" fill="white"/>
<path d="M112.13 105.874C111.53 105.985 110.964 106.232 110.473 106.595C109.946 106.984 109.491 107.462 109.127 108.007C108.733 108.593 108.427 109.234 108.221 109.909C108 110.619 107.887 111.358 107.884 112.101V417.073C107.891 418.55 108.321 419.995 109.125 421.236C109.489 421.802 109.943 422.305 110.47 422.725C110.957 423.114 111.523 423.393 112.128 423.542L338.14 475.694C339.045 475.912 339.986 475.938 340.902 475.77C341.726 475.615 342.503 475.27 343.169 474.761C343.827 474.252 344.354 473.593 344.704 472.839C345.086 472.005 345.279 471.098 345.27 470.182V72.5243C345.277 71.5973 345.084 70.6797 344.704 69.8341C344.351 69.0567 343.826 68.3696 343.169 67.8244C342.508 67.2803 341.734 66.8912 340.903 66.6858C339.998 66.4657 339.057 66.4378 338.141 66.6037L112.13 105.874Z" fill="#EAF2FC"/>
<path d="M117.349 113.61C116.737 113.73 116.16 113.986 115.661 114.36C115.127 114.759 114.666 115.247 114.299 115.804C113.903 116.4 113.598 117.052 113.394 117.738C113.178 118.459 113.072 119.208 113.079 119.961V411.965C113.069 413.464 113.493 414.933 114.299 416.196C114.667 416.775 115.127 417.291 115.661 417.722C116.156 418.123 116.732 418.414 117.349 418.573L328.843 465.724C329.741 465.917 330.67 465.917 331.567 465.724C332.381 465.548 333.141 465.181 333.785 464.653C334.428 464.124 334.936 463.451 335.267 462.687C335.631 461.843 335.807 460.93 335.785 460.011V85.3032C335.805 84.3744 335.629 83.4519 335.267 82.5961C334.935 81.8102 334.429 81.1091 333.789 80.5449C333.148 79.9808 332.389 79.5679 331.567 79.3368C330.681 79.0908 329.752 79.0357 328.843 79.1754L117.349 113.61Z" fill="white"/>
<path d="M144.351 153.379C144.065 153.413 143.792 153.511 143.551 153.668C143.298 153.832 143.077 154.041 142.9 154.285C142.709 154.546 142.561 154.836 142.461 155.143C142.354 155.469 142.3 155.809 142.299 156.152V167.843C142.298 168.175 142.353 168.505 142.461 168.819C142.558 169.101 142.706 169.361 142.899 169.588C143.077 169.797 143.3 169.964 143.551 170.077C143.802 170.187 144.077 170.232 144.35 170.207L286.804 157.643C287.191 157.607 287.567 157.492 287.909 157.307C288.251 157.122 288.557 156.877 288.812 156.583C289.073 156.285 289.28 155.943 289.423 155.574C289.571 155.196 289.648 154.794 289.65 154.388V140.581C289.652 140.189 289.575 139.801 289.425 139.438C289.286 139.102 289.078 138.799 288.815 138.548C288.556 138.303 288.248 138.117 287.911 138.002C287.555 137.882 287.178 137.841 286.804 137.883L144.351 153.379Z" fill="#00AEEF"/>
<path d="M143.58 192.217C143.509 192.221 143.44 192.243 143.378 192.279C143.315 192.317 143.26 192.367 143.215 192.426C143.168 192.489 143.131 192.56 143.106 192.635C143.079 192.716 143.065 192.8 143.065 192.885V197.453C143.065 197.537 143.079 197.62 143.106 197.699C143.13 197.77 143.167 197.837 143.215 197.895C143.26 197.949 143.315 197.993 143.378 198.023C143.441 198.053 143.511 198.067 143.58 198.063L288.582 190.205C288.678 190.2 288.772 190.174 288.859 190.131C288.944 190.088 289.021 190.029 289.085 189.957C289.219 189.808 289.293 189.615 289.293 189.415V184.029C289.294 183.93 289.275 183.832 289.237 183.74C289.202 183.654 289.15 183.576 289.085 183.511C289.019 183.445 288.94 183.394 288.854 183.362C288.767 183.329 288.674 183.315 288.582 183.321L143.58 192.217Z" fill="#EAF2FC"/>
<path d="M143.58 207.074C143.509 207.078 143.44 207.098 143.378 207.134C143.315 207.171 143.26 207.219 143.215 207.278C143.168 207.34 143.13 207.41 143.106 207.485C143.079 207.565 143.065 207.649 143.065 207.734V212.302C143.065 212.386 143.079 212.47 143.106 212.549C143.13 212.622 143.167 212.691 143.215 212.751C143.26 212.805 143.315 212.85 143.378 212.881C143.441 212.912 143.51 212.927 143.58 212.924L288.582 207.701C288.678 207.698 288.772 207.675 288.859 207.634C288.944 207.592 289.021 207.535 289.085 207.465C289.219 207.317 289.293 207.126 289.293 206.926V201.538C289.294 201.439 289.275 201.34 289.237 201.248C289.202 201.161 289.15 201.083 289.085 201.016C289.02 200.951 288.944 200.899 288.859 200.865C288.771 200.829 288.676 200.813 288.582 200.818L143.58 207.074Z" fill="#EAF2FC"/>
<path d="M143.58 221.933C143.509 221.935 143.44 221.953 143.378 221.988C143.316 222.024 143.261 222.072 143.217 222.129C143.169 222.19 143.132 222.26 143.108 222.334C143.081 222.414 143.067 222.498 143.067 222.583V227.151C143.067 227.235 143.081 227.318 143.108 227.398C143.132 227.471 143.169 227.54 143.217 227.6C143.262 227.656 143.317 227.701 143.38 227.734C143.443 227.767 143.512 227.783 143.582 227.782L288.581 225.198C288.678 225.195 288.772 225.172 288.859 225.13C288.944 225.09 289.021 225.034 289.085 224.965C289.15 224.895 289.202 224.813 289.237 224.724C289.274 224.631 289.293 224.531 289.293 224.431V219.047C289.294 218.947 289.275 218.848 289.237 218.756C289.202 218.668 289.15 218.589 289.085 218.521C289.021 218.453 288.944 218.399 288.859 218.362C288.771 218.326 288.676 218.309 288.581 218.312L143.58 221.933Z" fill="#EAF2FC"/>
<path d="M143.324 251.608C143.253 251.607 143.184 251.624 143.122 251.656C143.059 251.689 143.003 251.735 142.959 251.791C142.912 251.851 142.875 251.919 142.851 251.992C142.825 252.072 142.811 252.155 142.811 252.239V256.806C142.811 256.891 142.825 256.975 142.851 257.055C142.876 257.128 142.913 257.196 142.961 257.257C143.005 257.314 143.061 257.361 143.124 257.397C143.186 257.431 143.255 257.449 143.326 257.45L288.228 260.135C288.323 260.137 288.417 260.119 288.505 260.081C288.59 260.045 288.667 259.992 288.731 259.925C288.796 259.857 288.848 259.776 288.884 259.689C288.921 259.596 288.94 259.497 288.939 259.397V254.015C288.94 253.914 288.921 253.815 288.884 253.722C288.848 253.633 288.796 253.551 288.731 253.481C288.667 253.412 288.59 253.357 288.505 253.317C288.418 253.277 288.324 253.256 288.228 253.255L143.324 251.608Z" fill="#EAF2FC"/>
<path d="M143.324 266.462C143.254 266.46 143.184 266.475 143.122 266.507C143.059 266.539 143.003 266.585 142.959 266.641C142.911 266.701 142.874 266.77 142.849 266.843C142.824 266.921 142.811 267.002 142.811 267.084V271.65C142.811 271.735 142.825 271.819 142.851 271.9C142.876 271.974 142.913 272.044 142.961 272.106C143.005 272.164 143.061 272.213 143.124 272.249C143.185 272.284 143.255 272.304 143.326 272.307L288.228 277.627C288.323 277.631 288.417 277.614 288.505 277.578C288.59 277.543 288.667 277.491 288.731 277.426C288.796 277.359 288.848 277.279 288.884 277.192C288.921 277.1 288.94 277.001 288.939 276.902V271.518C288.939 271.417 288.92 271.318 288.884 271.224C288.848 271.134 288.796 271.052 288.731 270.98C288.667 270.911 288.59 270.854 288.505 270.813C288.418 270.772 288.324 270.749 288.228 270.746L143.324 266.462Z" fill="#EAF2FC"/>
<path d="M143.324 281.314C143.255 281.312 143.186 281.326 143.124 281.357C143.061 281.388 143.006 281.431 142.961 281.484C142.913 281.543 142.876 281.61 142.851 281.681C142.824 281.761 142.811 281.843 142.811 281.927V286.494C142.811 286.579 142.825 286.663 142.851 286.744C142.876 286.819 142.913 286.889 142.961 286.952C143.005 287.011 143.061 287.06 143.124 287.098C143.185 287.134 143.254 287.155 143.326 287.159L288.228 295.115C288.321 295.121 288.414 295.106 288.5 295.073C288.587 295.04 288.665 294.989 288.731 294.923C288.796 294.857 288.848 294.779 288.884 294.692C288.921 294.6 288.94 294.502 288.939 294.403V289.019C288.939 288.82 288.864 288.629 288.731 288.481C288.667 288.41 288.59 288.352 288.505 288.31C288.419 288.267 288.324 288.242 288.228 288.237L143.324 281.314Z" fill="#EAF2FC"/>
<path d="M143.324 296.241C143.254 296.236 143.185 296.249 143.122 296.278C143.06 296.308 143.005 296.351 142.961 296.405C142.913 296.462 142.876 296.529 142.851 296.6C142.824 296.679 142.811 296.762 142.811 296.845V301.412C142.811 301.497 142.825 301.582 142.851 301.663C142.876 301.739 142.913 301.81 142.961 301.873C143.005 301.933 143.061 301.983 143.124 302.022C143.185 302.06 143.254 302.083 143.326 302.089L288.226 312.692C288.319 312.699 288.414 312.686 288.502 312.653C288.587 312.622 288.664 312.572 288.728 312.509C288.794 312.444 288.846 312.367 288.881 312.281C288.918 312.19 288.937 312.092 288.937 311.993V306.608C288.937 306.507 288.918 306.407 288.881 306.312C288.845 306.221 288.793 306.137 288.728 306.063C288.664 305.991 288.588 305.932 288.502 305.887C288.416 305.843 288.322 305.817 288.226 305.81L143.324 296.241Z" fill="#EAF2FC"/>
<path d="M143.324 311.094C143.255 311.088 143.185 311.1 143.122 311.128C143.06 311.157 143.005 311.2 142.961 311.253C142.913 311.309 142.876 311.374 142.851 311.444C142.824 311.523 142.811 311.605 142.811 311.688V316.255C142.811 316.34 142.825 316.425 142.851 316.507C142.876 316.583 142.913 316.655 142.961 316.719C143.005 316.779 143.061 316.831 143.124 316.87C143.185 316.908 143.254 316.931 143.326 316.938L288.226 330.181C288.319 330.19 288.413 330.178 288.502 330.147C288.587 330.117 288.664 330.069 288.728 330.006C288.794 329.943 288.846 329.866 288.881 329.782C288.918 329.691 288.937 329.593 288.937 329.495V324.11C288.937 324.008 288.918 323.907 288.881 323.813C288.845 323.721 288.793 323.635 288.728 323.561C288.664 323.488 288.588 323.427 288.502 323.381C288.416 323.335 288.322 323.307 288.226 323.298L143.324 311.094Z" fill="#EAF2FC"/>
<path d="M143.324 325.947C143.255 325.94 143.186 325.95 143.122 325.977C143.06 326.004 143.005 326.045 142.961 326.097C142.913 326.153 142.875 326.218 142.851 326.288C142.824 326.367 142.811 326.449 142.811 326.532V331.099C142.811 331.185 142.825 331.27 142.851 331.351C142.876 331.428 142.913 331.501 142.961 331.566C143.005 331.627 143.061 331.679 143.124 331.721C143.185 331.76 143.254 331.784 143.326 331.793L288.226 347.669C288.319 347.68 288.413 347.67 288.502 347.64C288.586 347.612 288.663 347.566 288.728 347.506C288.794 347.443 288.846 347.368 288.881 347.284C288.918 347.193 288.937 347.095 288.937 346.997V341.611C288.936 341.509 288.918 341.408 288.881 341.313C288.845 341.22 288.793 341.134 288.728 341.059C288.664 340.985 288.588 340.922 288.502 340.875C288.417 340.827 288.323 340.798 288.226 340.787L143.324 325.947Z" fill="#EAF2FC"/>
<path d="M143.324 340.875C143.255 340.866 143.186 340.875 143.122 340.901C143.06 340.926 143.005 340.965 142.961 341.015C142.912 341.071 142.875 341.136 142.851 341.207C142.824 341.285 142.811 341.367 142.811 341.45V346.017C142.811 346.102 142.825 346.188 142.851 346.269C142.876 346.347 142.913 346.42 142.961 346.486C143.005 346.548 143.061 346.601 143.124 346.643C143.184 346.684 143.254 346.71 143.326 346.719L288.226 365.246C288.318 365.258 288.413 365.25 288.502 365.222C288.586 365.195 288.664 365.149 288.728 365.088C288.794 365.026 288.846 364.952 288.881 364.869C288.918 364.778 288.937 364.681 288.937 364.583V359.201C288.936 359.099 288.918 358.997 288.881 358.902C288.845 358.808 288.793 358.721 288.728 358.645C288.664 358.569 288.588 358.505 288.502 358.456C288.417 358.407 288.323 358.376 288.226 358.364L143.324 340.875Z" fill="#EAF2FC"/>
<path d="M143.324 355.728C143.256 355.718 143.186 355.726 143.122 355.751C143.06 355.776 143.005 355.815 142.961 355.864C142.913 355.919 142.875 355.982 142.851 356.051C142.824 356.129 142.811 356.211 142.811 356.293V360.86C142.811 360.946 142.825 361.032 142.851 361.114C142.876 361.192 142.913 361.266 142.961 361.332C143.006 361.395 143.061 361.449 143.124 361.492C143.184 361.534 143.253 361.561 143.326 361.572L288.226 382.735C288.318 382.749 288.412 382.742 288.502 382.716C288.586 382.691 288.663 382.647 288.728 382.588C288.794 382.528 288.846 382.454 288.881 382.372C288.918 382.281 288.937 382.185 288.937 382.087V376.702C288.936 376.6 288.917 376.498 288.881 376.403C288.845 376.308 288.793 376.22 288.728 376.143C288.664 376.066 288.588 376.001 288.502 375.951C288.417 375.9 288.323 375.867 288.226 375.853L143.324 355.728Z" fill="#EAF2FC"/>
<path d="M143.324 370.581C143.256 370.569 143.186 370.576 143.122 370.599C143.06 370.623 143.005 370.661 142.961 370.71C142.913 370.764 142.875 370.827 142.851 370.895C142.824 370.973 142.811 371.055 142.811 371.137V375.704C142.811 375.79 142.825 375.876 142.851 375.959C142.877 376.037 142.914 376.112 142.961 376.179C143.005 376.243 143.061 376.298 143.124 376.343C143.184 376.385 143.253 376.413 143.326 376.425L288.226 400.223C288.318 400.239 288.412 400.235 288.502 400.21C288.586 400.186 288.663 400.144 288.728 400.086C288.794 400.027 288.846 399.954 288.881 399.872C288.918 399.783 288.937 399.686 288.937 399.589V394.204C288.936 394.101 288.917 393.999 288.881 393.903C288.845 393.807 288.793 393.718 288.728 393.64C288.664 393.562 288.588 393.496 288.502 393.443C288.417 393.391 288.323 393.357 288.226 393.34L143.324 370.581Z" fill="#EAF2FC"/>
<path d="M331.886 392.626C339.841 393.863 347.496 396.568 354.461 400.604C369.102 409.085 380.542 422.15 387.014 437.781C390.25 445.566 391.943 453.905 391.997 462.335C392.084 470.117 390.379 477.814 387.014 484.831C383.938 491.152 379.351 496.618 373.659 500.745C367.965 504.826 361.386 507.503 354.461 508.561C346.925 509.688 339.237 509.23 331.888 507.216C324.152 505.138 316.841 501.72 310.286 497.118C303.839 492.613 298.118 487.149 293.322 480.916C288.616 474.837 284.869 468.073 282.211 460.86C279.598 453.807 278.241 446.352 278.201 438.832C278.139 431.839 279.503 424.908 282.211 418.461C284.725 412.498 288.557 407.182 293.419 402.911C298.281 398.64 304.048 395.525 310.286 393.801C317.321 391.877 324.685 391.477 331.886 392.626Z" fill="#00AEEF"/>
<path d="M326.512 472.866L309.995 447.489L319.533 441.817L327.437 453.802L355.094 430.021L364.689 440.745L326.512 472.866Z" fill="white"/>
<path d="M205.918 443.295L202.933 401.936L208.294 363.179L193.067 362.151L190.061 404.964L198.556 445.224C197.832 446.224 197.436 447.423 197.42 448.657C197.404 449.891 197.77 451.1 198.467 452.118C199.164 453.136 200.16 453.914 201.316 454.346C202.473 454.777 203.734 454.84 204.928 454.528C206.123 454.215 207.191 453.541 207.987 452.598C208.784 451.655 209.269 450.489 209.377 449.26C209.486 448.03 209.212 446.797 208.592 445.73C207.973 444.662 207.039 443.812 205.918 443.295Z" fill="#FFB7B7"/>
<path d="M191.124 367.722L194.7 352.251C195.384 349.288 197.176 346.7 199.709 345.015C202.241 343.331 205.322 342.679 208.319 343.192C211.317 343.705 214.005 345.345 215.833 347.776C217.66 350.206 218.488 353.244 218.148 356.265L216.179 373.747L191.124 367.722Z" fill="#EAF2FC"/>
<path d="M219.314 578.043L226.493 578.042L229.907 550.36L219.313 550.361L219.314 578.043Z" fill="#FFB7B7"/>
<path d="M217.483 575.7L231.62 575.699H231.621C234.01 575.699 236.302 576.648 237.991 578.337C239.681 580.027 240.63 582.317 240.63 584.706V584.999L217.483 585L217.483 575.7Z" fill="#2F2E41"/>
<path d="M255.078 577.808L261.979 575.832L257.638 548.28L247.452 551.197L255.078 577.808Z" fill="#FFB7B7"/>
<path d="M252.672 576.06L266.263 572.168L266.264 572.167C268.561 571.51 271.025 571.791 273.115 572.95C275.204 574.109 276.748 576.05 277.406 578.346L277.486 578.628L255.234 585L252.672 576.06Z" fill="#2F2E41"/>
<path d="M215.434 567.996L218.773 484.14L210.101 446.192C198.431 426.63 211.021 395.427 211.15 395.114L211.196 395L211.319 394.983L241.847 390.848L242.275 391.832C254.216 419.124 257.53 449.413 251.773 478.64L248.596 494.887L264.299 558.273L249.437 565.702L238.034 536.141L230.327 566.386L215.434 567.996Z" fill="#2F2E41"/>
<path d="M207.129 402.892L197.17 373.717C190.978 362.817 194.905 353.14 199.29 346.941C204.025 340.247 204.31 336.493 204.373 336.452L204.423 336.418L217.508 336.022L229.618 348.324C230.38 348.027 236.814 363.879 236.269 364.676L244.727 392.011L207.129 402.892Z" fill="#EAF2FC"/>
<path d="M287.77 407.937L254.962 382.566L229.662 352.715L218.737 363.369L248.63 394.172L284.295 414.706C284.558 415.912 285.186 417.008 286.095 417.843C287.004 418.678 288.148 419.212 289.373 419.372C290.597 419.532 291.84 419.31 292.933 418.737C294.026 418.163 294.915 417.266 295.479 416.168C296.043 415.07 296.253 413.825 296.082 412.603C295.911 411.38 295.366 410.241 294.522 409.34C293.678 408.439 292.577 407.821 291.368 407.57C290.16 407.319 288.903 407.447 287.77 407.937Z" fill="#FFB7B7"/>
<path d="M215.632 374.164L206.491 361.179C204.74 358.692 204.007 355.631 204.442 352.621C204.876 349.612 206.445 346.882 208.828 344.992C211.21 343.102 214.226 342.195 217.256 342.456C220.286 342.716 223.102 344.126 225.126 346.395L236.838 359.525L215.632 374.164Z" fill="#EAF2FC"/>
<path d="M209.427 332.445C218.008 332.445 224.965 325.49 224.965 316.911C224.965 308.331 218.008 301.376 209.427 301.376C200.845 301.376 193.888 308.331 193.888 316.911C193.888 325.49 200.845 332.445 209.427 332.445Z" fill="#FFB7B7"/>
<path d="M225.226 309.03H200.553V298.278C205.968 296.127 211.268 294.298 214.471 298.278C217.323 298.278 220.059 299.411 222.076 301.427C224.093 303.444 225.226 306.178 225.226 309.03V309.03Z" fill="#2F2E41"/>
<path d="M203.953 295.699C181.348 295.082 185.628 332.315 185.628 332.315C185.628 332.315 189.893 332.879 191.839 333.21L194.19 331.887L196.719 333.545C197.88 333.551 199.1 333.528 200.364 333.505L201.524 331.118L204.109 333.462C208.815 333.469 221.586 333.599 221.586 333.599C221.586 333.599 229.283 296.391 203.953 295.699Z" fill="#2F2E41"/>
<path d="M112.871 359.492C112.96 358.764 112.889 358.025 112.661 357.327C112.434 356.63 112.057 355.991 111.556 355.455C111.054 354.919 110.442 354.499 109.761 354.226C109.08 353.952 108.348 353.831 107.615 353.871L102.649 343.536L95.6299 345.021L102.849 359.519C102.998 360.745 103.591 361.873 104.517 362.691C105.443 363.509 106.636 363.959 107.872 363.956C109.107 363.952 110.298 363.496 111.22 362.673C112.141 361.851 112.729 360.719 112.871 359.492H112.871Z" fill="#FFB7B7"/>
<path d="M5.05029 479.493L10.8918 482.482L25.203 461.378L16.5813 456.967L5.05029 479.493Z" fill="#FFB7B7"/>
<path d="M4.53643 476.824L16.0407 482.71L16.0411 482.71C17.9854 483.705 19.4547 485.431 20.1259 487.509C20.7972 489.587 20.6153 491.847 19.6203 493.791L19.4984 494.029L0.662598 484.392L4.53643 476.824Z" fill="#2F2E41"/>
<path d="M72.5183 487.669H79.0799L82.2015 462.364L72.5166 462.365L72.5183 487.669Z" fill="#FFB7B7"/>
<path d="M70.8442 485.527L83.7674 485.527H83.7679C85.9521 485.527 88.0468 486.394 89.5912 487.938C91.1357 489.483 92.0034 491.577 92.0036 493.76V494.028L70.8446 494.029L70.8442 485.527Z" fill="#2F2E41"/>
<path d="M41.823 281.267C41.823 281.267 37.4287 277.901 37.4287 286.123L36.7349 313.291L44.4827 338.956L48.9926 330.632L47.1424 312.597L41.823 281.267Z" fill="#00AEEF"/>
<path d="M88.8293 355.577C88.8293 355.577 93.9249 380.386 87.4705 400.747L83.9035 479.029L70.8248 478.01L66.2387 419.935L61.8225 391.067L52.6504 417.388L22.4163 473.086L8.48828 462.218C8.48828 462.218 23.9228 420.115 35.3253 411.275L41.0439 346.158L88.8293 355.577Z" fill="#2F2E41"/>
<path d="M73.3262 248.097C81.5622 248.097 88.2388 241.422 88.2388 233.189C88.2388 224.955 81.5622 218.28 73.3262 218.28C65.0902 218.28 58.4136 224.955 58.4136 233.189C58.4136 241.422 65.0902 248.097 73.3262 248.097Z" fill="#FFB8B8"/>
<path d="M72.2709 236.351C74.0585 236.583 75.407 234.755 76.0325 233.064C76.6579 231.374 77.1344 229.406 78.6887 228.493C80.8121 227.246 83.5289 228.746 85.9572 228.334C88.6994 227.87 90.4824 224.964 90.6221 222.187C90.7619 219.41 89.6564 216.739 88.5717 214.178L88.1931 217.36C88.2437 216.282 88.0167 215.209 87.5338 214.243C87.0508 213.277 86.3281 212.451 85.4348 211.845L85.9228 216.514C85.819 215.87 85.5889 215.252 85.2458 214.697C84.9027 214.142 84.4533 213.66 83.9234 213.279C83.3936 212.898 82.7937 212.626 82.1581 212.477C81.5226 212.329 80.864 212.307 80.2201 212.413L80.2969 215.195C77.1421 214.709 73.9452 214.553 70.758 214.729C67.5493 214.914 64.4786 216.097 61.9749 218.112C58.3734 221.241 57.0581 226.392 57.4997 231.142C57.9413 235.891 59.9024 240.353 61.9462 244.663C62.4605 245.747 63.1717 246.971 64.3642 247.109C64.9048 247.117 65.4326 246.944 65.8644 246.619C66.2962 246.294 66.6074 245.834 66.749 245.312C67.0057 244.26 66.9957 243.16 66.7201 242.113C66.298 240.536 66.1633 238.896 66.3222 237.271C66.6056 235.667 67.7599 234.082 69.3773 233.885C70.9948 233.689 72.6499 235.537 71.8722 236.969L72.2709 236.351Z" fill="#2F2E41"/>
<path d="M59.0534 253.521L62.1756 249.188C62.1756 249.188 65.6655 250.373 75.0116 255.024L75.6719 259.084L91.895 358.841L62.4069 357.57L54.3768 357.399L48.5084 357.274L40.6667 357.107L40.5511 328.436L43.0952 306.47L39.1634 285.776C39.1634 285.776 34.2159 266.773 53.2714 256.527L59.0534 253.521Z" fill="#00AEEF"/>
<path d="M99.9214 354.185L100.992 357.931L108.485 353.051L105.658 349.816L99.9214 354.185Z" fill="#EAF2FC"/>
<path d="M64.6313 265.578C64.6313 265.578 76.2472 250.753 83.268 267.276L85.4815 284.593C85.4815 284.593 93.9866 306.117 94.2424 314.825C94.2424 314.825 100.009 326.191 99.9557 332.16L108.486 351.467L99.7368 356.897L75.5236 319.781L64.6313 265.578Z" fill="#00AEEF"/>
</g>
<defs>
<clipPath id="clip0_780_2053">
<rect width="392" height="585" fill="white"/>
</clipPath>
</defs>
</svg>
