<svg width="56" height="57" viewBox="0 0 56 57" fill="none" xmlns="http://www.w3.org/2000/svg">
<circle opacity="0.88" cx="28" cy="28.3848" r="27.5" fill="url(#paint0_radial_602_2542)" fill-opacity="0.7" stroke="#002E6A"/>
<path d="M30.833 25.5322C30.833 26.1064 30.7217 26.6045 30.499 27.0264C30.2764 27.4482 29.9658 27.7939 29.5674 28.0635C29.1689 28.3271 28.7002 28.5117 28.1611 28.6172V28.6875C29.1807 28.8164 29.9453 29.1445 30.4551 29.6719C30.9707 30.1992 31.2285 30.8906 31.2285 31.7461C31.2285 32.4902 31.0527 33.1494 30.7012 33.7236C30.3555 34.2979 29.8223 34.749 29.1016 35.0771C28.3867 35.3994 27.4697 35.5605 26.3506 35.5605C25.6709 35.5605 25.041 35.5049 24.4609 35.3936C23.8867 35.2881 23.3359 35.1094 22.8086 34.8574V33.4863C23.3418 33.75 23.9219 33.958 24.5488 34.1104C25.1758 34.2568 25.7822 34.3301 26.3682 34.3301C27.54 34.3301 28.3867 34.0986 28.9082 33.6357C29.4297 33.167 29.6904 32.5283 29.6904 31.7197C29.6904 31.1631 29.5439 30.7148 29.251 30.375C28.9639 30.0293 28.5479 29.7773 28.0029 29.6191C27.4639 29.4551 26.8135 29.373 26.0518 29.373H24.7686V28.125H26.0605C26.7578 28.125 27.3496 28.0225 27.8359 27.8174C28.3223 27.6123 28.6914 27.3252 28.9434 26.9561C29.2012 26.5811 29.3301 26.1387 29.3301 25.6289C29.3301 24.9785 29.1133 24.4775 28.6797 24.126C28.2461 23.7686 27.6572 23.5898 26.9131 23.5898C26.4561 23.5898 26.04 23.6367 25.665 23.7305C25.29 23.8242 24.9385 23.9531 24.6104 24.1172C24.2822 24.2812 23.9541 24.4717 23.626 24.6885L22.8877 23.6865C23.3564 23.3232 23.9277 23.0098 24.6016 22.7461C25.2754 22.4824 26.04 22.3506 26.8955 22.3506C28.208 22.3506 29.1924 22.6494 29.8486 23.2471C30.5049 23.8447 30.833 24.6064 30.833 25.5322Z" fill="black"/>
<defs>
<radialGradient id="paint0_radial_602_2542" cx="0" cy="0" r="1" gradientUnits="userSpaceOnUse" gradientTransform="translate(28 28.3848) rotate(90) scale(28)">
<stop offset="0.916667" stop-color="#00AEEF"/>
<stop offset="1" stop-color="white" stop-opacity="0.36"/>
</radialGradient>
</defs>
</svg>
