<svg width="172" height="160" viewBox="0 0 172 160" fill="none" xmlns="http://www.w3.org/2000/svg">
<path d="M87.5 162C119.256 162 145 157.523 145 152C145 146.477 119.256 142 87.5 142C55.7436 142 30 146.477 30 152C30 157.523 55.7436 162 87.5 162Z" fill="#002E6A"/>
<path d="M39 56C39 41.0883 60.7142 29 87.5 29C114.286 29 136 41.0883 136 56" stroke="#002E6A" stroke-width="2" stroke-miterlimit="10"/>
<path d="M103 39H63.813C56.0623 26 56.0623 13 63.813 0H103C92.1628 13 92.1628 26 103 39Z" fill="#EAF2FC"/>
<path d="M91 5H69V8H91V5Z" fill="#00AEEF"/>
<path d="M91 14H62V15H91V14Z" fill="white"/>
<path d="M91 19H62V20H91V19Z" fill="white"/>
<path d="M91 24H62V25H91V24Z" fill="white"/>
<path d="M119 127C119 139.713 126.604 150 136 150L119 127Z" fill="#002E6A"/>
<path d="M136 150C136 137.287 144.945 127 156 127L136 150Z" fill="#00AEEF"/>
<path d="M125 128C125 140.16 129.92 150 136 150L125 128Z" fill="#00AEEF"/>
<path d="M136 150C136 133.418 146.287 120 159 120L136 150Z" fill="#002E6A"/>
<path d="M133 149.43C133 149.43 135.419 149.348 136.148 148.781C136.877 148.213 139.868 147.535 140.049 148.445C140.23 149.356 143.684 152.975 140.953 152.999C138.223 153.023 134.608 152.534 133.881 152.049C133.153 151.564 133 149.43 133 149.43Z" fill="#EAF2FC"/>
<path opacity="0.2" d="M141.003 152.733C138.272 152.753 134.657 152.342 133.93 151.935C133.375 151.625 133.155 150.513 133.081 150C133.03 150.002 133 150.003 133 150.003C133 150.003 133.153 151.795 133.881 152.202C134.608 152.609 138.223 153.02 140.954 152.999C141.742 152.993 142.014 152.736 141.999 152.354C141.89 152.585 141.589 152.729 141.003 152.733Z" fill="black"/>
<path d="M78.7295 30.9668C78.9669 31.0707 79.2524 30.9159 79.3923 30.7054C79.9251 29.904 78.9442 28.8707 79.1566 27.9435C79.3267 27.2007 80.211 26.7597 80.3918 26.0192C80.5674 25.2996 80.0261 24.4885 80.392 23.8374C80.6786 23.3273 81.3946 23.1931 81.9937 23.2825C82.5928 23.3718 83.1615 23.6232 83.7667 23.6585C84.5732 23.7054 85.342 23.3665 86.1306 23.1986C86.9192 23.0306 87.8812 23.0964 88.3451 23.7279C88.9408 24.5388 88.3365 25.6679 88.5439 26.6383C88.7086 27.4089 89.3844 28.0469 89.3989 28.8333C89.4041 29.1127 88.6344 28.8876 88.6753 29.1644C88.7162 29.4412 88.3525 29.1975 88.6432 29.1646C88.762 29.1368 88.8684 29.0737 88.9471 28.9844C89.0257 28.8951 89.0726 28.7841 89.0809 28.6677C89.1154 28.4372 89.5692 28.3603 89.564 28.1275C89.5517 27.5818 90.5852 27.9497 90.7554 27.4287C91.1468 26.214 91.0665 24.9054 90.5292 23.7426C90.2974 23.2462 89.9818 22.7764 89.8699 22.2435C89.7181 21.52 89.957 20.7433 89.7066 20.0452C89.3692 19.1045 88.2526 18.6249 87.2159 18.5275C86.1792 18.4301 85.1258 18.6044 84.095 18.4608C83.1717 18.3321 82.2777 17.9501 81.3464 18.0054C80.2288 18.0719 79.2564 18.7592 78.4817 19.531C77.707 20.3028 77.0499 21.1905 76.1701 21.8517C75.9007 22.0286 75.6522 22.2329 75.4289 22.4608C74.9808 22.9821 74.9353 23.7247 75.06 24.3885C75.1846 25.0523 75.4559 25.6854 75.5704 26.3508C75.678 26.9762 75.6448 27.6151 75.6912 28.2472C75.7376 28.8794 75.875 29.5308 76.2739 30.0374C76.4335 30.2443 76.6406 30.4137 76.8792 30.5328C77.1179 30.6518 77.3818 30.7172 77.651 30.7242C77.8375 30.7283 77.995 30.5683 78.1832 30.61C78.4184 30.6622 78.5207 30.8754 78.7295 30.9668Z" fill="#002E6A"/>
<path d="M71 77.4167L71.6666 81L73 79.4166L72.238 77L71 77.4167Z" fill="#FFB8B8"/>
<path d="M71.9701 46L70.9831 48.7704C70.9831 48.7704 70 62.8815 70 63.9306C70 64.9798 70.7164 78.4277 70.9851 79C70.9851 79 72.1492 77.1879 73.6716 77.474C75.194 77.7601 74.5672 72.7052 74.5672 72.7052L76 60.211L75.7313 53.9162L71.9701 46Z" fill="#575A89"/>
<path opacity="0.1" d="M71.9701 46L70.9831 48.7704C70.9831 48.7704 70 62.8815 70 63.9306C70 64.9798 70.7164 78.4277 70.9851 79C70.9851 79 72.1492 77.1879 73.6716 77.474C75.194 77.7601 74.5672 72.7052 74.5672 72.7052L76 60.211L75.7313 53.9162L71.9701 46Z" fill="black"/>
<path d="M78 30.9783C78 30.9783 81.3 39.1065 79.4 40.6548C77.5 42.203 90 38.0421 90 38.0421L89.7 36.9777C89.7 36.9777 85.6 35.4295 87.6 30.9783C89.6 26.5271 78 30.9783 78 30.9783Z" fill="#FFB8B8"/>
<path opacity="0.1" d="M78 30.9783C78 30.9783 81.3 39.1065 79.4 40.6548C77.5 42.203 90 38.0421 90 38.0421L89.7 36.9777C89.7 36.9777 85.6 35.4295 87.6 30.9783C89.6 26.5271 78 30.9783 78 30.9783Z" fill="black"/>
<path d="M73.5774 138.07C73.5774 138.07 72.2956 137.717 71.5632 138.599C70.8308 139.482 68.0843 141.688 68.0843 141.688C68.0843 141.688 62.7744 141.159 62.042 143.718C61.3096 146.278 70.3731 146.278 72.5703 145.66C74.7675 145.042 75.2253 145.66 75.2253 145.66C75.2253 145.66 82 146.19 82 145.13C82 144.071 81.3591 140.453 81.3591 140.453L73.5774 138.07Z" fill="#575A89"/>
<path d="M95.4412 144.165L94.2232 147.884C94.2232 147.884 90.569 152.905 92.6304 153.927C94.6917 154.95 102 155.973 102 153.277V148.163C102 148.163 101.25 144.537 100.501 144.165C99.7513 143.793 95.4412 144.165 95.4412 144.165Z" fill="#575A89"/>
<path d="M74.9246 76.1924C74.9246 76.1924 70.9064 79.6539 71.0017 80.1263C71.097 80.5988 73.0031 110.931 73.0031 110.931L74.0515 130.585C74.0515 130.585 72.7172 135.215 73.3843 136.255C74.0515 137.294 72.4313 137.578 72.4313 137.578C72.4313 137.578 79.2933 143.72 82.1525 141.074L84.8211 106.773L92.1596 131.719C92.1596 131.719 93.3986 144.948 94.8282 144.948C96.2578 144.948 102.071 145.231 101.976 144.475C101.881 143.72 102.262 137.956 101.595 134.554C100.928 131.152 96.4484 104.222 96.4484 104.222C96.4484 104.222 96.0633 81.135 97.066 78.977C98.0686 76.8191 96.5437 74.5513 96.5437 74.5513L89.8723 72L81.8666 72.9449L74.9246 76.1924Z" fill="#002E6A"/>
<path d="M83 34C86.866 34 90 31.0899 90 27.5C90 23.9102 86.866 21 83 21C79.134 21 76 23.9102 76 27.5C76 31.0899 79.134 34 83 34Z" fill="#FFB8B8"/>
<path d="M99 41.7019C98.673 40.7721 98.1218 39.9383 97.3957 39.2749C96.6697 38.6116 95.7913 38.1394 94.8392 37.9006C92.9317 37.4185 91.066 36.7829 89.2599 36C89.2599 36 82.5459 39.2311 81.222 39.2311C79.8981 39.2311 79.8981 38.3758 79.8981 38.3758C79.8981 38.3758 76.4938 41.987 74.6971 42.3672C72.9004 42.7473 70.2526 47.2138 71.1982 49.6847C71.8405 51.2687 72.7705 52.7189 73.9406 53.9611C73.9406 53.9611 73.5623 67.2657 74.7917 69.7365C74.7917 69.7365 71.7656 75.5335 74.6025 75.9136C77.4395 76.2937 88.3143 74.9633 90.2056 76.2937C92.0968 77.6242 95.5957 76.0086 96.0685 77.8143C96.5413 79.6199 97.5816 80 97.5816 80C97.5816 80 99.1891 77.4341 98.2435 75.9136C97.2979 74.3931 99 41.7019 99 41.7019Z" fill="#575A89"/>
<path d="M91.685 78L90 78.9851C90 78.9851 91.7903 84.7975 92.5275 84.9945C93.2647 85.1915 95 80.0246 95 80.0246L91.685 78Z" fill="#FFB8B8"/>
<path d="M77.4964 29.9668C77.7189 30.0707 77.9866 29.9159 78.1178 29.7054C78.6173 28.904 77.6977 27.8707 77.8968 26.9435C78.0563 26.2007 78.8853 25.7597 79.0548 25.0192C79.2195 24.2996 78.712 23.4885 79.055 22.8374C79.3237 22.3273 79.995 22.1931 80.5566 22.2825C81.1183 22.3718 81.6514 22.6232 82.2188 22.6585C82.9749 22.7054 83.6956 22.3665 84.435 22.1986C85.1743 22.0306 86.0761 22.0964 86.511 22.7279C87.0695 23.5388 86.503 24.6679 86.6974 25.6383C86.8518 26.4089 88.6111 26.9497 88.7707 26.4287C89.1376 25.214 89.0623 23.9054 88.5586 22.7426C88.3413 22.2462 88.0454 21.7764 87.9406 21.2435C87.7983 20.52 88.0222 19.7433 87.7874 19.0452C87.4711 18.1045 86.4243 17.6249 85.4524 17.5275C84.4805 17.4301 83.4929 17.6044 82.5266 17.4608C81.6609 17.3321 80.8229 16.9501 79.9497 17.0054C78.902 17.0719 77.9903 17.7592 77.2641 18.531C76.5378 19.3028 75.9218 20.1905 75.097 20.8517C74.8444 21.0286 74.6115 21.2329 74.4021 21.4608C73.982 21.9821 73.9394 22.7247 74.0562 23.3885C74.1731 24.0523 74.4274 24.6854 74.5348 25.3508C74.6357 25.9762 74.6045 26.6151 74.648 27.2472C74.6915 27.8794 74.8203 28.5308 75.1942 29.0374C75.344 29.2443 75.5381 29.4137 75.7618 29.5328C75.9855 29.6518 76.233 29.7172 76.4853 29.7242C76.6601 29.7283 76.8078 29.5683 76.9842 29.61C77.2048 29.6622 77.3007 29.8754 77.4964 29.9668Z" fill="#002E6A"/>
<path opacity="0.1" d="M94.9333 43.6667L98.0204 42C98.0204 42 105.525 59.9048 103.72 64.8571C101.915 69.8095 94.9808 80 94.9808 80C94.9808 80 89.4714 78.8571 90.0414 77.7143C90.6113 76.5714 94.3159 69.2381 94.6008 68.2857C94.8858 67.3333 96.7856 61.1429 95.9307 60.4762C95.0758 59.8095 93.4135 44.3333 93.4135 44.3333L94.9333 43.6667Z" fill="black"/>
<path d="M95.2209 41L99.0204 42.0463C99.0204 42.0463 106.525 59.9293 104.72 64.8756C102.915 69.822 95.9808 80 95.9808 80C95.9808 80 90.4714 78.8585 91.0414 77.7171C91.6113 76.5756 95.3159 69.2512 95.6008 68.3C95.8858 67.3488 97.7856 61.1659 96.9307 60.5C96.0758 59.8341 91.9912 43.378 91.9912 43.378L95.2209 41Z" fill="#575A89"/>
<path d="M136 56C136 71.464 114.286 84 87.5 84C60.7142 84 39 71.464 39 56" stroke="#002E6A" stroke-width="2" stroke-miterlimit="10"/>
<path d="M127 85C116.236 90.607 102.191 94 86.8264 94C72.0953 94 58.5767 90.8809 48 85.6818" stroke="#002E6A" stroke-width="2" stroke-miterlimit="10"/>
<path d="M112 22C132.805 27.3537 147.622 39.1301 149 53" stroke="#002E6A" stroke-width="2" stroke-miterlimit="10"/>
<path d="M28 44C31.4481 37.7405 37.747 32.232 46 28" stroke="#002E6A" stroke-width="2" stroke-miterlimit="10"/>
<path d="M71 113H110.187C117.938 99.6667 117.938 86.3333 110.187 73H71C81.8372 86.3333 81.8372 99.6667 71 113Z" fill="#EAF2FC"/>
<path d="M106 81H84V83H106V81Z" fill="#00AEEF"/>
<path d="M112 89H82V90H112V89Z" fill="white"/>
<path d="M112 94H82V95H112V94Z" fill="white"/>
<path d="M54 86H14.813C7.06234 72.6667 7.06234 59.3333 14.813 46H54C43.1628 59.3333 43.1628 72.6667 54 86Z" fill="#EAF2FC"/>
<path d="M41 51H19V54H41V51Z" fill="#00AEEF"/>
<path d="M44 59H14V60H44V59Z" fill="white"/>
<path d="M44 64H14V65H44V64Z" fill="white"/>
<path d="M44 69H14V70H44V69Z" fill="white"/>
<path d="M44 73H14V74H44V73Z" fill="white"/>
<path d="M119 68H158.187C165.938 54.6667 165.938 41.3333 158.187 28H119C129.837 41.3333 129.837 54.6667 119 68Z" fill="#EAF2FC"/>
<path d="M153 32H131V35H153V32Z" fill="#00AEEF"/>
<path d="M158 40H129V41H158V40Z" fill="white"/>
</svg>
