<svg width="268" height="268" viewBox="0 0 268 268" fill="none" xmlns="http://www.w3.org/2000/svg">
					<path d="M243.623 213.299L170.962 213.083L170.949 216.772L243.61 216.988L243.623 213.299Z" fill="#EAF2FC"/>
					<path d="M253.694 222.931L181.032 222.714L181.019 226.403L253.68 226.62L253.694 222.931Z" fill="#EAF2FC"/>
					<path d="M262.282 232.016L189.621 231.8L189.608 235.489L262.269 235.705L262.282 232.016Z" fill="#EAF2FC"/>
					<path d="M242.231 231.389L238.028 233L230.231 216.378L236.436 214L242.231 231.389Z" fill="#FFB8B8"/>
					<path d="M231.619 240L231.558 239.817C231.057 238.321 231.135 236.675 231.773 235.24C232.412 233.805 233.559 232.698 234.963 232.162L243.276 229L245.231 234.822L231.619 240Z" fill="#2F2E41"/>
					<path d="M215.231 236L210.488 236L208.231 218L215.231 218L215.231 236Z" fill="#FFB8B8"/>
					<path d="M216.231 240L201.231 239.999V239.811C201.231 239.048 201.382 238.292 201.676 237.587C201.969 236.882 202.399 236.241 202.942 235.702C203.484 235.162 204.127 234.734 204.836 234.442C205.544 234.15 206.303 234 207.07 234H207.07L216.231 234L216.231 240Z" fill="#2F2E41"/>
					<path d="M225.231 123.834L223.454 120C223.454 120 216.833 121.811 216.231 126L225.231 123.834Z" fill="#00AEEF"/>
					<path d="M233.613 168.729L228.407 198.239L242.231 223.071L233.972 226.353L219.968 202.282L218.173 195.718L217.095 230L209.647 229.77L206.231 197.759L211.709 168L233.613 168.729Z" fill="#2F2E41"/>
					<path d="M207.892 173.354C207.721 172.626 207.231 150.402 207.231 150.402C207.231 150.402 215.321 124.968 215.395 124.759L215.424 124.677L221.565 122.472C221.651 122.434 223.697 121.561 225.372 122.289C225.801 122.489 226.18 122.776 226.481 123.131C226.783 123.486 227 123.899 227.117 124.343C227.814 124.84 232.833 130.226 232.833 137.531L233.023 154.77L237.231 173.458L237.045 173.496C236.93 173.52 231.8 175 223.72 175C219.231 175 207.892 173.354 207.892 173.354Z" fill="#3F3D56"/>
					<path d="M217.231 118C221.65 118 225.231 114.642 225.231 110.5C225.231 106.358 221.65 103 217.231 103C212.813 103 209.231 106.358 209.231 110.5C209.231 114.642 212.813 118 217.231 118Z" fill="#FFB8B8"/>
					<path opacity="0.2" d="M229.231 146L214.419 166L212.231 156.66L229.231 146Z" fill="black"/>
					<path d="M204.004 165.996C204.528 165.977 205.041 165.85 205.507 165.623C205.973 165.397 206.381 165.078 206.701 164.688C207.022 164.298 207.247 163.846 207.362 163.365C207.477 162.884 207.478 162.385 207.366 161.904L218.231 155.639L212.231 153L202.833 159.354C201.985 159.585 201.257 160.101 200.786 160.803C200.316 161.506 200.136 162.346 200.28 163.164C200.424 163.983 200.883 164.724 201.57 165.246C202.256 165.768 203.122 166.035 204.004 165.996Z" fill="#FFB8B8"/>
					<path d="M211.179 153L207.231 155.54L210.58 161L215.231 157.465L211.179 153Z" fill="#00AEEF"/>
					<path d="M209.231 153.061L218.023 143.437L214.655 130.162C214.307 128.79 214.499 127.346 215.196 126.098C215.893 124.85 217.047 123.885 218.443 123.382C219.839 122.879 221.38 122.873 222.78 123.365C224.18 123.856 225.343 124.813 226.051 126.055L226.128 126.189L229.231 145.902L213.635 161L209.231 153.061Z" fill="#3F3D56"/>
					<path d="M224.302 117.754L217.489 118C217.074 118.015 215.947 113.515 215.799 112.582C215.683 111.974 215.35 111.43 214.863 111.05C214.376 110.671 213.768 110.483 213.152 110.521C212.642 110.569 211.356 109.613 210.029 108.48C207.51 106.329 207.641 102.29 210.408 100.473C210.484 100.424 210.558 100.378 210.631 100.337C212.377 99.3561 214.42 99.0266 216.42 99.0015C218.234 98.9787 220.099 99.2079 221.697 100.07C224.561 101.615 226.086 104.991 226.22 108.253C226.354 111.515 225.312 114.705 224.13 117.746" fill="#2F2E41"/>
					<path d="M261.859 247H179.604C179.505 247 179.41 246.947 179.34 246.854C179.271 246.76 179.231 246.633 179.231 246.5C179.231 246.367 179.271 246.24 179.34 246.146C179.41 246.053 179.505 246 179.604 246H261.859C261.958 246 262.053 246.053 262.122 246.146C262.192 246.24 262.231 246.367 262.231 246.5C262.231 246.633 262.192 246.76 262.122 246.854C262.053 246.947 261.958 247 261.859 247Z" fill="#3F3D56"/>
					<path id="deal" d="M48.6982 171.799C48.3527 170.712 49.1636 169.604 50.3037 169.604H167.577C168.708 169.604 169.518 170.696 169.189 171.778L156.669 213.017C156.492 213.601 156.029 214.04 155.431 214.165C150.409 215.214 126.57 220.003 110.048 220C93.4963 219.997 68.2466 215.179 63.0598 214.154C62.4614 214.036 61.9944 213.604 61.8095 213.022L48.6982 171.799Z" fill="#00AEEF"/>
					<path d="M169.428 169.884C169.428 170.323 169.134 170.838 168.36 171.414C167.597 171.981 166.444 172.546 164.919 173.094C161.874 174.189 157.444 175.183 151.942 176.019C140.943 177.692 125.734 178.728 108.925 178.728C92.1152 178.728 76.9062 177.692 65.9078 176.019C60.4053 175.183 55.9753 174.189 52.9303 173.094C51.4052 172.546 50.2525 171.981 49.489 171.414C48.7149 170.838 48.4212 170.323 48.4212 169.884C48.4212 169.446 48.7149 168.931 49.489 168.355C50.2525 167.788 51.4052 167.223 52.9303 166.674C55.9753 165.58 60.4053 164.586 65.9078 163.749C76.9062 162.077 92.1152 161.041 108.925 161.041C125.734 161.041 140.943 162.077 151.942 163.749C157.444 164.586 161.874 165.58 164.919 166.674C166.444 167.223 167.597 167.788 168.36 168.355C169.134 168.931 169.428 169.446 169.428 169.884Z" fill="#EAF2FC" stroke="#002E6A" stroke-width="0.842368"/>
					<path id="app" d="M26.6982 106.049C26.3527 104.962 27.1636 103.853 28.3037 103.853H189.383C190.513 103.853 191.323 104.945 190.995 106.027L173.633 163.214C173.455 163.798 172.977 164.24 172.38 164.366C166.332 165.637 133.198 172.372 110.354 172.367C87.4753 172.362 52.3712 165.592 46.1424 164.354C45.5441 164.235 45.0666 163.801 44.8817 163.219L26.6982 106.049Z" fill="#00AEEF"/>
					<circle cx="151" cy="142" r="7.5" stroke="black"/>
					<path d="M150.118 144.283L149.611 137.835H151.613L151.106 144.283H150.118ZM149.702 147V145.193H151.522V147H149.702Z" fill="black"/>
					<circle cx="141" cy="198" r="7.5" stroke="black"/>
					<path d="M140.118 200.283L139.611 193.835H141.613L141.106 200.283H140.118ZM139.702 203V201.193H141.522V203H139.702Z" fill="black"/>
					<path d="M191.234 104.235C191.234 104.903 190.787 105.643 189.721 106.435C188.665 107.219 187.082 107.994 185.003 108.741C180.85 110.235 174.816 111.587 167.332 112.725C152.37 115 131.685 116.409 108.827 116.409C85.9696 116.409 65.285 115 50.3229 112.725C42.8386 111.587 36.8049 110.235 32.6515 108.741C30.5723 107.994 28.9893 107.219 27.934 106.435C26.8681 105.643 26.4212 104.903 26.4212 104.235C26.4212 103.566 26.8681 102.826 27.934 102.034C28.9893 101.25 30.5723 100.476 32.6515 99.7282C36.8049 98.2349 42.8386 96.8827 50.3229 95.7446C65.285 93.4692 85.9696 92.0601 108.827 92.0601C131.685 92.0601 152.37 93.4692 167.332 95.7446C174.816 96.8827 180.85 98.2349 185.003 99.7282C187.082 100.476 188.665 101.25 189.721 102.034C190.787 102.826 191.234 103.566 191.234 104.235Z" fill="#EAF2FC" stroke="#002E6A" stroke-width="0.842368"/>
					<path id="lead" d="M0.698247 24.1954C0.352673 23.1088 1.16358 22 2.30373 22H216.251C217.382 22 218.192 23.0921 217.863 24.1742L194.658 100.608C194.481 101.192 194.032 101.628 193.435 101.754C186.449 103.23 141.868 112.386 111.276 112.38C80.6559 112.374 33.4367 103.181 26.2365 101.743C25.6384 101.623 25.1882 101.195 25.0033 100.613L0.698247 24.1954Z" fill="#00AEEF"/>
					<path d="M218.102 16.6158C218.102 17.562 217.47 18.5726 216.052 19.6264C214.645 20.6724 212.542 21.6991 209.794 22.6871C204.303 24.6614 196.334 26.4467 186.458 27.9486C166.712 30.9514 139.419 32.8105 109.262 32.8105C79.1043 32.8105 51.811 30.9514 32.0653 27.9486C22.1892 26.4467 14.2199 24.6614 8.72882 22.6871C5.98078 21.6991 3.87844 20.6724 2.47104 19.6264C1.05306 18.5726 0.421184 17.562 0.421184 16.6158C0.421184 15.6696 1.05306 14.659 2.47104 13.6052C3.87844 12.5593 5.98078 11.5326 8.72882 10.5445C14.2199 8.57027 22.1892 6.78496 32.0653 5.28306C51.811 2.28025 79.1043 0.421184 109.262 0.421184C139.419 0.421184 166.712 2.28025 186.458 5.28306C196.334 6.78496 204.303 8.57027 209.794 10.5445C212.542 11.5326 214.645 12.5593 216.052 13.6052C217.47 14.659 218.102 15.6696 218.102 16.6158Z" fill="#EAF2FC" stroke="#002E6A" stroke-width="0.842368"/>
					<circle cx="168" cy="67" r="7.5" stroke="black"/>
					<path d="M167.118 69.283L166.611 62.835H168.613L168.106 69.283H167.118ZM166.702 72V70.193H168.522V72H166.702Z" fill="black"/>
					<path d="M93.5498 59V49.0059H95.1904V57.6055H99.4355V59H93.5498ZM104.016 51.2891C104.69 51.2891 105.269 51.4281 105.752 51.7061C106.235 51.984 106.606 52.3783 106.866 52.8887C107.126 53.3991 107.256 54.0098 107.256 54.7207V55.582H102.204C102.222 56.3158 102.418 56.8809 102.792 57.2773C103.17 57.6738 103.699 57.8721 104.378 57.8721C104.861 57.8721 105.294 57.8265 105.677 57.7354C106.064 57.6396 106.463 57.5007 106.873 57.3184V58.624C106.495 58.8018 106.11 58.9316 105.718 59.0137C105.326 59.0957 104.856 59.1367 104.31 59.1367C103.567 59.1367 102.913 58.9932 102.348 58.7061C101.787 58.4144 101.347 57.9814 101.028 57.4072C100.714 56.833 100.557 56.1198 100.557 55.2676C100.557 54.4199 100.7 53.6999 100.987 53.1074C101.274 52.515 101.678 52.0638 102.197 51.7539C102.717 51.444 103.323 51.2891 104.016 51.2891ZM104.016 52.499C103.51 52.499 103.1 52.6631 102.785 52.9912C102.475 53.3193 102.293 53.8001 102.238 54.4336H105.684C105.679 54.0553 105.615 53.7204 105.492 53.4287C105.374 53.137 105.191 52.9092 104.945 52.7451C104.704 52.5811 104.394 52.499 104.016 52.499ZM112.034 51.2891C112.991 51.2891 113.714 51.501 114.201 51.9248C114.693 52.3486 114.939 53.0094 114.939 53.9072V59H113.798L113.49 57.9268H113.436C113.221 58.2002 113 58.4258 112.772 58.6035C112.545 58.7812 112.28 58.9134 111.979 59C111.683 59.0911 111.321 59.1367 110.893 59.1367C110.441 59.1367 110.038 59.0547 109.683 58.8906C109.327 58.722 109.047 58.4668 108.842 58.125C108.637 57.7832 108.534 57.3503 108.534 56.8262C108.534 56.0469 108.824 55.4613 109.402 55.0693C109.986 54.6774 110.865 54.4609 112.041 54.4199L113.354 54.3721V53.9756C113.354 53.4515 113.23 53.0778 112.984 52.8545C112.743 52.6312 112.401 52.5195 111.959 52.5195C111.581 52.5195 111.214 52.5742 110.858 52.6836C110.503 52.793 110.157 52.9274 109.819 53.0869L109.3 51.9521C109.669 51.7562 110.088 51.5967 110.558 51.4736C111.032 51.3506 111.524 51.2891 112.034 51.2891ZM113.347 55.3838L112.369 55.418C111.567 55.4453 111.004 55.582 110.681 55.8281C110.357 56.0742 110.195 56.4115 110.195 56.8398C110.195 57.2135 110.307 57.487 110.53 57.6602C110.754 57.8288 111.048 57.9131 111.412 57.9131C111.968 57.9131 112.428 57.7559 112.793 57.4414C113.162 57.1224 113.347 56.6553 113.347 56.04V55.3838ZM119.731 59.1367C118.829 59.1367 118.104 58.8086 117.558 58.1523C117.015 57.4915 116.744 56.5186 116.744 55.2334C116.744 53.9346 117.02 52.9525 117.571 52.2871C118.127 51.6217 118.859 51.2891 119.766 51.2891C120.148 51.2891 120.483 51.3415 120.771 51.4463C121.058 51.5465 121.304 51.6833 121.509 51.8564C121.718 52.0296 121.896 52.2233 122.042 52.4375H122.117C122.094 52.2962 122.067 52.0934 122.035 51.8291C122.008 51.5602 121.994 51.3118 121.994 51.084V48.3633H123.607V59H122.35L122.062 57.9678H121.994C121.857 58.1865 121.684 58.3848 121.475 58.5625C121.27 58.7357 121.023 58.8747 120.736 58.9795C120.454 59.0843 120.119 59.1367 119.731 59.1367ZM120.183 57.8311C120.871 57.8311 121.356 57.6328 121.639 57.2363C121.921 56.8398 122.067 56.2451 122.076 55.4521V55.2402C122.076 54.3926 121.939 53.7432 121.666 53.292C121.393 52.8363 120.894 52.6084 120.169 52.6084C119.59 52.6084 119.148 52.8431 118.843 53.3125C118.542 53.7773 118.392 54.4268 118.392 55.2607C118.392 56.0947 118.542 56.7327 118.843 57.1748C119.148 57.6123 119.595 57.8311 120.183 57.8311ZM73.0625 81.3633C72.0371 81.3633 71.251 81.1787 70.7041 80.8096C70.1572 80.4404 69.8838 79.9232 69.8838 79.2578C69.8838 78.793 70.0296 78.3988 70.3213 78.0752C70.613 77.7562 71.0299 77.5352 71.5723 77.4121C71.3672 77.321 71.1895 77.1797 71.0391 76.9883C70.8932 76.7923 70.8203 76.5758 70.8203 76.3389C70.8203 76.0563 70.9001 75.8148 71.0596 75.6143C71.2191 75.4137 71.4583 75.2201 71.7773 75.0332C71.3809 74.8646 71.0618 74.5911 70.8203 74.2129C70.5833 73.8301 70.4648 73.3812 70.4648 72.8662C70.4648 72.3193 70.5811 71.8545 70.8135 71.4717C71.0459 71.0843 71.3854 70.7904 71.832 70.5898C72.2786 70.3848 72.8187 70.2822 73.4521 70.2822C73.5889 70.2822 73.737 70.2913 73.8965 70.3096C74.0605 70.3232 74.2109 70.3415 74.3477 70.3643C74.4889 70.3825 74.596 70.403 74.6689 70.4258H77.2871V71.3213L76.002 71.5605C76.125 71.7337 76.223 71.932 76.2959 72.1553C76.3688 72.374 76.4053 72.6133 76.4053 72.873C76.4053 73.6569 76.1341 74.2744 75.5918 74.7256C75.054 75.1722 74.3112 75.3955 73.3633 75.3955C73.1354 75.3864 72.9144 75.3682 72.7002 75.3408C72.5361 75.4411 72.4108 75.5527 72.3242 75.6758C72.2376 75.7943 72.1943 75.9287 72.1943 76.0791C72.1943 76.2021 72.2376 76.3024 72.3242 76.3799C72.4108 76.4528 72.5384 76.5075 72.707 76.5439C72.8802 76.5804 73.0898 76.5986 73.3359 76.5986H74.6416C75.471 76.5986 76.1045 76.7741 76.542 77.125C76.9795 77.4759 77.1982 77.9909 77.1982 78.6699C77.1982 79.5312 76.8428 80.1943 76.1318 80.6592C75.4209 81.1286 74.3978 81.3633 73.0625 81.3633ZM73.124 80.2354C73.6846 80.2354 74.1562 80.1807 74.5391 80.0713C74.9219 79.9619 75.2113 79.8047 75.4072 79.5996C75.6032 79.3991 75.7012 79.1598 75.7012 78.8818C75.7012 78.6357 75.6396 78.4466 75.5166 78.3145C75.3936 78.1823 75.209 78.0911 74.9629 78.041C74.7168 77.9909 74.4115 77.9658 74.0469 77.9658H72.8574C72.5612 77.9658 72.2992 78.0114 72.0713 78.1025C71.8434 78.1982 71.6657 78.335 71.5381 78.5127C71.415 78.6904 71.3535 78.9046 71.3535 79.1553C71.3535 79.5016 71.5062 79.7682 71.8115 79.9551C72.1214 80.1419 72.5589 80.2354 73.124 80.2354ZM73.4385 74.3428C73.9079 74.3428 74.2565 74.2152 74.4844 73.96C74.7122 73.7002 74.8262 73.3356 74.8262 72.8662C74.8262 72.3558 74.7077 71.973 74.4707 71.7178C74.2383 71.4626 73.8919 71.335 73.4316 71.335C72.9805 71.335 72.6364 71.4648 72.3994 71.7246C72.167 71.9844 72.0508 72.3695 72.0508 72.8799C72.0508 73.3402 72.167 73.7002 72.3994 73.96C72.6364 74.2152 72.9827 74.3428 73.4385 74.3428ZM81.6826 70.2891C82.3571 70.2891 82.9359 70.4281 83.4189 70.7061C83.902 70.984 84.2734 71.3783 84.5332 71.8887C84.793 72.3991 84.9229 73.0098 84.9229 73.7207V74.582H79.8711C79.8893 75.3158 80.0853 75.8809 80.459 76.2773C80.8372 76.6738 81.3659 76.8721 82.0449 76.8721C82.528 76.8721 82.9609 76.8265 83.3438 76.7354C83.7311 76.6396 84.1299 76.5007 84.54 76.3184V77.624C84.1618 77.8018 83.7767 77.9316 83.3848 78.0137C82.9928 78.0957 82.5234 78.1367 81.9766 78.1367C81.2337 78.1367 80.5798 77.9932 80.0146 77.7061C79.4541 77.4144 79.0143 76.9814 78.6953 76.4072C78.3809 75.833 78.2236 75.1198 78.2236 74.2676C78.2236 73.4199 78.3672 72.6999 78.6543 72.1074C78.9414 71.515 79.3447 71.0638 79.8643 70.7539C80.3838 70.444 80.9899 70.2891 81.6826 70.2891ZM81.6826 71.499C81.1768 71.499 80.7666 71.6631 80.4521 71.9912C80.1423 72.3193 79.96 72.8001 79.9053 73.4336H83.3506C83.346 73.0553 83.2822 72.7204 83.1592 72.4287C83.0407 72.137 82.8584 71.9092 82.6123 71.7451C82.3708 71.5811 82.0609 71.499 81.6826 71.499ZM90.6787 70.2891C91.5309 70.2891 92.194 70.5101 92.668 70.9521C93.1465 71.3896 93.3857 72.0938 93.3857 73.0645V78H91.7793V73.3652C91.7793 72.7773 91.6585 72.3376 91.417 72.0459C91.1755 71.7497 90.8018 71.6016 90.2959 71.6016C89.5622 71.6016 89.0518 71.8271 88.7646 72.2783C88.4821 72.7295 88.3408 73.3835 88.3408 74.2402V78H86.7344V70.4326H87.9854L88.2109 71.458H88.2998C88.4639 71.1937 88.6667 70.9772 88.9082 70.8086C89.1543 70.6354 89.4277 70.5055 89.7285 70.4189C90.0339 70.3324 90.3506 70.2891 90.6787 70.2891ZM98.6494 70.2891C99.3239 70.2891 99.9027 70.4281 100.386 70.7061C100.869 70.984 101.24 71.3783 101.5 71.8887C101.76 72.3991 101.89 73.0098 101.89 73.7207V74.582H96.8379C96.8561 75.3158 97.0521 75.8809 97.4258 76.2773C97.804 76.6738 98.3327 76.8721 99.0117 76.8721C99.4948 76.8721 99.9277 76.8265 100.311 76.7354C100.698 76.6396 101.097 76.5007 101.507 76.3184V77.624C101.129 77.8018 100.743 77.9316 100.352 78.0137C99.9596 78.0957 99.4902 78.1367 98.9434 78.1367C98.2005 78.1367 97.5465 77.9932 96.9814 77.7061C96.4209 77.4144 95.9811 76.9814 95.6621 76.4072C95.3477 75.833 95.1904 75.1198 95.1904 74.2676C95.1904 73.4199 95.334 72.6999 95.6211 72.1074C95.9082 71.515 96.3115 71.0638 96.8311 70.7539C97.3506 70.444 97.9567 70.2891 98.6494 70.2891ZM98.6494 71.499C98.1436 71.499 97.7334 71.6631 97.4189 71.9912C97.109 72.3193 96.9268 72.8001 96.8721 73.4336H100.317C100.313 73.0553 100.249 72.7204 100.126 72.4287C100.007 72.137 99.8252 71.9092 99.5791 71.7451C99.3376 71.5811 99.0277 71.499 98.6494 71.499ZM107.536 70.2891C107.664 70.2891 107.803 70.2959 107.953 70.3096C108.104 70.3232 108.233 70.3415 108.343 70.3643L108.192 71.8682C108.097 71.8408 107.978 71.8203 107.837 71.8066C107.7 71.793 107.577 71.7861 107.468 71.7861C107.181 71.7861 106.907 71.834 106.647 71.9297C106.388 72.0208 106.158 72.1621 105.957 72.3535C105.757 72.5404 105.599 72.7751 105.485 73.0576C105.371 73.3402 105.314 73.6683 105.314 74.042V78H103.701V70.4326H104.959L105.178 71.7656H105.253C105.403 71.4967 105.59 71.2507 105.813 71.0273C106.037 70.804 106.292 70.6263 106.579 70.4941C106.871 70.3574 107.19 70.2891 107.536 70.2891ZM112.711 70.2891C113.668 70.2891 114.39 70.501 114.878 70.9248C115.37 71.3486 115.616 72.0094 115.616 72.9072V78H114.475L114.167 76.9268H114.112C113.898 77.2002 113.677 77.4258 113.449 77.6035C113.221 77.7812 112.957 77.9134 112.656 78C112.36 78.0911 111.998 78.1367 111.569 78.1367C111.118 78.1367 110.715 78.0547 110.359 77.8906C110.004 77.722 109.724 77.4668 109.519 77.125C109.313 76.7832 109.211 76.3503 109.211 75.8262C109.211 75.0469 109.5 74.4613 110.079 74.0693C110.662 73.6774 111.542 73.4609 112.718 73.4199L114.03 73.3721V72.9756C114.03 72.4515 113.907 72.0778 113.661 71.8545C113.42 71.6312 113.078 71.5195 112.636 71.5195C112.257 71.5195 111.891 71.5742 111.535 71.6836C111.18 71.793 110.833 71.9274 110.496 72.0869L109.977 70.9521C110.346 70.7562 110.765 70.5967 111.234 70.4736C111.708 70.3506 112.201 70.2891 112.711 70.2891ZM114.023 74.3838L113.046 74.418C112.244 74.4453 111.681 74.582 111.357 74.8281C111.034 75.0742 110.872 75.4115 110.872 75.8398C110.872 76.2135 110.984 76.487 111.207 76.6602C111.43 76.8288 111.724 76.9131 112.089 76.9131C112.645 76.9131 113.105 76.7559 113.47 76.4414C113.839 76.1224 114.023 75.6553 114.023 75.04V74.3838ZM120.682 76.8379C120.891 76.8379 121.099 76.8197 121.304 76.7832C121.509 76.7422 121.696 76.6943 121.864 76.6396V77.8564C121.687 77.9339 121.456 78 121.174 78.0547C120.891 78.1094 120.597 78.1367 120.292 78.1367C119.864 78.1367 119.479 78.0661 119.137 77.9248C118.795 77.779 118.524 77.5306 118.323 77.1797C118.123 76.8288 118.022 76.3434 118.022 75.7236V71.6562H116.99V70.9385L118.098 70.3711L118.624 68.751H119.636V70.4326H121.803V71.6562H119.636V75.7031C119.636 76.0859 119.731 76.3708 119.923 76.5576C120.114 76.7445 120.367 76.8379 120.682 76.8379ZM125.009 70.4326V78H123.402V70.4326H125.009ZM124.216 67.5342C124.462 67.5342 124.674 67.6003 124.852 67.7324C125.034 67.8646 125.125 68.0924 125.125 68.416C125.125 68.735 125.034 68.9629 124.852 69.0996C124.674 69.2318 124.462 69.2979 124.216 69.2979C123.961 69.2979 123.744 69.2318 123.566 69.0996C123.393 68.9629 123.307 68.735 123.307 68.416C123.307 68.0924 123.393 67.8646 123.566 67.7324C123.744 67.6003 123.961 67.5342 124.216 67.5342ZM134.012 74.1992C134.012 74.8281 133.93 75.3864 133.766 75.874C133.602 76.3617 133.362 76.7741 133.048 77.1113C132.733 77.444 132.355 77.6992 131.913 77.877C131.471 78.0501 130.972 78.1367 130.416 78.1367C129.896 78.1367 129.42 78.0501 128.987 77.877C128.554 77.6992 128.178 77.444 127.859 77.1113C127.545 76.7741 127.301 76.3617 127.128 75.874C126.955 75.3864 126.868 74.8281 126.868 74.1992C126.868 73.3652 127.012 72.6589 127.299 72.0801C127.59 71.4967 128.005 71.0524 128.543 70.7471C129.081 70.4417 129.721 70.2891 130.464 70.2891C131.161 70.2891 131.776 70.4417 132.31 70.7471C132.843 71.0524 133.26 71.4967 133.561 72.0801C133.861 72.6634 134.012 73.3698 134.012 74.1992ZM128.522 74.1992C128.522 74.7507 128.589 75.2223 128.721 75.6143C128.857 76.0062 129.067 76.307 129.35 76.5166C129.632 76.7217 129.997 76.8242 130.443 76.8242C130.89 76.8242 131.255 76.7217 131.537 76.5166C131.82 76.307 132.027 76.0062 132.159 75.6143C132.291 75.2223 132.357 74.7507 132.357 74.1992C132.357 73.6478 132.291 73.1807 132.159 72.7979C132.027 72.4105 131.82 72.1165 131.537 71.916C131.255 71.7109 130.888 71.6084 130.437 71.6084C129.771 71.6084 129.286 71.8317 128.98 72.2783C128.675 72.7249 128.522 73.3652 128.522 74.1992ZM139.802 70.2891C140.654 70.2891 141.317 70.5101 141.791 70.9521C142.27 71.3896 142.509 72.0938 142.509 73.0645V78H140.902V73.3652C140.902 72.7773 140.782 72.3376 140.54 72.0459C140.299 71.7497 139.925 71.6016 139.419 71.6016C138.685 71.6016 138.175 71.8271 137.888 72.2783C137.605 72.7295 137.464 73.3835 137.464 74.2402V78H135.857V70.4326H137.108L137.334 71.458H137.423C137.587 71.1937 137.79 70.9772 138.031 70.8086C138.277 70.6354 138.551 70.5055 138.852 70.4189C139.157 70.3324 139.474 70.2891 139.802 70.2891Z" fill="black"/>
					<path d="M77.4688 134.288H74.8779V132.928H77.4688C77.9199 132.928 78.2845 132.855 78.5625 132.709C78.8405 132.563 79.0433 132.363 79.1709 132.107C79.3031 131.848 79.3691 131.551 79.3691 131.219C79.3691 130.904 79.3031 130.61 79.1709 130.337C79.0433 130.059 78.8405 129.836 78.5625 129.667C78.2845 129.498 77.9199 129.414 77.4688 129.414H75.4043V138H73.6885V128.047H77.4688C78.2389 128.047 78.8929 128.184 79.4307 128.457C79.973 128.726 80.3854 129.1 80.668 129.578C80.9505 130.052 81.0918 130.594 81.0918 131.205C81.0918 131.848 80.9505 132.399 80.668 132.859C80.3854 133.32 79.973 133.673 79.4307 133.919C78.8929 134.165 78.2389 134.288 77.4688 134.288ZM86.916 136.257V130.604H88.5703V138H87.0117L86.916 136.257ZM87.1484 134.719L87.7021 134.705C87.7021 135.202 87.6475 135.66 87.5381 136.079C87.4287 136.494 87.2601 136.856 87.0322 137.166C86.8044 137.471 86.5127 137.711 86.1572 137.884C85.8018 138.052 85.3757 138.137 84.8789 138.137C84.5189 138.137 84.1885 138.084 83.8877 137.979C83.5869 137.875 83.3271 137.713 83.1084 137.494C82.8942 137.275 82.7279 136.991 82.6094 136.64C82.4909 136.289 82.4316 135.869 82.4316 135.382V130.604H84.0791V135.396C84.0791 135.664 84.111 135.89 84.1748 136.072C84.2386 136.25 84.3252 136.394 84.4346 136.503C84.5439 136.612 84.6715 136.69 84.8174 136.735C84.9632 136.781 85.1182 136.804 85.2822 136.804C85.7516 136.804 86.1208 136.713 86.3896 136.53C86.6631 136.343 86.8568 136.093 86.9707 135.778C87.0892 135.464 87.1484 135.111 87.1484 134.719ZM94.4082 135.997C94.4082 135.833 94.3672 135.685 94.2852 135.553C94.2031 135.416 94.0459 135.293 93.8135 135.184C93.5856 135.074 93.2484 134.974 92.8018 134.883C92.4098 134.796 92.0498 134.694 91.7217 134.575C91.3981 134.452 91.1201 134.304 90.8877 134.131C90.6553 133.958 90.4753 133.753 90.3477 133.516C90.2201 133.279 90.1562 133.005 90.1562 132.695C90.1562 132.395 90.2223 132.11 90.3545 131.841C90.4867 131.572 90.6758 131.335 90.9219 131.13C91.168 130.925 91.4665 130.763 91.8174 130.645C92.1729 130.526 92.5693 130.467 93.0068 130.467C93.6266 130.467 94.1576 130.572 94.5996 130.781C95.0462 130.986 95.388 131.267 95.625 131.622C95.862 131.973 95.9805 132.369 95.9805 132.812H94.333C94.333 132.616 94.2829 132.433 94.1826 132.265C94.0869 132.091 93.9411 131.952 93.7451 131.848C93.5492 131.738 93.3031 131.684 93.0068 131.684C92.7243 131.684 92.4896 131.729 92.3027 131.82C92.1204 131.907 91.9837 132.021 91.8926 132.162C91.806 132.303 91.7627 132.458 91.7627 132.627C91.7627 132.75 91.7855 132.862 91.8311 132.962C91.8812 133.058 91.9632 133.146 92.0771 133.229C92.1911 133.306 92.346 133.379 92.542 133.447C92.7425 133.516 92.9932 133.582 93.2939 133.646C93.859 133.764 94.3444 133.917 94.75 134.104C95.1602 134.286 95.4746 134.523 95.6934 134.814C95.9121 135.102 96.0215 135.466 96.0215 135.908C96.0215 136.236 95.9508 136.537 95.8096 136.811C95.6729 137.079 95.4723 137.314 95.208 137.515C94.9437 137.711 94.627 137.863 94.2578 137.973C93.8932 138.082 93.4831 138.137 93.0273 138.137C92.3574 138.137 91.79 138.018 91.3252 137.781C90.8604 137.54 90.5072 137.232 90.2656 136.858C90.0286 136.48 89.9102 136.088 89.9102 135.683H91.5029C91.5212 135.988 91.6055 136.232 91.7559 136.414C91.9108 136.592 92.1022 136.722 92.3301 136.804C92.5625 136.881 92.8018 136.92 93.0479 136.92C93.3441 136.92 93.5924 136.881 93.793 136.804C93.9935 136.722 94.1462 136.612 94.251 136.476C94.3558 136.334 94.4082 136.175 94.4082 135.997ZM99.0908 127.5V138H97.4502V127.5H99.0908ZM98.8037 134.028L98.2705 134.021C98.2751 133.511 98.3457 133.039 98.4824 132.606C98.6237 132.174 98.8197 131.798 99.0703 131.479C99.3255 131.155 99.6309 130.907 99.9863 130.733C100.342 130.556 100.736 130.467 101.169 130.467C101.534 130.467 101.862 130.517 102.153 130.617C102.45 130.717 102.705 130.879 102.919 131.103C103.133 131.321 103.295 131.608 103.404 131.964C103.518 132.315 103.575 132.743 103.575 133.249V138H101.921V133.235C101.921 132.88 101.868 132.597 101.764 132.388C101.663 132.178 101.515 132.028 101.319 131.937C101.123 131.841 100.884 131.793 100.602 131.793C100.305 131.793 100.043 131.852 99.8154 131.971C99.5921 132.089 99.4053 132.251 99.2549 132.456C99.1045 132.661 98.9906 132.898 98.9131 133.167C98.8402 133.436 98.8037 133.723 98.8037 134.028ZM112.12 130.604V131.807H107.95V130.604H112.12ZM109.153 128.792H110.801V135.956C110.801 136.184 110.833 136.359 110.896 136.482C110.965 136.601 111.058 136.681 111.177 136.722C111.295 136.763 111.434 136.783 111.594 136.783C111.708 136.783 111.817 136.776 111.922 136.763C112.027 136.749 112.111 136.735 112.175 136.722L112.182 137.979C112.045 138.021 111.885 138.057 111.703 138.089C111.525 138.121 111.32 138.137 111.088 138.137C110.71 138.137 110.375 138.071 110.083 137.938C109.791 137.802 109.563 137.581 109.399 137.275C109.235 136.97 109.153 136.564 109.153 136.059V128.792ZM112.913 134.384V134.227C112.913 133.693 112.991 133.199 113.146 132.743C113.3 132.283 113.524 131.884 113.815 131.547C114.112 131.205 114.472 130.941 114.896 130.754C115.324 130.562 115.807 130.467 116.345 130.467C116.887 130.467 117.37 130.562 117.794 130.754C118.222 130.941 118.585 131.205 118.881 131.547C119.177 131.884 119.403 132.283 119.558 132.743C119.713 133.199 119.79 133.693 119.79 134.227V134.384C119.79 134.917 119.713 135.411 119.558 135.867C119.403 136.323 119.177 136.722 118.881 137.063C118.585 137.401 118.225 137.665 117.801 137.856C117.377 138.043 116.896 138.137 116.358 138.137C115.816 138.137 115.331 138.043 114.902 137.856C114.479 137.665 114.118 137.401 113.822 137.063C113.526 136.722 113.3 136.323 113.146 135.867C112.991 135.411 112.913 134.917 112.913 134.384ZM114.561 134.227V134.384C114.561 134.716 114.595 135.031 114.663 135.327C114.731 135.623 114.839 135.883 114.984 136.106C115.13 136.33 115.317 136.505 115.545 136.633C115.773 136.76 116.044 136.824 116.358 136.824C116.664 136.824 116.928 136.76 117.151 136.633C117.379 136.505 117.566 136.33 117.712 136.106C117.858 135.883 117.965 135.623 118.033 135.327C118.106 135.031 118.143 134.716 118.143 134.384V134.227C118.143 133.898 118.106 133.589 118.033 133.297C117.965 133.001 117.855 132.739 117.705 132.511C117.559 132.283 117.372 132.105 117.145 131.978C116.921 131.845 116.655 131.779 116.345 131.779C116.035 131.779 115.766 131.845 115.538 131.978C115.315 132.105 115.13 132.283 114.984 132.511C114.839 132.739 114.731 133.001 114.663 133.297C114.595 133.589 114.561 133.898 114.561 134.227ZM65.1436 152.517V148.989C65.1436 148.725 65.0957 148.497 65 148.306C64.9043 148.114 64.7585 147.966 64.5625 147.861C64.3711 147.757 64.1296 147.704 63.8379 147.704C63.569 147.704 63.3366 147.75 63.1406 147.841C62.9447 147.932 62.792 148.055 62.6826 148.21C62.5732 148.365 62.5186 148.54 62.5186 148.736H60.8779C60.8779 148.445 60.9486 148.162 61.0898 147.889C61.2311 147.615 61.4362 147.371 61.7051 147.157C61.974 146.943 62.2952 146.774 62.6689 146.651C63.0426 146.528 63.4619 146.467 63.9268 146.467C64.4827 146.467 64.9749 146.56 65.4033 146.747C65.8363 146.934 66.1758 147.216 66.4219 147.595C66.6725 147.968 66.7979 148.438 66.7979 149.003V152.291C66.7979 152.628 66.8206 152.931 66.8662 153.2C66.9163 153.465 66.987 153.695 67.0781 153.891V154H65.3896C65.3122 153.822 65.2507 153.597 65.2051 153.323C65.1641 153.045 65.1436 152.776 65.1436 152.517ZM65.3828 149.502L65.3965 150.521H64.2139C63.9085 150.521 63.6396 150.55 63.4072 150.609C63.1748 150.664 62.9811 150.746 62.8262 150.855C62.6712 150.965 62.555 151.097 62.4775 151.252C62.4001 151.407 62.3613 151.582 62.3613 151.778C62.3613 151.974 62.4069 152.154 62.498 152.318C62.5892 152.478 62.7214 152.603 62.8945 152.694C63.0723 152.785 63.2865 152.831 63.5371 152.831C63.8743 152.831 64.1683 152.763 64.4189 152.626C64.6742 152.485 64.8747 152.314 65.0205 152.113C65.1663 151.908 65.2438 151.715 65.2529 151.532L65.7861 152.264C65.7314 152.451 65.638 152.651 65.5059 152.865C65.3737 153.079 65.2005 153.285 64.9863 153.48C64.7767 153.672 64.5238 153.829 64.2275 153.952C63.9359 154.075 63.5986 154.137 63.2158 154.137C62.7327 154.137 62.3021 154.041 61.9238 153.85C61.5456 153.654 61.2493 153.392 61.0352 153.063C60.821 152.731 60.7139 152.355 60.7139 151.936C60.7139 151.544 60.7868 151.197 60.9326 150.896C61.083 150.591 61.3018 150.336 61.5889 150.131C61.8805 149.926 62.236 149.771 62.6553 149.666C63.0745 149.557 63.5531 149.502 64.0908 149.502H65.3828ZM70.1748 148.025V156.844H68.5273V146.604H70.0449L70.1748 148.025ZM74.9941 150.233V150.377C74.9941 150.915 74.9303 151.414 74.8027 151.874C74.6797 152.33 74.4951 152.729 74.249 153.07C74.0075 153.408 73.709 153.67 73.3535 153.856C72.998 154.043 72.5879 154.137 72.123 154.137C71.6628 154.137 71.2594 154.052 70.9131 153.884C70.5713 153.711 70.2819 153.467 70.0449 153.152C69.8079 152.838 69.6165 152.469 69.4707 152.045C69.3294 151.617 69.2292 151.147 69.1699 150.637V150.083C69.2292 149.541 69.3294 149.049 69.4707 148.606C69.6165 148.164 69.8079 147.784 70.0449 147.465C70.2819 147.146 70.5713 146.9 70.9131 146.727C71.2549 146.553 71.6536 146.467 72.1094 146.467C72.5742 146.467 72.9867 146.558 73.3467 146.74C73.7067 146.918 74.0098 147.173 74.2559 147.506C74.502 147.834 74.6865 148.23 74.8096 148.695C74.9326 149.156 74.9941 149.668 74.9941 150.233ZM73.3467 150.377V150.233C73.3467 149.892 73.3148 149.575 73.251 149.283C73.1872 148.987 73.0869 148.727 72.9502 148.504C72.8135 148.281 72.638 148.107 72.4238 147.984C72.2142 147.857 71.9613 147.793 71.665 147.793C71.3734 147.793 71.1227 147.843 70.9131 147.943C70.7035 148.039 70.528 148.174 70.3867 148.347C70.2454 148.52 70.1361 148.723 70.0586 148.955C69.9811 149.183 69.9264 149.431 69.8945 149.7V151.026C69.9492 151.354 70.0426 151.655 70.1748 151.929C70.307 152.202 70.4938 152.421 70.7354 152.585C70.9814 152.744 71.2959 152.824 71.6787 152.824C71.9749 152.824 72.2279 152.76 72.4375 152.633C72.6471 152.505 72.818 152.33 72.9502 152.106C73.0869 151.879 73.1872 151.617 73.251 151.32C73.3148 151.024 73.3467 150.71 73.3467 150.377ZM78.0498 148.025V156.844H76.4023V146.604H77.9199L78.0498 148.025ZM82.8691 150.233V150.377C82.8691 150.915 82.8053 151.414 82.6777 151.874C82.5547 152.33 82.3701 152.729 82.124 153.07C81.8825 153.408 81.584 153.67 81.2285 153.856C80.873 154.043 80.4629 154.137 79.998 154.137C79.5378 154.137 79.1344 154.052 78.7881 153.884C78.4463 153.711 78.1569 153.467 77.9199 153.152C77.6829 152.838 77.4915 152.469 77.3457 152.045C77.2044 151.617 77.1042 151.147 77.0449 150.637V150.083C77.1042 149.541 77.2044 149.049 77.3457 148.606C77.4915 148.164 77.6829 147.784 77.9199 147.465C78.1569 147.146 78.4463 146.9 78.7881 146.727C79.1299 146.553 79.5286 146.467 79.9844 146.467C80.4492 146.467 80.8617 146.558 81.2217 146.74C81.5817 146.918 81.8848 147.173 82.1309 147.506C82.377 147.834 82.5615 148.23 82.6846 148.695C82.8076 149.156 82.8691 149.668 82.8691 150.233ZM81.2217 150.377V150.233C81.2217 149.892 81.1898 149.575 81.126 149.283C81.0622 148.987 80.9619 148.727 80.8252 148.504C80.6885 148.281 80.513 148.107 80.2988 147.984C80.0892 147.857 79.8363 147.793 79.54 147.793C79.2484 147.793 78.9977 147.843 78.7881 147.943C78.5785 148.039 78.403 148.174 78.2617 148.347C78.1204 148.52 78.0111 148.723 77.9336 148.955C77.8561 149.183 77.8014 149.431 77.7695 149.7V151.026C77.8242 151.354 77.9176 151.655 78.0498 151.929C78.182 152.202 78.3688 152.421 78.6104 152.585C78.8564 152.744 79.1709 152.824 79.5537 152.824C79.8499 152.824 80.1029 152.76 80.3125 152.633C80.5221 152.505 80.693 152.33 80.8252 152.106C80.9619 151.879 81.0622 151.617 81.126 151.32C81.1898 151.024 81.2217 150.71 81.2217 150.377ZM86.0342 143.5V154H84.3799V143.5H86.0342ZM89.6025 146.604V154H87.9482V146.604H89.6025ZM87.8389 144.662C87.8389 144.411 87.9209 144.204 88.085 144.04C88.2536 143.871 88.486 143.787 88.7822 143.787C89.0739 143.787 89.304 143.871 89.4727 144.04C89.6413 144.204 89.7256 144.411 89.7256 144.662C89.7256 144.908 89.6413 145.113 89.4727 145.277C89.304 145.441 89.0739 145.523 88.7822 145.523C88.486 145.523 88.2536 145.441 88.085 145.277C87.9209 145.113 87.8389 144.908 87.8389 144.662ZM94.4287 152.824C94.6976 152.824 94.9391 152.772 95.1533 152.667C95.3721 152.558 95.5475 152.407 95.6797 152.216C95.8164 152.024 95.8916 151.803 95.9053 151.553H97.457C97.4479 152.031 97.3066 152.466 97.0332 152.858C96.7598 153.25 96.3975 153.562 95.9463 153.795C95.4951 154.023 94.9961 154.137 94.4492 154.137C93.8841 154.137 93.3919 154.041 92.9727 153.85C92.5534 153.654 92.2048 153.385 91.9268 153.043C91.6488 152.701 91.4391 152.307 91.2979 151.86C91.1611 151.414 91.0928 150.935 91.0928 150.425V150.186C91.0928 149.675 91.1611 149.197 91.2979 148.75C91.4391 148.299 91.6488 147.902 91.9268 147.561C92.2048 147.219 92.5534 146.952 92.9727 146.761C93.3919 146.565 93.8818 146.467 94.4424 146.467C95.0348 146.467 95.5544 146.585 96.001 146.822C96.4476 147.055 96.7985 147.381 97.0537 147.8C97.3135 148.215 97.4479 148.698 97.457 149.249H95.9053C95.8916 148.976 95.8232 148.729 95.7002 148.511C95.5817 148.287 95.4131 148.11 95.1943 147.978C94.9801 147.845 94.7227 147.779 94.4219 147.779C94.0892 147.779 93.8135 147.848 93.5947 147.984C93.376 148.117 93.2051 148.299 93.082 148.531C92.959 148.759 92.8701 149.017 92.8154 149.304C92.7653 149.586 92.7402 149.88 92.7402 150.186V150.425C92.7402 150.73 92.7653 151.026 92.8154 151.313C92.8656 151.601 92.9521 151.858 93.0752 152.086C93.2028 152.309 93.376 152.489 93.5947 152.626C93.8135 152.758 94.0915 152.824 94.4287 152.824ZM102.892 152.517V148.989C102.892 148.725 102.844 148.497 102.748 148.306C102.652 148.114 102.507 147.966 102.311 147.861C102.119 147.757 101.878 147.704 101.586 147.704C101.317 147.704 101.085 147.75 100.889 147.841C100.693 147.932 100.54 148.055 100.431 148.21C100.321 148.365 100.267 148.54 100.267 148.736H98.626C98.626 148.445 98.6966 148.162 98.8379 147.889C98.9792 147.615 99.1842 147.371 99.4531 147.157C99.722 146.943 100.043 146.774 100.417 146.651C100.791 146.528 101.21 146.467 101.675 146.467C102.231 146.467 102.723 146.56 103.151 146.747C103.584 146.934 103.924 147.216 104.17 147.595C104.421 147.968 104.546 148.438 104.546 149.003V152.291C104.546 152.628 104.569 152.931 104.614 153.2C104.664 153.465 104.735 153.695 104.826 153.891V154H103.138C103.06 153.822 102.999 153.597 102.953 153.323C102.912 153.045 102.892 152.776 102.892 152.517ZM103.131 149.502L103.145 150.521H101.962C101.657 150.521 101.388 150.55 101.155 150.609C100.923 150.664 100.729 150.746 100.574 150.855C100.419 150.965 100.303 151.097 100.226 151.252C100.148 151.407 100.109 151.582 100.109 151.778C100.109 151.974 100.155 152.154 100.246 152.318C100.337 152.478 100.469 152.603 100.643 152.694C100.82 152.785 101.035 152.831 101.285 152.831C101.622 152.831 101.916 152.763 102.167 152.626C102.422 152.485 102.623 152.314 102.769 152.113C102.914 151.908 102.992 151.715 103.001 151.532L103.534 152.264C103.479 152.451 103.386 152.651 103.254 152.865C103.122 153.079 102.949 153.285 102.734 153.48C102.525 153.672 102.272 153.829 101.976 153.952C101.684 154.075 101.347 154.137 100.964 154.137C100.481 154.137 100.05 154.041 99.6719 153.85C99.2936 153.654 98.9974 153.392 98.7832 153.063C98.569 152.731 98.4619 152.355 98.4619 151.936C98.4619 151.544 98.5348 151.197 98.6807 150.896C98.8311 150.591 99.0498 150.336 99.3369 150.131C99.6286 149.926 99.984 149.771 100.403 149.666C100.823 149.557 101.301 149.502 101.839 149.502H103.131ZM109.659 146.604V147.807H105.489V146.604H109.659ZM106.692 144.792H108.34V151.956C108.34 152.184 108.372 152.359 108.436 152.482C108.504 152.601 108.597 152.681 108.716 152.722C108.834 152.763 108.973 152.783 109.133 152.783C109.247 152.783 109.356 152.776 109.461 152.763C109.566 152.749 109.65 152.735 109.714 152.722L109.721 153.979C109.584 154.021 109.424 154.057 109.242 154.089C109.064 154.121 108.859 154.137 108.627 154.137C108.249 154.137 107.914 154.071 107.622 153.938C107.33 153.802 107.103 153.581 106.938 153.275C106.774 152.97 106.692 152.564 106.692 152.059V144.792ZM112.694 146.604V154H111.04V146.604H112.694ZM110.931 144.662C110.931 144.411 111.013 144.204 111.177 144.04C111.345 143.871 111.578 143.787 111.874 143.787C112.166 143.787 112.396 143.871 112.564 144.04C112.733 144.204 112.817 144.411 112.817 144.662C112.817 144.908 112.733 145.113 112.564 145.277C112.396 145.441 112.166 145.523 111.874 145.523C111.578 145.523 111.345 145.441 111.177 145.277C111.013 145.113 110.931 144.908 110.931 144.662ZM114.185 150.384V150.227C114.185 149.693 114.262 149.199 114.417 148.743C114.572 148.283 114.795 147.884 115.087 147.547C115.383 147.205 115.743 146.941 116.167 146.754C116.595 146.562 117.078 146.467 117.616 146.467C118.159 146.467 118.642 146.562 119.065 146.754C119.494 146.941 119.856 147.205 120.152 147.547C120.449 147.884 120.674 148.283 120.829 148.743C120.984 149.199 121.062 149.693 121.062 150.227V150.384C121.062 150.917 120.984 151.411 120.829 151.867C120.674 152.323 120.449 152.722 120.152 153.063C119.856 153.401 119.496 153.665 119.072 153.856C118.648 154.043 118.168 154.137 117.63 154.137C117.088 154.137 116.602 154.043 116.174 153.856C115.75 153.665 115.39 153.401 115.094 153.063C114.798 152.722 114.572 152.323 114.417 151.867C114.262 151.411 114.185 150.917 114.185 150.384ZM115.832 150.227V150.384C115.832 150.716 115.866 151.031 115.935 151.327C116.003 151.623 116.11 151.883 116.256 152.106C116.402 152.33 116.589 152.505 116.816 152.633C117.044 152.76 117.315 152.824 117.63 152.824C117.935 152.824 118.2 152.76 118.423 152.633C118.651 152.505 118.838 152.33 118.983 152.106C119.129 151.883 119.236 151.623 119.305 151.327C119.378 151.031 119.414 150.716 119.414 150.384V150.227C119.414 149.898 119.378 149.589 119.305 149.297C119.236 149.001 119.127 148.739 118.977 148.511C118.831 148.283 118.644 148.105 118.416 147.978C118.193 147.845 117.926 147.779 117.616 147.779C117.306 147.779 117.037 147.845 116.81 147.978C116.586 148.105 116.402 148.283 116.256 148.511C116.11 148.739 116.003 149.001 115.935 149.297C115.866 149.589 115.832 149.898 115.832 150.227ZM124.076 148.183V154H122.429V146.604H123.98L124.076 148.183ZM123.782 150.028L123.249 150.021C123.254 149.497 123.326 149.017 123.468 148.579C123.614 148.142 123.814 147.766 124.069 147.451C124.329 147.137 124.639 146.895 124.999 146.727C125.359 146.553 125.76 146.467 126.202 146.467C126.558 146.467 126.879 146.517 127.166 146.617C127.458 146.713 127.706 146.87 127.911 147.089C128.121 147.308 128.28 147.592 128.39 147.943C128.499 148.29 128.554 148.716 128.554 149.222V154H126.899V149.215C126.899 148.859 126.847 148.579 126.742 148.374C126.642 148.164 126.494 148.016 126.298 147.93C126.106 147.839 125.867 147.793 125.58 147.793C125.298 147.793 125.045 147.852 124.821 147.971C124.598 148.089 124.409 148.251 124.254 148.456C124.104 148.661 123.987 148.898 123.905 149.167C123.823 149.436 123.782 149.723 123.782 150.028Z" fill="black"/>
					<path d="M84.4326 191.288H81.8418V189.928H84.4326C84.8838 189.928 85.2484 189.855 85.5264 189.709C85.8044 189.563 86.0072 189.363 86.1348 189.107C86.2669 188.848 86.333 188.551 86.333 188.219C86.333 187.904 86.2669 187.61 86.1348 187.337C86.0072 187.059 85.8044 186.836 85.5264 186.667C85.2484 186.498 84.8838 186.414 84.4326 186.414H82.3682V195H80.6523V185.047H84.4326C85.2028 185.047 85.8568 185.184 86.3945 185.457C86.9368 185.726 87.3493 186.1 87.6318 186.578C87.9144 187.052 88.0557 187.594 88.0557 188.205C88.0557 188.848 87.9144 189.399 87.6318 189.859C87.3493 190.32 86.9368 190.673 86.3945 190.919C85.8568 191.165 85.2028 191.288 84.4326 191.288ZM93.8799 193.257V187.604H95.5342V195H93.9756L93.8799 193.257ZM94.1123 191.719L94.666 191.705C94.666 192.202 94.6113 192.66 94.502 193.079C94.3926 193.494 94.224 193.856 93.9961 194.166C93.7682 194.471 93.4766 194.711 93.1211 194.884C92.7656 195.052 92.3395 195.137 91.8428 195.137C91.4827 195.137 91.1523 195.084 90.8516 194.979C90.5508 194.875 90.291 194.713 90.0723 194.494C89.8581 194.275 89.6917 193.991 89.5732 193.64C89.4548 193.289 89.3955 192.869 89.3955 192.382V187.604H91.043V192.396C91.043 192.664 91.0749 192.89 91.1387 193.072C91.2025 193.25 91.2891 193.394 91.3984 193.503C91.5078 193.612 91.6354 193.69 91.7812 193.735C91.9271 193.781 92.082 193.804 92.2461 193.804C92.7155 193.804 93.0846 193.713 93.3535 193.53C93.627 193.343 93.8206 193.093 93.9346 192.778C94.0531 192.464 94.1123 192.111 94.1123 191.719ZM101.372 192.997C101.372 192.833 101.331 192.685 101.249 192.553C101.167 192.416 101.01 192.293 100.777 192.184C100.549 192.074 100.212 191.974 99.7656 191.883C99.3737 191.796 99.0137 191.694 98.6855 191.575C98.362 191.452 98.084 191.304 97.8516 191.131C97.6191 190.958 97.4391 190.753 97.3115 190.516C97.1839 190.279 97.1201 190.005 97.1201 189.695C97.1201 189.395 97.1862 189.11 97.3184 188.841C97.4505 188.572 97.6396 188.335 97.8857 188.13C98.1318 187.925 98.4303 187.763 98.7812 187.645C99.1367 187.526 99.5332 187.467 99.9707 187.467C100.59 187.467 101.121 187.572 101.563 187.781C102.01 187.986 102.352 188.267 102.589 188.622C102.826 188.973 102.944 189.369 102.944 189.812H101.297C101.297 189.616 101.247 189.433 101.146 189.265C101.051 189.091 100.905 188.952 100.709 188.848C100.513 188.738 100.267 188.684 99.9707 188.684C99.6882 188.684 99.4535 188.729 99.2666 188.82C99.0843 188.907 98.9476 189.021 98.8564 189.162C98.7699 189.303 98.7266 189.458 98.7266 189.627C98.7266 189.75 98.7493 189.862 98.7949 189.962C98.8451 190.058 98.9271 190.146 99.041 190.229C99.1549 190.306 99.3099 190.379 99.5059 190.447C99.7064 190.516 99.957 190.582 100.258 190.646C100.823 190.764 101.308 190.917 101.714 191.104C102.124 191.286 102.438 191.523 102.657 191.814C102.876 192.102 102.985 192.466 102.985 192.908C102.985 193.236 102.915 193.537 102.773 193.811C102.637 194.079 102.436 194.314 102.172 194.515C101.908 194.711 101.591 194.863 101.222 194.973C100.857 195.082 100.447 195.137 99.9912 195.137C99.3213 195.137 98.7539 195.018 98.2891 194.781C97.8242 194.54 97.471 194.232 97.2295 193.858C96.9925 193.48 96.874 193.088 96.874 192.683H98.4668C98.485 192.988 98.5693 193.232 98.7197 193.414C98.8747 193.592 99.0661 193.722 99.2939 193.804C99.5264 193.881 99.7656 193.92 100.012 193.92C100.308 193.92 100.556 193.881 100.757 193.804C100.957 193.722 101.11 193.612 101.215 193.476C101.32 193.334 101.372 193.175 101.372 192.997ZM106.055 184.5V195H104.414V184.5H106.055ZM105.768 191.028L105.234 191.021C105.239 190.511 105.31 190.039 105.446 189.606C105.588 189.174 105.784 188.798 106.034 188.479C106.289 188.155 106.595 187.907 106.95 187.733C107.306 187.556 107.7 187.467 108.133 187.467C108.497 187.467 108.826 187.517 109.117 187.617C109.413 187.717 109.669 187.879 109.883 188.103C110.097 188.321 110.259 188.608 110.368 188.964C110.482 189.315 110.539 189.743 110.539 190.249V195H108.885V190.235C108.885 189.88 108.832 189.597 108.728 189.388C108.627 189.178 108.479 189.028 108.283 188.937C108.087 188.841 107.848 188.793 107.565 188.793C107.269 188.793 107.007 188.852 106.779 188.971C106.556 189.089 106.369 189.251 106.219 189.456C106.068 189.661 105.954 189.898 105.877 190.167C105.804 190.436 105.768 190.723 105.768 191.028ZM78.5195 203.604V204.807H74.3496V203.604H78.5195ZM75.5527 201.792H77.2002V208.956C77.2002 209.184 77.2321 209.359 77.2959 209.482C77.3643 209.601 77.4577 209.681 77.5762 209.722C77.6947 209.763 77.8337 209.783 77.9932 209.783C78.1071 209.783 78.2165 209.776 78.3213 209.763C78.4261 209.749 78.5104 209.735 78.5742 209.722L78.5811 210.979C78.4443 211.021 78.2848 211.057 78.1025 211.089C77.9248 211.121 77.7197 211.137 77.4873 211.137C77.109 211.137 76.7741 211.071 76.4824 210.938C76.1908 210.802 75.9629 210.581 75.7988 210.275C75.6348 209.97 75.5527 209.564 75.5527 209.059V201.792ZM79.3125 207.384V207.227C79.3125 206.693 79.39 206.199 79.5449 205.743C79.6999 205.283 79.9232 204.884 80.2148 204.547C80.5111 204.205 80.8711 203.941 81.2949 203.754C81.7233 203.562 82.2064 203.467 82.7441 203.467C83.2865 203.467 83.7695 203.562 84.1934 203.754C84.6217 203.941 84.984 204.205 85.2803 204.547C85.5765 204.884 85.8021 205.283 85.957 205.743C86.112 206.199 86.1895 206.693 86.1895 207.227V207.384C86.1895 207.917 86.112 208.411 85.957 208.867C85.8021 209.323 85.5765 209.722 85.2803 210.063C84.984 210.401 84.624 210.665 84.2002 210.856C83.7764 211.043 83.2956 211.137 82.7578 211.137C82.2155 211.137 81.7301 211.043 81.3018 210.856C80.8779 210.665 80.5179 210.401 80.2217 210.063C79.9255 209.722 79.6999 209.323 79.5449 208.867C79.39 208.411 79.3125 207.917 79.3125 207.384ZM80.96 207.227V207.384C80.96 207.716 80.9941 208.031 81.0625 208.327C81.1309 208.623 81.238 208.883 81.3838 209.106C81.5296 209.33 81.7165 209.505 81.9443 209.633C82.1722 209.76 82.4434 209.824 82.7578 209.824C83.0632 209.824 83.3275 209.76 83.5508 209.633C83.7786 209.505 83.9655 209.33 84.1113 209.106C84.2572 208.883 84.3643 208.623 84.4326 208.327C84.5055 208.031 84.542 207.716 84.542 207.384V207.227C84.542 206.898 84.5055 206.589 84.4326 206.297C84.3643 206.001 84.2549 205.739 84.1045 205.511C83.9587 205.283 83.7718 205.105 83.5439 204.978C83.3206 204.845 83.054 204.779 82.7441 204.779C82.4342 204.779 82.1654 204.845 81.9375 204.978C81.7142 205.105 81.5296 205.283 81.3838 205.511C81.238 205.739 81.1309 206.001 81.0625 206.297C80.9941 206.589 80.96 206.898 80.96 207.227ZM95.5684 209.469V200.5H97.2227V211H95.7256L95.5684 209.469ZM90.7559 207.384V207.24C90.7559 206.68 90.8219 206.169 90.9541 205.709C91.0863 205.244 91.2777 204.845 91.5283 204.513C91.779 204.175 92.0843 203.918 92.4443 203.74C92.8044 203.558 93.21 203.467 93.6611 203.467C94.1077 203.467 94.4997 203.553 94.8369 203.727C95.1742 203.9 95.4613 204.148 95.6982 204.472C95.9352 204.791 96.1243 205.174 96.2656 205.62C96.4069 206.062 96.5072 206.554 96.5664 207.097V207.555C96.5072 208.083 96.4069 208.566 96.2656 209.004C96.1243 209.441 95.9352 209.82 95.6982 210.139C95.4613 210.458 95.1719 210.704 94.8301 210.877C94.4928 211.05 94.0986 211.137 93.6475 211.137C93.2008 211.137 92.7975 211.043 92.4375 210.856C92.082 210.67 91.779 210.408 91.5283 210.07C91.2777 209.733 91.0863 209.337 90.9541 208.881C90.8219 208.421 90.7559 207.922 90.7559 207.384ZM92.4033 207.24V207.384C92.4033 207.721 92.4329 208.035 92.4922 208.327C92.556 208.619 92.654 208.876 92.7861 209.1C92.9183 209.318 93.0892 209.492 93.2988 209.619C93.513 209.742 93.7682 209.804 94.0645 209.804C94.4382 209.804 94.7458 209.722 94.9873 209.558C95.2288 209.394 95.418 209.173 95.5547 208.895C95.696 208.612 95.7917 208.298 95.8418 207.951V206.714C95.8145 206.445 95.7575 206.194 95.6709 205.962C95.5889 205.729 95.4772 205.527 95.3359 205.354C95.1947 205.176 95.0192 205.039 94.8096 204.943C94.6045 204.843 94.3607 204.793 94.0781 204.793C93.7773 204.793 93.5221 204.857 93.3125 204.984C93.1029 205.112 92.9297 205.287 92.793 205.511C92.6608 205.734 92.5628 205.994 92.499 206.29C92.4352 206.586 92.4033 206.903 92.4033 207.24ZM102.206 211.137C101.659 211.137 101.165 211.048 100.723 210.87C100.285 210.688 99.9115 210.435 99.6016 210.111C99.2962 209.788 99.0615 209.407 98.8975 208.97C98.7334 208.532 98.6514 208.061 98.6514 207.555V207.281C98.6514 206.702 98.7357 206.178 98.9043 205.709C99.0729 205.24 99.3076 204.839 99.6084 204.506C99.9092 204.169 100.265 203.911 100.675 203.733C101.085 203.556 101.529 203.467 102.008 203.467C102.536 203.467 102.999 203.556 103.396 203.733C103.792 203.911 104.12 204.162 104.38 204.485C104.644 204.804 104.84 205.185 104.968 205.627C105.1 206.069 105.166 206.557 105.166 207.09V207.794H99.4512V206.611H103.539V206.481C103.53 206.185 103.471 205.907 103.361 205.647C103.257 205.388 103.095 205.178 102.876 205.019C102.657 204.859 102.366 204.779 102.001 204.779C101.728 204.779 101.484 204.839 101.27 204.957C101.06 205.071 100.884 205.237 100.743 205.456C100.602 205.675 100.493 205.939 100.415 206.249C100.342 206.554 100.306 206.898 100.306 207.281V207.555C100.306 207.878 100.349 208.179 100.436 208.457C100.527 208.73 100.659 208.97 100.832 209.175C101.005 209.38 101.215 209.542 101.461 209.66C101.707 209.774 101.987 209.831 102.302 209.831C102.698 209.831 103.051 209.751 103.361 209.592C103.671 209.432 103.94 209.207 104.168 208.915L105.036 209.756C104.877 209.988 104.669 210.212 104.414 210.426C104.159 210.635 103.847 210.806 103.478 210.938C103.113 211.071 102.689 211.137 102.206 211.137ZM110.621 209.517V205.989C110.621 205.725 110.573 205.497 110.478 205.306C110.382 205.114 110.236 204.966 110.04 204.861C109.849 204.757 109.607 204.704 109.315 204.704C109.047 204.704 108.814 204.75 108.618 204.841C108.422 204.932 108.27 205.055 108.16 205.21C108.051 205.365 107.996 205.54 107.996 205.736H106.355C106.355 205.445 106.426 205.162 106.567 204.889C106.709 204.615 106.914 204.371 107.183 204.157C107.451 203.943 107.773 203.774 108.146 203.651C108.52 203.528 108.939 203.467 109.404 203.467C109.96 203.467 110.452 203.56 110.881 203.747C111.314 203.934 111.653 204.216 111.899 204.595C112.15 204.968 112.275 205.438 112.275 206.003V209.291C112.275 209.628 112.298 209.931 112.344 210.2C112.394 210.465 112.465 210.695 112.556 210.891V211H110.867C110.79 210.822 110.728 210.597 110.683 210.323C110.642 210.045 110.621 209.776 110.621 209.517ZM110.86 206.502L110.874 207.521H109.691C109.386 207.521 109.117 207.55 108.885 207.609C108.652 207.664 108.459 207.746 108.304 207.855C108.149 207.965 108.033 208.097 107.955 208.252C107.878 208.407 107.839 208.582 107.839 208.778C107.839 208.974 107.884 209.154 107.976 209.318C108.067 209.478 108.199 209.603 108.372 209.694C108.55 209.785 108.764 209.831 109.015 209.831C109.352 209.831 109.646 209.763 109.896 209.626C110.152 209.485 110.352 209.314 110.498 209.113C110.644 208.908 110.721 208.715 110.73 208.532L111.264 209.264C111.209 209.451 111.116 209.651 110.983 209.865C110.851 210.079 110.678 210.285 110.464 210.48C110.254 210.672 110.001 210.829 109.705 210.952C109.413 211.075 109.076 211.137 108.693 211.137C108.21 211.137 107.78 211.041 107.401 210.85C107.023 210.654 106.727 210.392 106.513 210.063C106.299 209.731 106.191 209.355 106.191 208.936C106.191 208.544 106.264 208.197 106.41 207.896C106.561 207.591 106.779 207.336 107.066 207.131C107.358 206.926 107.714 206.771 108.133 206.666C108.552 206.557 109.031 206.502 109.568 206.502H110.86ZM115.762 200.5V211H114.107V200.5H115.762Z" fill="black"/>
				</svg>